<?xml version="1.0" encoding="UTF-8"?>
<svg xmlns="http://www.w3.org/2000/svg" xmlns:xlink="http://www.w3.org/1999/xlink" width="369.8pt" height="420.2pt" viewBox="0 0 369.8 420.2" version="1.1">
<defs>
<clipPath id="clip1">
  <path d="M 1 3 L 369.800781 3 L 369.800781 418 L 1 418 Z M 1 3 "/>
</clipPath>
</defs>
<g id="surface1">
<g clip-path="url(#clip1)" clip-rule="nonzero">
<path style=" stroke:none;fill-rule:evenodd;fill:rgb(100%,32.93457%,0%);fill-opacity:1;" d="M 138.289063 15.953125 C 181.011719 0.582031 228.816406 -0.0820313 271.972656 13.988281 C 310.339844 26.421875 344.847656 50.4375 369.824219 82.097656 C 357.011719 94.898438 344.171875 107.695313 331.402344 120.550781 C 326.804688 114.738281 322.21875 108.894531 316.921875 103.691406 C 295.351563 81.554688 266.882813 66.226563 236.503906 60.511719 C 212.0625 55.921875 186.476563 57.261719 162.730469 64.707031 C 140.429688 71.617188 119.804688 83.792969 102.898438 99.882813 C 84.140625 117.664063 69.957031 140.257813 62.242188 164.9375 C 54.542969 189.347656 53.167969 215.707031 58.242188 240.789063 C 62.4375 261.792969 71.183594 281.855469 83.648438 299.265625 C 95.203125 315.464844 109.9375 329.378906 126.769531 339.992188 C 143.972656 350.863281 163.378906 358.214844 183.464844 361.488281 C 206.421875 365.136719 230.226563 363.679688 252.464844 356.832031 C 281.484375 348.042969 307.644531 330.25 326.695313 306.679688 C 328.339844 304.753906 329.714844 302.613281 331.429688 300.75 C 344.175781 313.625 357.027344 326.390625 369.828125 339.207031 C 343.675781 372.324219 307.097656 397.085938 266.589844 408.960938 C 230.613281 419.597656 191.734375 420.167969 155.460938 410.648438 C 117.730469 400.832031 83.003906 379.941406 56.554688 351.320313 C 28.617188 321.410156 9.925781 282.980469 3.765625 242.503906 C 0.09375 218.453125 0.566406 193.734375 5.347656 169.871094 C 12.605469 133.175781 30.21875 98.628906 55.511719 71.085938 C 78.085938 46.351563 106.753906 27.214844 138.289063 15.953125 Z M 128.296875 164.296875 C 136.28125 150.53125 147.910156 138.914063 161.664063 130.914063 C 176.804688 146.070313 191.96875 161.195313 207.089844 176.371094 C 207.449219 176.691406 208.003906 177.519531 208.472656 176.808594 C 223.074219 162.210938 237.671875 147.613281 252.253906 133.003906 C 252.996094 132.363281 253.5625 131.390625 254.519531 131.066406 C 268.253906 138.949219 279.671875 150.636719 287.722656 164.242188 C 272.304688 179.746094 256.816406 195.171875 241.371094 210.644531 C 256.8125 226.125 272.328125 241.539063 287.722656 257.070313 C 279.640625 270.734375 268.128906 282.367188 254.390625 290.363281 C 238.839844 274.996094 223.53125 259.382813 207.953125 244.046875 C 192.546875 259.523438 177.089844 274.9375 161.660156 290.382813 C 147.921875 282.371094 136.273438 270.765625 128.300781 256.992188 C 143.800781 241.582031 159.1875 226.058594 174.679688 210.644531 C 159.1875 195.230469 143.796875 179.710938 128.296875 164.296875 Z M 128.296875 164.296875 "/>
</g>
</g>
</svg>
