<svg aria-hidden="true" style="position: absolute; width: 0; height: 0; overflow: hidden;" version="1.1" xmlns="http://www.w3.org/2000/svg" xmlns:xlink="http://www.w3.org/1999/xlink">
<defs>
<symbol id="youtube" viewBox="0 0 32 32">
<path style="" d="M31.327 8.273c-0.386-1.353-1.431-2.398-2.756-2.777l-0.028-0.007c-2.493-0.668-12.528-0.668-12.528-0.668s-10.009-0.013-12.528 0.668c-1.353 0.386-2.398 1.431-2.777 2.756l-0.007 0.028c-0.443 2.281-0.696 4.903-0.696 7.585 0 0.054 0 0.109 0 0.163l-0-0.008c-0 0.037-0 0.082-0 0.126 0 2.682 0.253 5.304 0.737 7.845l-0.041-0.26c0.386 1.353 1.431 2.398 2.756 2.777l0.028 0.007c2.491 0.669 12.528 0.669 12.528 0.669s10.008 0 12.528-0.669c1.353-0.386 2.398-1.431 2.777-2.756l0.007-0.028c0.425-2.233 0.668-4.803 0.668-7.429 0-0.099-0-0.198-0.001-0.297l0 0.015c0.001-0.092 0.001-0.201 0.001-0.31 0-2.626-0.243-5.196-0.708-7.687l0.040 0.258zM12.812 20.801v-9.591l8.352 4.803z"></path>
</symbol>
<symbol id="coroflot" viewBox="0 0 32 32">
<path style="" d="M10.429 1.173c3.254-1.171 6.894-1.221 10.181-0.15 2.922 0.947 5.55 2.776 7.452 5.187-0.976 0.975-1.954 1.949-2.926 2.928-0.35-0.443-0.699-0.888-1.103-1.284-1.643-1.686-3.811-2.853-6.124-3.288-1.861-0.35-3.81-0.247-5.618 0.319-1.698 0.526-3.269 1.453-4.556 2.679-1.429 1.354-2.509 3.075-3.096 4.954-0.586 1.859-0.691 3.866-0.305 5.776 0.319 1.6 0.986 3.127 1.935 4.453 0.88 1.234 2.002 2.293 3.284 3.102 1.31 0.828 2.788 1.388 4.318 1.637 1.748 0.278 3.561 0.167 5.255-0.355 2.21-0.669 4.202-2.024 5.653-3.819 0.125-0.147 0.23-0.31 0.361-0.452 0.971 0.98 1.949 1.953 2.924 2.929-1.992 2.522-4.777 4.408-7.862 5.312-2.74 0.81-5.701 0.853-8.463 0.128-2.873-0.748-5.518-2.338-7.532-4.518-2.128-2.278-3.551-5.204-4.020-8.287-0.28-1.832-0.244-3.714 0.12-5.531 0.553-2.794 1.894-5.425 3.82-7.523 1.719-1.884 3.902-3.341 6.304-4.199zM9.668 12.47c0.608-1.048 1.494-1.933 2.541-2.542 1.153 1.154 2.308 2.306 3.459 3.462 0.027 0.024 0.070 0.087 0.105 0.033 1.112-1.112 2.224-2.223 3.334-3.336 0.057-0.049 0.1-0.123 0.173-0.148 1.046 0.6 1.915 1.49 2.529 2.526-1.174 1.181-2.354 2.355-3.53 3.534 1.176 1.179 2.357 2.353 3.53 3.536-0.615 1.041-1.492 1.926-2.538 2.535-1.184-1.17-2.35-2.359-3.536-3.527-1.173 1.179-2.35 2.352-3.525 3.529-1.046-0.61-1.933-1.494-2.54-2.543 1.18-1.174 2.352-2.356 3.532-3.53-1.18-1.174-2.352-2.356-3.532-3.53z"></path>
</symbol>
<symbol id="mail" viewBox="0 0 32 32">
<path d="M28 5h-24c-2.209 0-4 1.792-4 4v13c0 2.209 1.791 4 4 4h24c2.209 0 4-1.791 4-4v-13c0-2.208-1.791-4-4-4zM2 10.25l6.999 5.25-6.999 5.25v-10.5zM30 22c0 1.104-0.898 2-2 2h-24c-1.103 0-2-0.896-2-2l7.832-5.875 4.368 3.277c0.533 0.398 1.166 0.6 1.8 0.6 0.633 0 1.266-0.201 1.799-0.6l4.369-3.277 7.832 5.875zM30 20.75l-7-5.25 7-5.25v10.5zM17.199 18.602c-0.349 0.262-0.763 0.4-1.199 0.4s-0.851-0.139-1.2-0.4l-12.8-9.602c0-1.103 0.897-2 2-2h24c1.102 0 2 0.897 2 2l-12.801 9.602z"></path>
</symbol>
<symbol id="logo" viewBox="0 0 68 32">
<path d="M0.018 15.192c0.012 8.359 0.028 15.558 0.037 16l0.018 0.808h6.142l-0.015-10.788c-0.009-5.961-0.006-10.758 0.009-10.724s0.028 0.111 0.028 0.169c0.003 0.071 0.025 0.129 0.068 0.166 0.052 0.043 0.061 0.077 0.049 0.16-0.009 0.058-0.006 0.098 0.009 0.089 0.031-0.018 0.061 0.058 0.061 0.169 0 0.049 0.021 0.092 0.046 0.104 0.031 0.009 0.046 0.058 0.046 0.138 0 0.077 0.015 0.126 0.046 0.138 0.028 0.009 0.046 0.055 0.046 0.123 0 0.058 0.015 0.117 0.031 0.126 0.018 0.009 0.031 0.074 0.031 0.141 0 0.080 0.012 0.117 0.040 0.111 0.025-0.003 0.040 0.043 0.046 0.141 0.006 0.080 0.021 0.138 0.037 0.129s0.037 0.012 0.043 0.052c0.009 0.040 0.025 0.111 0.034 0.163 0.009 0.049 0.028 0.132 0.037 0.184 0.009 0.049 0.037 0.104 0.058 0.117 0.025 0.015 0.043 0.077 0.043 0.141 0 0.077 0.015 0.126 0.046 0.138 0.028 0.009 0.046 0.055 0.046 0.123 0 0.058 0.015 0.117 0.031 0.126 0.018 0.009 0.031 0.074 0.031 0.141 0 0.086 0.012 0.12 0.046 0.12s0.046 0.034 0.046 0.12c0 0.077 0.015 0.126 0.046 0.138 0.031 0.009 0.046 0.058 0.046 0.141 0 0.068 0.015 0.123 0.031 0.123 0.018 0 0.031 0.049 0.031 0.107 0 0.068 0.018 0.117 0.046 0.126 0.031 0.012 0.046 0.061 0.046 0.138 0 0.086 0.012 0.12 0.046 0.12s0.046 0.034 0.046 0.123c0 0.068 0.015 0.123 0.031 0.123 0.018 0 0.031 0.055 0.031 0.123 0 0.089 0.012 0.123 0.046 0.123s0.046 0.037 0.046 0.138c0 0.107 0.009 0.132 0.046 0.12 0.037-0.015 0.046 0.006 0.046 0.095 0 0.061 0.021 0.132 0.046 0.157 0.025 0.028 0.046 0.089 0.046 0.138s0.015 0.089 0.031 0.089c0.018 0 0.031 0.055 0.031 0.123s0.012 0.123 0.028 0.123c0.018 0 0.040 0.061 0.052 0.138 0.009 0.077 0.031 0.138 0.046 0.138s0.028 0.043 0.028 0.092c0 0.055 0.018 0.101 0.046 0.111 0.028 0.012 0.046 0.058 0.046 0.123 0 0.074 0.015 0.104 0.046 0.104 0.034 0 0.046 0.034 0.046 0.123 0 0.083 0.012 0.12 0.040 0.114 0.021-0.003 0.040 0.037 0.046 0.101 0.006 0.058 0.031 0.12 0.055 0.132s0.043 0.064 0.043 0.114c0 0.052 0.015 0.092 0.031 0.092 0.018 0 0.031 0.049 0.031 0.108s0.012 0.108 0.028 0.108 0.034 0.055 0.046 0.123c0.009 0.071 0.031 0.12 0.046 0.111 0.034-0.021 0.065 0.052 0.065 0.154 0 0.043 0.012 0.068 0.031 0.058 0.018-0.012 0.031 0.031 0.031 0.101 0 0.080 0.015 0.129 0.046 0.141 0.028 0.009 0.046 0.055 0.046 0.108 0 0.049 0.018 0.095 0.046 0.108 0.028 0.009 0.046 0.055 0.046 0.111 0 0.049 0.015 0.092 0.031 0.092 0.018 0 0.031 0.046 0.031 0.104 0 0.064 0.018 0.111 0.046 0.123 0.028 0.009 0.046 0.055 0.046 0.123 0 0.064 0.018 0.111 0.046 0.123 0.028 0.009 0.046 0.055 0.046 0.111 0 0.049 0.015 0.092 0.031 0.092 0.018 0 0.031 0.055 0.031 0.123 0 0.089 0.012 0.123 0.046 0.123 0.031 0 0.046 0.031 0.046 0.104 0 0.064 0.018 0.111 0.046 0.123 0.028 0.009 0.046 0.055 0.046 0.111 0 0.049 0.015 0.092 0.031 0.092 0.018 0 0.031 0.049 0.031 0.108 0 0.074 0.015 0.108 0.046 0.108 0.034 0 0.046 0.034 0.046 0.123 0 0.083 0.012 0.12 0.040 0.117 0.021-0.006 0.040 0.034 0.046 0.104 0.006 0.064 0.021 0.117 0.040 0.117 0.015 0 0.028 0.043 0.028 0.092 0 0.055 0.018 0.101 0.046 0.111 0.028 0.012 0.046 0.058 0.046 0.123 0 0.074 0.015 0.104 0.046 0.104 0.034 0 0.046 0.034 0.046 0.126 0 0.074 0.012 0.117 0.031 0.104s0.031 0.031 0.031 0.104c0 0.098 0.009 0.12 0.046 0.108 0.037-0.015 0.046 0.009 0.046 0.108 0 0.092 0.012 0.126 0.046 0.126 0.031 0 0.046 0.031 0.046 0.089 0 0.049 0.021 0.104 0.046 0.126s0.046 0.086 0.046 0.141c0 0.058 0.015 0.104 0.031 0.104 0.018 0 0.031 0.043 0.031 0.092 0 0.055 0.018 0.101 0.046 0.111 0.028 0.012 0.046 0.058 0.046 0.123 0 0.058 0.015 0.104 0.031 0.104 0.018 0 0.031 0.049 0.031 0.108 0 0.074 0.015 0.108 0.043 0.108 0.055 0 0.092 0.101 0.065 0.184-0.015 0.046-0.009 0.055 0.028 0.043 0.034-0.012 0.052 0.006 0.065 0.071 0.009 0.046 0.031 0.111 0.049 0.138 0.015 0.031 0.028 0.095 0.028 0.144s0.018 0.095 0.046 0.108c0.028 0.009 0.046 0.055 0.046 0.111 0 0.049 0.015 0.092 0.031 0.092 0.018 0 0.031 0.037 0.031 0.083 0 0.049 0.021 0.114 0.046 0.144 0.025 0.034 0.046 0.101 0.046 0.15 0 0.046 0.012 0.080 0.028 0.071 0.034-0.021 0.065 0.052 0.065 0.15 0 0.037 0.021 0.077 0.046 0.089 0.028 0.009 0.046 0.055 0.046 0.108 0 0.049 0.015 0.101 0.031 0.111 0.018 0.009 0.031 0.068 0.031 0.126 0 0.068 0.012 0.101 0.040 0.098 0.021-0.006 0.040 0.034 0.046 0.104 0.006 0.077 0.025 0.117 0.055 0.117 0.028 0 0.043 0.034 0.043 0.108 0 0.058 0.015 0.108 0.031 0.108 0.018 0 0.031 0.055 0.031 0.126 0 0.068 0.012 0.117 0.028 0.108 0.031-0.021 0.065 0.049 0.065 0.135 0 0.031 0.021 0.061 0.046 0.074 0.028 0.009 0.046 0.055 0.046 0.111 0 0.049 0.015 0.092 0.031 0.092 0.018 0 0.031 0.055 0.031 0.123 0 0.089 0.012 0.123 0.046 0.123 0.031 0 0.046 0.031 0.046 0.104 0 0.064 0.018 0.111 0.046 0.123 0.028 0.009 0.046 0.058 0.046 0.126 0 0.058 0.015 0.108 0.031 0.108 0.018 0 0.031 0.040 0.031 0.092 0 0.061 0.015 0.092 0.046 0.092 0.034 0 0.046 0.034 0.046 0.123s0.012 0.123 0.046 0.123 0.046 0.034 0.046 0.126c0 0.074 0.012 0.117 0.031 0.104s0.031 0.031 0.031 0.104c0 0.092 0.012 0.126 0.046 0.126 0.031 0 0.046 0.034 0.046 0.108s0.015 0.108 0.046 0.108 0.046 0.031 0.046 0.104c0 0.064 0.018 0.111 0.046 0.123 0.025 0.009 0.046 0.052 0.046 0.095 0 0.046 0.021 0.101 0.046 0.126 0.025 0.028 0.046 0.089 0.046 0.138s0.015 0.089 0.031 0.089c0.018 0 0.031 0.040 0.031 0.089 0 0.052 0.015 0.101 0.031 0.111 0.018 0.009 0.031 0.052 0.031 0.092 0 0.098 0.031 0.172 0.065 0.15 0.015-0.009 0.028 0.034 0.028 0.092 0 0.077 0.015 0.111 0.043 0.111 0.055 0 0.089 0.101 0.065 0.184-0.012 0.043-0.006 0.061 0.021 0.055 0.025-0.006 0.043 0.025 0.049 0.080 0.006 0.049 0.031 0.108 0.055 0.132s0.043 0.083 0.043 0.132c0 0.049 0.021 0.092 0.046 0.104 0.028 0.009 0.046 0.058 0.046 0.126 0 0.058 0.015 0.108 0.031 0.108 0.018 0 0.031 0.049 0.031 0.108s0.012 0.108 0.028 0.108 0.037 0.055 0.049 0.123c0.012 0.068 0.034 0.117 0.049 0.104 0.015-0.009 0.028 0.031 0.028 0.089 0 0.068 0.018 0.114 0.046 0.126 0.028 0.009 0.046 0.055 0.046 0.108 0 0.049 0.018 0.095 0.046 0.108 0.028 0.009 0.046 0.058 0.046 0.126 0 0.071 0.012 0.104 0.040 0.101 0.021-0.006 0.040 0.034 0.046 0.108 0.006 0.061 0.021 0.108 0.040 0.098 0.015-0.012 0.028 0.037 0.028 0.104 0 0.092 0.012 0.126 0.046 0.126 0.031 0 0.046 0.031 0.046 0.092v0.092h2.564c2.26 0 2.564-0.006 2.564-0.046 0-0.025 0.021-0.046 0.046-0.046 0.031 0 0.046-0.031 0.046-0.104 0-0.058 0.015-0.117 0.031-0.126 0.018-0.009 0.031-0.058 0.031-0.111 0-0.058 0.015-0.089 0.046-0.089 0.034 0 0.046-0.034 0.046-0.123s0.012-0.123 0.046-0.123c0.031 0 0.046-0.034 0.046-0.108 0-0.058 0.015-0.108 0.031-0.108 0.018 0 0.031-0.055 0.031-0.123 0-0.089 0.012-0.123 0.046-0.123 0.031 0 0.046-0.034 0.046-0.108s0.015-0.108 0.046-0.108c0.034 0 0.046-0.034 0.046-0.123 0-0.068 0.015-0.123 0.031-0.123 0.018 0 0.031-0.043 0.031-0.095 0-0.074 0.012-0.092 0.046-0.077 0.037 0.012 0.046-0.009 0.046-0.104 0-0.12 0.043-0.187 0.071-0.117 0.009 0.021 0.018-0.028 0.018-0.108 0.003-0.089 0.015-0.141 0.034-0.129s0.031-0.031 0.031-0.104c0-0.092 0.012-0.126 0.046-0.126 0.031 0 0.046-0.034 0.046-0.108s0.015-0.108 0.046-0.108 0.046-0.034 0.046-0.108c0-0.058 0.012-0.108 0.028-0.108 0.018 0 0.034-0.052 0.040-0.117 0.006-0.071 0.025-0.111 0.049-0.104 0.025 0.003 0.037-0.034 0.037-0.117 0-0.089 0.012-0.123 0.046-0.123s0.046-0.034 0.046-0.126c0-0.074 0.012-0.117 0.031-0.104s0.031-0.031 0.031-0.104c0-0.092 0.012-0.126 0.046-0.126 0.031 0 0.046-0.031 0.046-0.092 0-0.055 0.018-0.101 0.046-0.111 0.028-0.012 0.046-0.058 0.046-0.123 0-0.058 0.015-0.104 0.031-0.104 0.018 0 0.031-0.049 0.031-0.108 0-0.074 0.015-0.108 0.046-0.108s0.046-0.034 0.046-0.108 0.015-0.108 0.046-0.108c0.034 0 0.046-0.034 0.046-0.123 0-0.068 0.015-0.123 0.031-0.123 0.018 0 0.031-0.043 0.031-0.092 0-0.055 0.018-0.101 0.046-0.111 0.028-0.012 0.046-0.058 0.046-0.108 0-0.052 0.018-0.098 0.046-0.108 0.031-0.012 0.046-0.061 0.046-0.141 0-0.071 0.012-0.114 0.031-0.101s0.031-0.025 0.031-0.092 0.018-0.117 0.046-0.126c0.028-0.012 0.046-0.058 0.046-0.123 0-0.074 0.015-0.104 0.046-0.104 0.034 0 0.046-0.034 0.046-0.126 0-0.074 0.012-0.117 0.031-0.104s0.031-0.025 0.031-0.092 0.018-0.117 0.046-0.126c0.025-0.012 0.046-0.055 0.046-0.104 0-0.046 0.021-0.101 0.046-0.123s0.046-0.080 0.046-0.129c0-0.052 0.012-0.083 0.031-0.071 0.018 0.009 0.031-0.015 0.031-0.058 0-0.101 0.031-0.175 0.064-0.154 0.015 0.009 0.028-0.040 0.028-0.108 0-0.092 0.012-0.126 0.046-0.126s0.046-0.034 0.046-0.123c0-0.068 0.015-0.123 0.031-0.123 0.018 0 0.031-0.043 0.031-0.092 0-0.055 0.018-0.101 0.046-0.111 0.028-0.012 0.046-0.058 0.046-0.123 0-0.074 0.015-0.104 0.046-0.104s0.046-0.034 0.046-0.108c0-0.058 0.012-0.108 0.028-0.108s0.034-0.055 0.046-0.123c0.012-0.071 0.034-0.117 0.049-0.108 0.018 0.012 0.031-0.031 0.031-0.104 0-0.092 0.012-0.126 0.046-0.126s0.046-0.034 0.046-0.123c0-0.068 0.015-0.123 0.031-0.123 0.018 0 0.031-0.040 0.031-0.092 0-0.049 0.018-0.101 0.043-0.114s0.049-0.068 0.055-0.117c0.006-0.052 0.025-0.089 0.049-0.083 0.025 0.003 0.037-0.031 0.037-0.104 0-0.058 0.021-0.129 0.046-0.154 0.025-0.028 0.046-0.089 0.046-0.138 0-0.055 0.012-0.086 0.031-0.074s0.031-0.025 0.031-0.089c0-0.061 0.015-0.111 0.031-0.111 0.018 0 0.031-0.043 0.031-0.092 0-0.055 0.018-0.101 0.046-0.111 0.028-0.012 0.046-0.058 0.046-0.123 0-0.055 0.018-0.114 0.043-0.126s0.049-0.068 0.055-0.117c0.006-0.052 0.025-0.089 0.049-0.083 0.025 0.003 0.037-0.037 0.037-0.132 0-0.101 0.012-0.138 0.046-0.138 0.031 0 0.046-0.034 0.046-0.108 0-0.058 0.015-0.108 0.031-0.108 0.018 0 0.031-0.040 0.031-0.089s0.021-0.104 0.049-0.129c0.028-0.025 0.043-0.068 0.034-0.114-0.009-0.043 0.003-0.080 0.028-0.089s0.043-0.061 0.043-0.12c0-0.068 0.018-0.114 0.046-0.123 0.028-0.012 0.046-0.058 0.046-0.108s0.018-0.098 0.040-0.108c0.028-0.009 0.037-0.049 0.028-0.108-0.012-0.074 0-0.095 0.052-0.111 0.049-0.012 0.064-0.040 0.064-0.12 0-0.058 0.015-0.104 0.031-0.104 0.018 0 0.031-0.040 0.031-0.086 0-0.049 0.021-0.114 0.046-0.147 0.025-0.031 0.046-0.095 0.046-0.144 0-0.046 0.012-0.083 0.028-0.083 0.018 0 0.034-0.046 0.040-0.101 0.006-0.064 0.025-0.098 0.055-0.095 0.037 0.003 0.043-0.025 0.037-0.117-0.009-0.086 0-0.117 0.031-0.117 0.034 0 0.040-0.028 0.031-0.095-0.012-0.074 0-0.095 0.052-0.111 0.052-0.012 0.064-0.040 0.064-0.135 0-0.068 0.015-0.12 0.031-0.12 0.018 0 0.031-0.040 0.031-0.089s0.021-0.111 0.046-0.138c0.025-0.025 0.046-0.080 0.046-0.123s0.015-0.080 0.031-0.080c0.018 0 0.031-0.049 0.031-0.108 0-0.077 0.015-0.117 0.055-0.132 0.031-0.012 0.055-0.058 0.058-0.111 0.003-0.049 0.021-0.098 0.040-0.111 0.021-0.012 0.034-0.049 0.031-0.080-0.012-0.104 0-0.135 0.046-0.135 0.034 0 0.046-0.034 0.046-0.126 0-0.074 0.012-0.117 0.031-0.104s0.031-0.025 0.031-0.086c0-0.058 0.021-0.123 0.046-0.144s0.046-0.077 0.046-0.126c0-0.049 0.015-0.089 0.031-0.089 0.018 0 0.031-0.031 0.031-0.071 0-0.092 0.046-0.157 0.092-0.129 0.028 0.015 0.034-0.006 0.021-0.092-0.012-0.077-0.003-0.117 0.028-0.129 0.025-0.009 0.043-0.058 0.043-0.12 0-0.068 0.018-0.114 0.046-0.123 0.028-0.012 0.046-0.058 0.046-0.126 0-0.058 0.021-0.126 0.046-0.15 0.025-0.028 0.046-0.080 0.046-0.12s0.015-0.083 0.031-0.092c0.018-0.009 0.031-0.068 0.031-0.126 0-0.074 0.012-0.104 0.049-0.104 0.034 0 0.046-0.025 0.043-0.086-0.009-0.141-0.003-0.166 0.046-0.147 0.037 0.012 0.046-0.009 0.046-0.104 0-0.068 0.015-0.123 0.031-0.123 0.018 0 0.031-0.049 0.031-0.107 0-0.068 0.018-0.117 0.046-0.126 0.028-0.012 0.046-0.058 0.046-0.12 0-0.055 0.021-0.117 0.046-0.138s0.046-0.077 0.046-0.126c0-0.046 0.015-0.095 0.031-0.104 0.018-0.009 0.031-0.068 0.031-0.126 0-0.074 0.015-0.104 0.046-0.104s0.046-0.034 0.046-0.107 0.015-0.107 0.046-0.107c0.034 0 0.046-0.037 0.046-0.141 0-0.083 0.012-0.132 0.031-0.12s0.031-0.031 0.031-0.104c0-0.092 0.012-0.126 0.046-0.126s0.046-0.034 0.046-0.12c0-0.077 0.015-0.126 0.046-0.138 0.031-0.009 0.046-0.058 0.046-0.141 0-0.071 0.012-0.12 0.028-0.107 0.018 0.009 0.034-0.037 0.040-0.098 0.006-0.074 0.025-0.114 0.049-0.107 0.025 0.003 0.037-0.034 0.037-0.117 0-0.089 0.012-0.123 0.046-0.123s0.046-0.037 0.046-0.141c0-0.083 0.012-0.132 0.031-0.12s0.031-0.031 0.031-0.107c0-0.083 0.015-0.132 0.046-0.141 0.028-0.012 0.046-0.058 0.046-0.123 0-0.074 0.015-0.104 0.046-0.104 0.034 0 0.046-0.037 0.046-0.141 0-0.083 0.012-0.132 0.031-0.12s0.031-0.031 0.031-0.104c0-0.089 0.012-0.126 0.043-0.126s0.049-0.043 0.055-0.132c0.006-0.074 0.025-0.126 0.043-0.123 0.021 0.003 0.031-0.028 0.025-0.083-0.006-0.049 0.009-0.107 0.034-0.135 0.025-0.025 0.046-0.101 0.046-0.169 0-0.092 0.012-0.126 0.046-0.126s0.046-0.034 0.046-0.12c0-0.077 0.015-0.126 0.046-0.138 0.031-0.009 0.046-0.058 0.046-0.141 0-0.077 0.012-0.12 0.031-0.107s0.031-0.031 0.031-0.104c0-0.092 0.012-0.126 0.046-0.126s0.046-0.037 0.046-0.138 0.012-0.138 0.046-0.138 0.046-0.034 0.046-0.123c0-0.068 0.012-0.123 0.028-0.123s0.034-0.058 0.043-0.132c0.064-0.537 0.077-0.197 0.080 2.15 0.003 1.643 0.012 2.497 0.034 2.497 0.018 0 0.031 0.412 0.031 1.173 0 2.62 0.043 7.853 0.064 7.84 0.012-0.009 0.031 0.006 0.040 0.034s0.018 2.064 0.018 4.527c0 3.952 0.006 4.481 0.046 4.496 0.037 0.012 0.046 0.089 0.046 0.418v0.399h15.877c14.093 0 15.877-0.006 15.877-0.046 0-0.031 0.031-0.046 0.092-0.046 0.052 0 0.092-0.015 0.092-0.031 0-0.018 0.049-0.031 0.108-0.031 0.074 0 0.108-0.015 0.108-0.046s0.031-0.046 0.092-0.046c0.058 0 0.089-0.015 0.083-0.040-0.003-0.021 0.034-0.040 0.095-0.046 0.052-0.006 0.098-0.021 0.098-0.040 0-0.015 0.022-0.028 0.046-0.028s0.043-0.018 0.037-0.037c-0.003-0.021 0.025-0.043 0.065-0.049s0.080-0.031 0.089-0.055c0.009-0.025 0.049-0.043 0.089-0.043s0.074-0.015 0.074-0.031c0-0.018 0.028-0.031 0.065-0.031s0.071-0.025 0.080-0.061c0.012-0.046 0.034-0.055 0.089-0.043 0.058 0.015 0.071 0.009 0.055-0.031-0.012-0.037 0-0.049 0.046-0.049 0.037 0 0.065-0.018 0.065-0.046 0-0.031 0.031-0.046 0.086-0.046 0.049 0 0.104-0.025 0.129-0.061 0.025-0.031 0.083-0.068 0.129-0.077 0.046-0.012 0.086-0.037 0.086-0.058s0.052-0.064 0.117-0.098c0.061-0.031 0.12-0.068 0.123-0.083 0.006-0.012 0.031-0.021 0.052-0.021s0.046-0.021 0.058-0.046c0.009-0.025 0.046-0.046 0.080-0.046s0.061-0.015 0.061-0.034c0-0.043 0.077-0.12 0.12-0.12 0.018 0 0.034-0.012 0.034-0.028s0.034-0.037 0.077-0.046c0.043-0.012 0.077-0.040 0.077-0.064s0.022-0.046 0.046-0.046 0.046-0.015 0.046-0.031c0-0.018 0.018-0.031 0.040-0.031s0.061-0.025 0.089-0.055c0.071-0.071 0.141-0.129 0.163-0.129 0.031 0 0.108-0.086 0.108-0.12 0-0.018 0.022-0.034 0.046-0.034 0.028 0 0.055-0.021 0.065-0.046 0.012-0.025 0.031-0.046 0.049-0.046 0.040 0 0.117-0.080 0.117-0.12 0-0.031 0.065-0.049 0.132-0.037 0.012 0 0.022-0.015 0.022-0.037 0-0.046 0.141-0.184 0.224-0.215 0.028-0.009 0.052-0.034 0.052-0.052 0-0.046 0.077-0.123 0.12-0.123 0.018 0 0.034-0.015 0.034-0.034 0-0.043 0.169-0.212 0.212-0.212 0.018 0 0.034-0.021 0.034-0.046s0.022-0.046 0.046-0.046 0.046-0.021 0.046-0.046 0.015-0.046 0.031-0.046c0.018 0 0.031-0.021 0.031-0.046s0.012-0.046 0.031-0.046c0.046 0 0.215-0.178 0.215-0.23 0-0.025 0.022-0.046 0.046-0.046s0.046-0.021 0.046-0.046 0.022-0.046 0.049-0.046c0.025 0 0.037-0.015 0.028-0.031-0.009-0.018 0.003-0.040 0.028-0.049 0.028-0.009 0.049-0.037 0.049-0.061s0.022-0.043 0.046-0.043 0.046-0.021 0.046-0.046 0.022-0.046 0.046-0.046 0.046-0.028 0.046-0.064c0-0.034 0.015-0.052 0.031-0.043 0.018 0.009 0.031-0.009 0.031-0.043 0-0.037 0.022-0.064 0.046-0.064s0.046-0.021 0.046-0.046 0.022-0.046 0.046-0.046 0.046-0.028 0.046-0.064c0-0.034 0.015-0.052 0.031-0.043 0.018 0.009 0.031-0.009 0.031-0.040 0-0.034 0.022-0.068 0.046-0.080 0.025-0.009 0.046-0.031 0.046-0.049s0.034-0.064 0.074-0.101c0.040-0.037 0.080-0.095 0.086-0.129s0.031-0.058 0.049-0.055c0.022 0.006 0.037-0.018 0.037-0.049s0.022-0.064 0.046-0.077c0.025-0.009 0.046-0.037 0.046-0.064 0-0.025 0.015-0.046 0.031-0.046 0.018 0 0.031-0.028 0.031-0.061s0.022-0.061 0.046-0.061 0.046-0.028 0.046-0.058 0.022-0.064 0.046-0.077c0.025-0.009 0.046-0.037 0.046-0.064 0-0.025 0.015-0.046 0.031-0.046 0.018 0 0.031-0.028 0.031-0.061s0.022-0.061 0.046-0.061 0.046-0.028 0.046-0.061 0.022-0.061 0.046-0.061c0.028 0 0.046-0.028 0.046-0.077 0-0.043 0.015-0.077 0.031-0.077 0.018 0 0.031-0.028 0.031-0.061s0.022-0.071 0.046-0.080c0.025-0.012 0.046-0.046 0.046-0.077 0-0.034 0.022-0.068 0.046-0.077 0.025-0.012 0.046-0.046 0.046-0.077s0.015-0.058 0.031-0.058c0.018 0 0.031-0.028 0.031-0.061s0.022-0.071 0.046-0.080c0.025-0.012 0.046-0.043 0.046-0.074 0-0.034 0.015-0.068 0.031-0.077 0.018-0.009 0.031-0.046 0.031-0.080s0.022-0.068 0.046-0.077c0.025-0.012 0.046-0.046 0.046-0.077 0-0.034 0.022-0.068 0.046-0.077 0.025-0.012 0.046-0.043 0.046-0.074s0.022-0.071 0.046-0.092c0.025-0.021 0.046-0.064 0.046-0.095 0-0.034 0.015-0.058 0.031-0.058 0.018 0 0.031-0.034 0.031-0.077s0.022-0.086 0.046-0.095c0.025-0.012 0.046-0.052 0.046-0.089 0-0.040 0.015-0.083 0.031-0.092s0.031-0.052 0.031-0.095c0-0.043 0.022-0.083 0.046-0.092 0.025-0.012 0.046-0.052 0.046-0.092 0-0.043 0.022-0.083 0.046-0.092 0.025-0.012 0.046-0.043 0.046-0.074 0-0.086 0.034-0.157 0.064-0.135 0.015 0.009 0.028-0.031 0.028-0.089 0-0.071 0.018-0.114 0.049-0.126 0.034-0.012 0.046-0.043 0.034-0.098-0.009-0.049 0.003-0.086 0.028-0.095s0.043-0.055 0.043-0.101c0-0.049 0.015-0.098 0.031-0.108 0.018-0.009 0.031-0.061 0.031-0.111 0-0.052 0.018-0.098 0.046-0.108 0.043-0.018 0.046-0.86 0.046-7.524 0-6.606-0.006-7.506-0.046-7.506-0.031 0-0.046-0.034-0.046-0.104 0-0.064-0.018-0.111-0.046-0.123-0.028-0.009-0.046-0.058-0.046-0.126 0-0.058-0.012-0.107-0.031-0.107-0.015 0-0.031-0.049-0.031-0.107 0-0.074-0.015-0.107-0.046-0.107-0.034 0-0.046-0.034-0.046-0.111 0-0.061-0.012-0.101-0.028-0.089-0.018 0.009-0.040-0.031-0.052-0.089-0.009-0.061-0.034-0.104-0.052-0.101s-0.040-0.028-0.046-0.071c-0.006-0.043-0.031-0.089-0.055-0.101s-0.043-0.064-0.043-0.114c0-0.052-0.012-0.092-0.031-0.092-0.015 0-0.031-0.034-0.031-0.074s-0.022-0.080-0.046-0.092c-0.025-0.009-0.046-0.052-0.046-0.095s-0.012-0.077-0.031-0.077c-0.015 0-0.031-0.034-0.031-0.074s-0.022-0.080-0.046-0.092c-0.025-0.009-0.046-0.049-0.046-0.092 0-0.040-0.022-0.080-0.046-0.092-0.025-0.009-0.046-0.037-0.046-0.061 0-0.021-0.022-0.049-0.046-0.061-0.025-0.009-0.046-0.052-0.046-0.095s-0.012-0.077-0.031-0.077c-0.015 0-0.031-0.034-0.031-0.077 0-0.049-0.018-0.077-0.046-0.077-0.025 0-0.046-0.028-0.046-0.058 0-0.034-0.009-0.064-0.022-0.071-0.037-0.015-0.132-0.206-0.132-0.258 0-0.028-0.012-0.037-0.031-0.028-0.015 0.009-0.037-0.018-0.049-0.061-0.009-0.043-0.031-0.077-0.046-0.077s-0.028-0.037-0.028-0.080c0-0.046-0.012-0.071-0.034-0.058-0.018 0.012-0.040-0.006-0.049-0.043s-0.037-0.064-0.058-0.064c-0.025 0-0.043-0.031-0.043-0.077 0-0.049-0.018-0.077-0.046-0.077-0.025 0-0.046-0.021-0.046-0.046s-0.012-0.046-0.031-0.046c-0.015 0-0.031-0.034-0.031-0.077 0-0.049-0.018-0.077-0.046-0.077-0.025 0-0.046-0.021-0.046-0.046s-0.012-0.046-0.031-0.046c-0.015 0-0.031-0.028-0.031-0.061s-0.022-0.071-0.046-0.080c-0.025-0.012-0.046-0.037-0.046-0.061s-0.022-0.043-0.046-0.043-0.046-0.022-0.046-0.046-0.022-0.055-0.046-0.065c-0.025-0.012-0.046-0.046-0.046-0.077s-0.022-0.058-0.046-0.058-0.046-0.022-0.046-0.046-0.012-0.046-0.031-0.046c-0.015 0-0.031-0.018-0.031-0.043s-0.022-0.049-0.046-0.061c-0.025-0.009-0.046-0.037-0.046-0.065 0-0.025-0.012-0.046-0.031-0.046-0.015 0-0.031-0.022-0.031-0.046s-0.022-0.046-0.046-0.046-0.046-0.022-0.046-0.046-0.022-0.046-0.046-0.046-0.046-0.028-0.046-0.065c0-0.034-0.012-0.052-0.031-0.043-0.015 0.009-0.031 0-0.031-0.025s-0.028-0.052-0.061-0.061c-0.034-0.009-0.061-0.037-0.061-0.064s-0.012-0.049-0.031-0.049c-0.015 0-0.031-0.022-0.031-0.046s-0.012-0.046-0.031-0.046c-0.015 0-0.031-0.022-0.031-0.046s-0.028-0.046-0.061-0.046-0.061-0.022-0.061-0.046-0.012-0.046-0.031-0.046c-0.015 0-0.031-0.022-0.031-0.046s-0.015-0.046-0.034-0.046c-0.040 0-0.212-0.169-0.212-0.206 0-0.015-0.040-0.049-0.086-0.077s-0.104-0.086-0.129-0.129c-0.022-0.043-0.052-0.080-0.068-0.080-0.040 0-0.209-0.172-0.209-0.212 0-0.018-0.022-0.034-0.046-0.034s-0.046-0.012-0.046-0.025c0-0.015-0.034-0.046-0.077-0.068s-0.077-0.058-0.077-0.080c0-0.022-0.028-0.055-0.061-0.074s-0.061-0.022-0.061-0.009c0 0.012-0.028-0.009-0.061-0.046s-0.061-0.080-0.061-0.095c0-0.018-0.022-0.025-0.046-0.015-0.028 0.012-0.046 0-0.046-0.031 0-0.028-0.015-0.049-0.034-0.049-0.015 0-0.074-0.040-0.129-0.092-0.055-0.049-0.117-0.092-0.135-0.092-0.022 0-0.040-0.022-0.040-0.049 0-0.025-0.012-0.040-0.028-0.028-0.018 0.009-0.040 0-0.055-0.021-0.025-0.040-0.111-0.101-0.193-0.138-0.025-0.012-0.074-0.052-0.108-0.092s-0.086-0.071-0.117-0.071c-0.028 0-0.052-0.021-0.052-0.046s-0.028-0.046-0.058-0.046c-0.031 0-0.065-0.021-0.077-0.046-0.009-0.025-0.037-0.046-0.065-0.046-0.025 0-0.046-0.015-0.046-0.031 0-0.018-0.028-0.031-0.061-0.031s-0.061-0.022-0.061-0.046-0.009-0.043-0.022-0.043c-0.065 0.009-0.101-0.009-0.101-0.052 0-0.031-0.018-0.043-0.043-0.034s-0.061-0.003-0.080-0.028c-0.022-0.025-0.065-0.043-0.095-0.043-0.034 0-0.058-0.021-0.058-0.046 0-0.028-0.028-0.046-0.077-0.046-0.043 0-0.077-0.015-0.077-0.031 0-0.021-2.38-0.031-7.079-0.031-5.574 0-7.076 0.009-7.069 0.037 0.003 0.021-0.025 0.043-0.061 0.049-0.040 0.006-0.071 0.031-0.071 0.055s-0.031 0.043-0.077 0.043c-0.043 0-0.077 0.012-0.077 0.031 0 0.015-0.022 0.031-0.046 0.031s-0.046 0.022-0.046 0.046c0 0.031-0.031 0.046-0.092 0.046s-0.092 0.015-0.092 0.046c0 0.025-0.028 0.046-0.065 0.046-0.034 0-0.052 0.012-0.043 0.031 0.009 0.015-0.009 0.031-0.046 0.031-0.034 0-0.071 0.022-0.080 0.046-0.012 0.025-0.031 0.046-0.046 0.046-0.018 0-0.058 0.028-0.095 0.061-0.037 0.031-0.077 0.052-0.092 0.043-0.012-0.009-0.025 0.006-0.025 0.034 0 0.034-0.015 0.046-0.046 0.034-0.028-0.009-0.046 0-0.046 0.028 0 0.025-0.022 0.046-0.046 0.046s-0.077 0.034-0.12 0.077-0.089 0.077-0.101 0.077c-0.015 0-0.049 0.028-0.080 0.061-0.028 0.034-0.074 0.061-0.098 0.061s-0.046 0.018-0.046 0.043c0 0.025-0.034 0.052-0.077 0.061-0.043 0.012-0.077 0.040-0.077 0.065s-0.022 0.046-0.046 0.046-0.046 0.018-0.046 0.043c0 0.025-0.034 0.052-0.077 0.061-0.043 0.012-0.077 0.034-0.077 0.049 0 0.018-0.022 0.031-0.046 0.031s-0.046 0.022-0.046 0.046-0.015 0.046-0.034 0.046c-0.043 0-0.12 0.080-0.12 0.123 0 0.022-0.022 0.031-0.046 0.018-0.028-0.009-0.046 0-0.046 0.028 0 0.025-0.022 0.046-0.046 0.046s-0.046 0.015-0.046 0.034c0 0.043-0.144 0.181-0.187 0.181-0.049 0-0.12 0.083-0.12 0.135 0 0.028-0.022 0.049-0.046 0.049s-0.046 0.012-0.046 0.031c0 0.015-0.022 0.031-0.046 0.031s-0.046 0.012-0.046 0.031c0 0.046-0.101 0.154-0.129 0.135-0.012-0.009-0.025 0.006-0.025 0.031 0 0.028-0.022 0.049-0.046 0.049s-0.046 0.025-0.046 0.052c0 0.031-0.055 0.104-0.123 0.163s-0.123 0.12-0.123 0.132c0 0.037-0.083 0.114-0.12 0.114-0.018 0-0.034 0.028-0.034 0.061s-0.015 0.061-0.034 0.061c-0.043 0-0.12 0.077-0.12 0.12 0 0.018-0.022 0.034-0.046 0.034s-0.046 0.025-0.046 0.052c0 0.031-0.037 0.089-0.077 0.129-0.043 0.040-0.077 0.089-0.077 0.114s-0.012 0.043-0.031 0.043c-0.046 0-0.154 0.117-0.154 0.169 0 0.025-0.012 0.046-0.031 0.046-0.015 0-0.031 0.022-0.031 0.046s-0.018 0.046-0.043 0.046c-0.022 0-0.049 0.028-0.058 0.064s-0.031 0.055-0.049 0.043c-0.031-0.015-0.049 0.043-0.037 0.114 0 0.015-0.018 0.025-0.046 0.025-0.031 0-0.043 0.018-0.031 0.046 0.009 0.028 0 0.046-0.028 0.046-0.022 0-0.046 0.028-0.052 0.061-0.006 0.037-0.022 0.058-0.034 0.055-0.015-0.006-0.052 0.049-0.086 0.12-0.034 0.074-0.074 0.132-0.089 0.132-0.018 0-0.031 0.021-0.031 0.046 0 0.028-0.018 0.055-0.043 0.064s-0.052 0.049-0.061 0.092c-0.012 0.040-0.034 0.074-0.049 0.074-0.018 0-0.031 0.021-0.031 0.046s-0.012 0.046-0.031 0.046c-0.015 0-0.031 0.028-0.031 0.061s-0.022 0.071-0.046 0.080c-0.025 0.012-0.046 0.046-0.046 0.077s-0.012 0.058-0.028 0.058-0.034 0.031-0.040 0.068c-0.006 0.043-0.031 0.071-0.058 0.068-0.034-0.003-0.043 0.015-0.034 0.068 0.009 0.046-0.006 0.080-0.052 0.101-0.037 0.021-0.065 0.055-0.065 0.080s-0.012 0.046-0.031 0.046c-0.015 0-0.031 0.034-0.031 0.074s-0.022 0.080-0.046 0.092c-0.025 0.009-0.046 0.046-0.046 0.080s-0.012 0.061-0.031 0.061c-0.015 0-0.031 0.028-0.031 0.058 0 0.034-0.012 0.068-0.028 0.077-0.012 0.009-0.034 0.061-0.046 0.114-0.012 0.064-0.034 0.089-0.058 0.080-0.031-0.012-0.040 0.006-0.028 0.055 0.009 0.049-0.006 0.083-0.052 0.104-0.037 0.021-0.065 0.064-0.065 0.095 0 0.034-0.012 0.061-0.031 0.061-0.015 0-0.031 0.040-0.031 0.089s-0.018 0.095-0.046 0.107c-0.025 0.009-0.046 0.052-0.046 0.095s-0.012 0.077-0.031 0.077c-0.015 0-0.031 0.034-0.031 0.074s-0.022 0.089-0.046 0.111c-0.028 0.021-0.040 0.046-0.034 0.055 0.028 0.028-0.046 0.132-0.080 0.111-0.022-0.012-0.025 0.012-0.009 0.077 0.015 0.071 0.009 0.098-0.028 0.114-0.031 0.012-0.049 0.055-0.049 0.107s-0.018 0.098-0.046 0.107c-0.028 0.012-0.046 0.058-0.046 0.12s-0.018 0.107-0.046 0.12c-0.028 0.009-0.046 0.055-0.046 0.111 0 0.049-0.012 0.092-0.031 0.092-0.015 0-0.031 0.040-0.031 0.089s-0.022 0.104-0.046 0.126c-0.025 0.021-0.046 0.086-0.046 0.141 0 0.074-0.015 0.104-0.046 0.104-0.034 0-0.046 0.034-0.046 0.12 0 0.068-0.012 0.129-0.028 0.138-0.012 0.009-0.034 0.074-0.046 0.141-0.009 0.068-0.034 0.123-0.049 0.123-0.018 0-0.031 0.055-0.031 0.12 0 0.077-0.015 0.126-0.046 0.138s-0.046 0.061-0.046 0.157c0 0.077-0.012 0.138-0.031 0.138-0.015 0-0.031 0.071-0.031 0.157 0 0.126-0.009 0.154-0.046 0.138-0.037-0.012-0.046 0.015-0.046 0.154 0 0.141-0.009 0.169-0.046 0.154-0.037-0.012-0.046 0.018-0.046 0.181 0 0.114-0.012 0.2-0.031 0.2-0.015 0-0.031 0.068-0.031 0.15 0 0.095-0.018 0.169-0.046 0.2-0.031 0.031-0.046 0.107-0.046 0.23 0 0.101-0.015 0.193-0.034 0.206-0.052 0.031-0.028 8.943 0.025 8.961 0.028 0.012 0.040 0.080 0.040 0.203 0 0.117 0.012 0.181 0.031 0.169s0.031 0.055 0.031 0.178c0 0.147 0.012 0.203 0.046 0.218 0.034 0.012 0.046 0.064 0.046 0.187 0 0.095 0.012 0.166 0.028 0.157 0.034-0.021 0.065 0.083 0.065 0.218 0 0.055 0.015 0.101 0.031 0.101 0.018 0 0.031 0.061 0.031 0.138 0 0.101 0.012 0.138 0.046 0.138s0.046 0.037 0.046 0.135c0 0.092 0.015 0.141 0.046 0.154 0.028 0.009 0.046 0.058 0.046 0.126 0 0.061 0.022 0.132 0.046 0.157 0.031 0.031 0.040 0.080 0.031 0.138-0.012 0.064-0.003 0.089 0.031 0.089s0.046 0.034 0.046 0.123 0.012 0.123 0.046 0.123c0.031 0 0.046 0.034 0.046 0.108 0 0.058 0.015 0.108 0.031 0.108 0.018 0 0.031 0.049 0.031 0.108 0 0.068 0.018 0.117 0.046 0.126 0.028 0.012 0.046 0.058 0.046 0.123 0 0.074 0.015 0.104 0.046 0.104 0.034 0 0.046 0.034 0.046 0.123 0 0.083 0.012 0.12 0.040 0.114 0.022-0.003 0.037 0.031 0.037 0.092 0 0.052 0.009 0.089 0.025 0.080 0.028-0.018 0.080 0.117 0.061 0.166-0.009 0.021 0.006 0.040 0.034 0.040s0.049 0.025 0.049 0.058c0 0.034 0.022 0.080 0.046 0.108 0.025 0.025 0.046 0.080 0.046 0.123s0.015 0.080 0.031 0.080c0.018 0 0.031 0.028 0.031 0.058 0 0.034 0.022 0.080 0.046 0.108 0.025 0.025 0.046 0.074 0.046 0.108 0 0.037 0.015 0.064 0.031 0.064 0.018 0 0.031 0.034 0.031 0.077 0 0.046 0.018 0.077 0.043 0.077 0.049 0 0.095 0.104 0.065 0.154-0.009 0.015 0.003 0.031 0.028 0.031 0.028 0 0.055 0.034 0.068 0.077 0.009 0.043 0.031 0.077 0.046 0.077s0.028 0.034 0.028 0.077c0 0.049 0.018 0.077 0.046 0.077s0.046 0.031 0.046 0.080c0 0.043 0.012 0.071 0.031 0.058 0.018-0.009 0.031 0.009 0.031 0.040 0 0.034 0.022 0.077 0.046 0.098s0.046 0.071 0.046 0.114c0 0.046 0.012 0.068 0.034 0.055 0.018-0.012 0.040 0.006 0.049 0.040s0.034 0.071 0.058 0.080c0.025 0.009 0.043 0.046 0.043 0.080s0.015 0.061 0.031 0.061c0.018 0 0.031 0.028 0.031 0.061s0.022 0.061 0.046 0.061 0.046 0.028 0.046 0.058 0.022 0.064 0.046 0.077c0.025 0.009 0.046 0.046 0.046 0.080s0.015 0.061 0.031 0.061c0.018 0 0.031 0.021 0.031 0.046s0.022 0.046 0.046 0.046c0.028 0 0.046 0.028 0.046 0.077 0 0.043 0.015 0.074 0.037 0.068 0.022-0.003 0.043 0.025 0.049 0.061 0.006 0.040 0.025 0.071 0.040 0.071s0.028 0.028 0.028 0.061c0 0.040 0.015 0.055 0.046 0.043s0.046 0 0.046 0.046c0 0.037 0.018 0.064 0.046 0.064 0.025 0 0.046 0.028 0.046 0.061s0.015 0.061 0.031 0.061c0.018 0 0.031 0.028 0.031 0.064s0.012 0.052 0.034 0.043c0.018-0.012 0.040 0.006 0.049 0.043s0.037 0.064 0.058 0.064c0.025 0 0.043 0.015 0.043 0.034s0.025 0.055 0.052 0.083c0.049 0.049 0.049 0.052-0.009 0.058-0.031 0.003-2.061 0.012-4.511 0.018l-4.453 0.009 0.009-1.489c0.006-1.305 0.003-1.492-0.040-1.514-0.040-0.025-0.046-0.298-0.046-2.297 0-1.496-0.009-2.273-0.031-2.273-0.015 0-0.031-0.046-0.031-0.104s-0.012-0.111-0.025-0.117c-0.043-0.015-0.077-10.312-0.034-10.312 0.052 0 0.025-2.924-0.028-2.942-0.028-0.009-0.037-0.301-0.037-1.228 0-2.214-0.040-5.592-0.068-5.577-0.012 0.009-0.025-0.040-0.025-0.107v-0.126h-3.912c-3.449 0-3.916 0.006-3.931 0.046-0.009 0.025-0.037 0.046-0.064 0.046-0.034 0-0.046 0.031-0.046 0.107 0 0.058-0.012 0.107-0.031 0.107-0.015 0-0.031 0.049-0.031 0.107 0 0.068-0.018 0.117-0.046 0.126-0.028 0.012-0.046 0.058-0.046 0.123 0 0.058-0.012 0.104-0.031 0.104-0.015 0-0.031 0.049-0.031 0.108s-0.018 0.117-0.043 0.129c-0.025 0.012-0.049 0.065-0.055 0.117-0.003 0.049-0.025 0.089-0.040 0.086-0.018-0.003-0.028 0.046-0.021 0.117 0.012 0.104 0.003 0.126-0.052 0.141-0.049 0.012-0.064 0.040-0.064 0.12 0 0.058-0.012 0.104-0.031 0.104-0.015 0-0.040 0.055-0.049 0.123-0.012 0.068-0.034 0.132-0.046 0.141-0.015 0.009-0.028 0.055-0.028 0.107 0 0.049-0.012 0.089-0.031 0.089-0.015 0-0.031 0.037-0.031 0.083 0 0.107-0.043 0.178-0.089 0.15-0.021-0.015-0.028-0.003-0.015 0.028 0.025 0.065-0.012 0.206-0.052 0.184-0.018-0.012-0.028 0.022-0.021 0.092 0.003 0.080-0.009 0.126-0.046 0.154-0.028 0.022-0.052 0.074-0.052 0.12s-0.021 0.104-0.046 0.129c-0.025 0.028-0.046 0.089-0.046 0.138s-0.012 0.089-0.031 0.089c-0.015 0-0.031 0.049-0.031 0.107s-0.012 0.107-0.031 0.107c-0.015 0-0.031 0.034-0.031 0.074 0 0.114-0.031 0.169-0.083 0.15-0.037-0.015-0.043-0.003-0.025 0.046 0.025 0.080-0.009 0.2-0.049 0.175-0.015-0.012-0.028 0.037-0.028 0.104 0 0.092-0.012 0.126-0.046 0.126s-0.046 0.034-0.046 0.12c0 0.077-0.015 0.126-0.046 0.138-0.028 0.009-0.046 0.055-0.046 0.111 0 0.049-0.012 0.092-0.031 0.092-0.015 0-0.031 0.055-0.031 0.123s-0.012 0.123-0.031 0.123c-0.015 0-0.031 0.040-0.031 0.089 0 0.092-0.064 0.172-0.104 0.132-0.012-0.012-0.018 0.034-0.015 0.098 0.009 0.077-0.003 0.126-0.028 0.135-0.021 0.006-0.037 0.064-0.037 0.132 0 0.086-0.012 0.12-0.046 0.12-0.031 0-0.046 0.031-0.046 0.104 0 0.064-0.018 0.111-0.046 0.123-0.028 0.009-0.046 0.058-0.046 0.126 0 0.058-0.012 0.107-0.031 0.107-0.015 0-0.031 0.049-0.031 0.107 0 0.074-0.015 0.107-0.046 0.107s-0.046 0.034-0.046 0.107-0.015 0.107-0.046 0.107c-0.034 0-0.046 0.034-0.046 0.123 0 0.068-0.012 0.123-0.028 0.123-0.018 0-0.034 0.052-0.040 0.114-0.006 0.074-0.025 0.114-0.046 0.107-0.028-0.003-0.040 0.034-0.040 0.114 0 0.077-0.015 0.126-0.046 0.138-0.028 0.009-0.046 0.055-0.046 0.111 0 0.049-0.012 0.092-0.028 0.092-0.018 0-0.034 0.052-0.040 0.114-0.006 0.074-0.025 0.114-0.046 0.107-0.028-0.003-0.040 0.031-0.040 0.101 0 0.068-0.018 0.117-0.046 0.126-0.028 0.012-0.046 0.058-0.046 0.123 0 0.058-0.012 0.104-0.031 0.104-0.015 0-0.031 0.055-0.031 0.123 0 0.089-0.012 0.123-0.046 0.123s-0.046 0.034-0.046 0.107c0 0.068-0.018 0.117-0.046 0.126-0.028 0.012-0.046 0.058-0.046 0.12 0 0.058-0.015 0.114-0.031 0.123-0.018 0.009-0.031 0.068-0.031 0.126 0 0.074-0.015 0.104-0.046 0.104-0.034 0-0.046 0.034-0.046 0.126 0 0.104-0.009 0.123-0.049 0.107s-0.046-0.003-0.031 0.055c0.021 0.086-0.006 0.178-0.046 0.154-0.015-0.009-0.028 0.040-0.028 0.107 0 0.092-0.012 0.126-0.046 0.126-0.031 0-0.046 0.031-0.046 0.104 0 0.065-0.018 0.111-0.046 0.123-0.031 0.009-0.046 0.058-0.046 0.141 0 0.077-0.012 0.12-0.031 0.107s-0.031 0.031-0.031 0.107c0 0.101-0.009 0.126-0.046 0.111-0.037-0.012-0.046 0.009-0.046 0.104 0 0.089-0.012 0.123-0.046 0.123s-0.046 0.034-0.046 0.126c0 0.074-0.012 0.117-0.031 0.104s-0.031 0.025-0.031 0.092-0.018 0.117-0.046 0.126c-0.028 0.012-0.046 0.058-0.046 0.12s-0.018 0.107-0.046 0.12c-0.028 0.009-0.046 0.058-0.046 0.126 0 0.061-0.012 0.104-0.028 0.092-0.018-0.009-0.034 0.043-0.040 0.114-0.006 0.086-0.021 0.129-0.046 0.123-0.028-0.003-0.040 0.037-0.040 0.12 0 0.098-0.009 0.123-0.046 0.107-0.037-0.012-0.046 0.009-0.046 0.104 0 0.068-0.012 0.123-0.031 0.123-0.015 0-0.031 0.049-0.031 0.107 0 0.068-0.018 0.117-0.046 0.126-0.028 0.012-0.046 0.058-0.046 0.12s-0.018 0.107-0.046 0.12c-0.028 0.009-0.046 0.058-0.046 0.126s-0.012 0.104-0.031 0.092c-0.018-0.012-0.031 0.031-0.031 0.104 0 0.092-0.012 0.126-0.046 0.126s-0.046 0.034-0.046 0.107c0 0.068-0.018 0.117-0.046 0.126-0.031 0.012-0.046 0.061-0.046 0.141 0 0.071-0.012 0.114-0.031 0.101s-0.031 0.031-0.031 0.104c0 0.092-0.012 0.126-0.046 0.126s-0.046 0.034-0.046 0.107c0 0.068-0.018 0.117-0.046 0.126-0.028 0.012-0.046 0.058-0.046 0.126 0 0.058-0.012 0.098-0.028 0.086-0.018-0.009-0.034 0.043-0.040 0.114-0.006 0.086-0.021 0.129-0.046 0.123-0.028-0.003-0.040 0.034-0.040 0.117 0 0.068-0.012 0.123-0.031 0.123-0.015 0-0.031 0.055-0.031 0.123 0 0.089-0.012 0.123-0.046 0.123s-0.046 0.034-0.046 0.107c0 0.068-0.018 0.117-0.046 0.126-0.028 0.012-0.046 0.058-0.046 0.123 0 0.068-0.018 0.114-0.046 0.123-0.031 0.012-0.046 0.061-0.046 0.141 0 0.071-0.012 0.114-0.031 0.101s-0.031 0.025-0.031 0.092-0.018 0.117-0.046 0.126c-0.031 0.012-0.046 0.061-0.046 0.138 0 0.064-0.012 0.12-0.031 0.12-0.015 0-0.031 0.055-0.031 0.123 0 0.089-0.012 0.123-0.046 0.123s-0.046 0.034-0.046 0.108c0 0.068-0.018 0.117-0.046 0.126-0.028 0.012-0.046 0.058-0.046 0.117 0 0.055-0.012 0.111-0.028 0.126-0.015 0.018-0.034 0.080-0.040 0.138s-0.025 0.104-0.043 0.101c-0.018-0.003-0.043 0.049-0.055 0.114-0.009 0.068-0.034 0.123-0.049 0.123-0.018 0-0.031 0.055-0.031 0.12 0 0.068-0.012 0.132-0.031 0.141-0.015 0.009-0.031 0.068-0.031 0.126 0 0.074-0.015 0.104-0.046 0.104s-0.046 0.034-0.046 0.108c0 0.055-0.018 0.117-0.043 0.129-0.021 0.012-0.049 0.074-0.061 0.132s-0.031 0.163-0.043 0.23c-0.012 0.068-0.040 0.12-0.058 0.117-0.021-0.006-0.046 0.052-0.058 0.129-0.009 0.077-0.031 0.138-0.046 0.138s-0.028 0.046-0.028 0.104-0.015 0.117-0.031 0.126c-0.015 0.009-0.031 0.061-0.031 0.111 0 0.052-0.018 0.098-0.046 0.108-0.028 0.012-0.046 0.058-0.046 0.117 0 0.089-0.055 0.224-0.064 0.157-0.003-0.018-0.015 0.025-0.031 0.092-0.064 0.332-0.086 0.396-0.132 0.421-0.031 0.018-0.049 0.068-0.049 0.135 0 0.064-0.012 0.101-0.031 0.089s-0.031 0.031-0.031 0.104c0 0.068-0.012 0.132-0.031 0.141-0.015 0.009-0.031 0.058-0.031 0.108s-0.021 0.108-0.046 0.135c-0.025 0.025-0.046 0.089-0.046 0.141 0 0.055-0.018 0.101-0.046 0.111-0.025 0.012-0.046 0.052-0.046 0.089 0 0.095-0.031 0.172-0.061 0.154-0.012-0.009-0.025 0.043-0.025 0.114-0.003 0.083-0.018 0.138-0.049 0.154-0.031 0.018-0.049 0.071-0.049 0.132 0 0.058-0.012 0.108-0.031 0.108-0.015 0-0.031 0.046-0.031 0.104s-0.012 0.117-0.031 0.126c-0.015 0.009-0.031 0.068-0.031 0.126 0 0.068-0.018 0.114-0.046 0.123-0.031 0.012-0.046 0.061-0.046 0.138 0 0.080-0.015 0.129-0.046 0.138-0.025 0.012-0.046 0.052-0.046 0.089 0 0.098-0.031 0.172-0.064 0.15-0.015-0.009-0.028 0.046-0.028 0.123 0 0.104-0.012 0.141-0.046 0.141s-0.046 0.037-0.046 0.138c0 0.077-0.012 0.138-0.031 0.138-0.015 0-0.031 0.046-0.031 0.104s-0.012 0.117-0.031 0.126c-0.015 0.009-0.031 0.052-0.031 0.092 0 0.101-0.031 0.169-0.077 0.169-0.025 0-0.034 0.025-0.025 0.061 0.025 0.089-0.015 0.215-0.068 0.215-0.034 0-0.046 0.034-0.046 0.123 0 0.068-0.012 0.123-0.031 0.123-0.015 0-0.031 0.061-0.031 0.135 0 0.092-0.015 0.141-0.046 0.154-0.028 0.009-0.046 0.058-0.046 0.126 0 0.058-0.012 0.108-0.031 0.108-0.015 0-0.031 0.061-0.031 0.135 0 0.077-0.012 0.147-0.031 0.157s-0.031 0.068-0.031 0.126c0 0.074-0.015 0.104-0.046 0.104-0.034 0-0.046-0.034-0.046-0.123 0-0.083-0.012-0.12-0.037-0.117-0.028 0.006-0.043-0.040-0.049-0.138-0.006-0.080-0.021-0.138-0.040-0.129-0.015 0.012-0.028-0.040-0.028-0.12 0-0.104-0.012-0.141-0.046-0.141s-0.046-0.034-0.046-0.123-0.012-0.123-0.046-0.123-0.046-0.037-0.046-0.135c0-0.092-0.015-0.141-0.046-0.154-0.028-0.009-0.046-0.058-0.046-0.126 0-0.058-0.012-0.108-0.028-0.108s-0.034-0.055-0.046-0.123c-0.009-0.068-0.034-0.123-0.049-0.123-0.018 0-0.031-0.055-0.031-0.123s-0.012-0.123-0.031-0.123c-0.015 0-0.031-0.049-0.031-0.108 0-0.068-0.018-0.117-0.046-0.126-0.025-0.012-0.046-0.055-0.046-0.104s-0.021-0.108-0.046-0.135c-0.025-0.025-0.046-0.092-0.046-0.15 0-0.068-0.018-0.114-0.046-0.126-0.028-0.009-0.046-0.055-0.046-0.123 0-0.064-0.018-0.111-0.046-0.123-0.028-0.009-0.046-0.058-0.046-0.126s-0.012-0.104-0.031-0.092c-0.018 0.012-0.031-0.031-0.031-0.108 0-0.083-0.015-0.132-0.046-0.141-0.031-0.012-0.046-0.061-0.046-0.135s-0.015-0.123-0.046-0.135c-0.028-0.009-0.046-0.055-0.046-0.111 0-0.049-0.012-0.092-0.031-0.092-0.015 0-0.031-0.055-0.031-0.123 0-0.089-0.012-0.123-0.046-0.123s-0.046-0.034-0.046-0.123c0-0.083-0.012-0.12-0.037-0.117-0.028 0.006-0.043-0.037-0.049-0.123-0.006-0.071-0.021-0.129-0.040-0.129-0.015 0-0.028-0.049-0.028-0.108 0-0.074-0.015-0.108-0.046-0.108-0.034 0-0.046-0.034-0.046-0.12 0-0.077-0.015-0.126-0.046-0.138-0.028-0.009-0.046-0.058-0.046-0.126s-0.012-0.104-0.031-0.092c-0.018 0.012-0.031-0.031-0.031-0.104 0-0.092-0.012-0.126-0.046-0.126s-0.046-0.034-0.046-0.123-0.012-0.123-0.046-0.123-0.046-0.034-0.046-0.126c0-0.068-0.012-0.117-0.028-0.108-0.034 0.021-0.071-0.114-0.046-0.178 0.012-0.034 0.003-0.049-0.031-0.049-0.037 0-0.049-0.031-0.049-0.123 0-0.089-0.012-0.123-0.046-0.123-0.031 0-0.046-0.031-0.046-0.104 0-0.064-0.018-0.111-0.046-0.123-0.028-0.009-0.046-0.058-0.046-0.126s-0.012-0.104-0.031-0.092c-0.018 0.012-0.031-0.031-0.031-0.104 0-0.092-0.012-0.126-0.046-0.126s-0.046-0.034-0.046-0.123c0-0.068-0.012-0.123-0.031-0.123-0.015 0-0.031-0.055-0.031-0.123 0-0.089-0.012-0.123-0.046-0.123s-0.046-0.034-0.046-0.126c0-0.083-0.012-0.117-0.034-0.101-0.046 0.028-0.089-0.043-0.089-0.15 0-0.046-0.012-0.083-0.031-0.083-0.015 0-0.031-0.055-0.031-0.123 0-0.089-0.012-0.123-0.046-0.123-0.031 0-0.046-0.034-0.046-0.108 0-0.058-0.012-0.108-0.031-0.108-0.015 0-0.031-0.046-0.031-0.101 0-0.052-0.021-0.126-0.046-0.157-0.025-0.034-0.046-0.101-0.046-0.15 0-0.046-0.012-0.080-0.028-0.071-0.031 0.021-0.065-0.049-0.065-0.135 0-0.028-0.021-0.071-0.046-0.092s-0.046-0.077-0.046-0.126c0-0.049-0.012-0.089-0.031-0.089-0.015 0-0.031-0.049-0.031-0.107 0-0.068-0.018-0.117-0.046-0.126-0.028-0.012-0.046-0.058-0.046-0.123 0-0.068-0.012-0.101-0.037-0.098-0.025 0.006-0.043-0.034-0.049-0.107-0.006-0.061-0.021-0.114-0.040-0.114-0.015 0-0.028-0.043-0.028-0.095s-0.021-0.114-0.046-0.138c-0.025-0.028-0.046-0.086-0.046-0.135s-0.021-0.092-0.046-0.104c-0.028-0.009-0.046-0.055-0.046-0.111 0-0.049-0.012-0.092-0.031-0.092-0.015 0-0.031-0.049-0.031-0.107 0-0.071-0.012-0.104-0.037-0.098-0.025 0.003-0.043-0.037-0.049-0.111s-0.025-0.114-0.055-0.114-0.043-0.037-0.043-0.126c0-0.074-0.012-0.117-0.031-0.104s-0.031-0.031-0.031-0.104c0-0.086-0.012-0.123-0.037-0.117-0.025 0.003-0.043-0.034-0.049-0.095s-0.028-0.098-0.055-0.098c-0.031 0-0.043-0.037-0.043-0.123 0-0.068-0.012-0.123-0.031-0.123-0.015 0-0.031-0.046-0.031-0.104 0-0.065-0.018-0.111-0.046-0.123-0.028-0.009-0.046-0.058-0.046-0.126 0-0.074-0.012-0.107-0.046-0.107-0.031 0-0.046-0.031-0.046-0.104 0-0.068-0.018-0.111-0.049-0.123-0.034-0.012-0.043-0.043-0.028-0.107 0.015-0.071 0.006-0.089-0.043-0.104-0.049-0.012-0.065-0.040-0.065-0.111 0-0.052-0.012-0.095-0.031-0.095-0.015 0-0.031-0.049-0.031-0.107s-0.012-0.107-0.031-0.107c-0.015 0-0.031-0.040-0.031-0.089s-0.021-0.111-0.046-0.138c-0.025-0.025-0.046-0.089-0.046-0.141s-0.012-0.089-0.028-0.077c-0.040 0.025-0.098-0.092-0.077-0.15 0.009-0.028-0.006-0.071-0.034-0.098-0.031-0.034-0.046-0.086-0.040-0.135 0.009-0.061 0-0.083-0.034-0.080s-0.052-0.031-0.058-0.098c-0.006-0.052-0.021-0.098-0.034-0.098-0.015 0-0.034-0.055-0.046-0.123-0.009-0.068-0.034-0.123-0.049-0.123-0.018 0-0.031-0.049-0.031-0.107s-0.012-0.107-0.031-0.107c-0.015 0-0.031-0.037-0.031-0.086 0-0.092-0.037-0.166-0.080-0.16-0.025 0.003-0.043-0.055-0.095-0.322-0.009-0.052-0.037-0.104-0.058-0.117-0.025-0.012-0.043-0.065-0.043-0.114 0-0.061-0.015-0.092-0.046-0.092s-0.046-0.034-0.046-0.107c0-0.058-0.012-0.107-0.031-0.107-0.015 0-0.031-0.055-0.031-0.123 0-0.080-0.012-0.12-0.037-0.114-0.025 0.003-0.046-0.043-0.058-0.117-0.009-0.068-0.021-0.111-0.025-0.092-0.009 0.061-0.065-0.065-0.065-0.147 0-0.046-0.012-0.083-0.031-0.083-0.015 0-0.031-0.049-0.031-0.107 0-0.071-0.012-0.104-0.037-0.098-0.025 0.003-0.043-0.037-0.049-0.101-0.006-0.058-0.031-0.12-0.055-0.132s-0.043-0.071-0.043-0.129c0-0.058-0.012-0.107-0.031-0.107-0.015 0-0.031-0.055-0.031-0.123 0-0.095-0.009-0.117-0.046-0.104-0.037 0.015-0.046-0.006-0.046-0.107 0-0.098-0.009-0.12-0.046-0.107-0.037 0.015-0.046-0.006-0.046-0.092 0-0.061-0.012-0.111-0.031-0.111-0.015 0-0.031-0.049-0.031-0.107 0-0.074-0.015-0.107-0.046-0.107-0.034 0-0.046-0.034-0.046-0.123s-0.012-0.123-0.046-0.123c-0.031 0-0.046-0.034-0.046-0.107 0-0.058-0.012-0.107-0.031-0.107-0.015 0-0.031-0.049-0.031-0.107 0-0.074-0.015-0.107-0.046-0.107s-0.046-0.034-0.046-0.107-0.015-0.107-0.046-0.107-0.046-0.031-0.046-0.095c0-0.052-0.021-0.114-0.046-0.138-0.025-0.028-0.046-0.089-0.046-0.138s-0.012-0.089-0.031-0.089c-0.015 0-0.031-0.049-0.031-0.107 0-0.074-0.015-0.107-0.046-0.107-0.034 0-0.046-0.034-0.046-0.126 0-0.074-0.012-0.117-0.031-0.104s-0.031-0.025-0.031-0.089c0-0.080-0.018-0.117-0.065-0.144-0.049-0.025-0.061-0.055-0.052-0.123 0.009-0.061 0-0.089-0.028-0.089s-0.040-0.040-0.040-0.123c0-0.089-0.012-0.123-0.046-0.123-0.031 0-0.046-0.034-0.046-0.107 0-0.071-0.012-0.104-0.037-0.101-0.025 0.006-0.043-0.031-0.049-0.092-0.006-0.052-0.021-0.098-0.040-0.098-0.015 0-0.028-0.049-0.028-0.111 0-0.058-0.021-0.129-0.046-0.154-0.025-0.028-0.046-0.089-0.046-0.138 0-0.052-0.012-0.086-0.031-0.074-0.015 0.009-0.037-0.022-0.046-0.068-0.012-0.046-0.031-0.111-0.049-0.138-0.015-0.031-0.028-0.089-0.028-0.129s-0.021-0.080-0.046-0.092c-0.028-0.009-0.046-0.055-0.046-0.107 0-0.049-0.018-0.095-0.046-0.107-0.028-0.009-0.046-0.058-0.046-0.126 0-0.058-0.012-0.107-0.031-0.107-0.015 0-0.031-0.055-0.031-0.123 0-0.080-0.012-0.12-0.037-0.117-0.025 0.006-0.046-0.037-0.055-0.107-0.009-0.064-0.028-0.114-0.046-0.114-0.015 0-0.034-0.046-0.040-0.107-0.006-0.058-0.021-0.107-0.040-0.107-0.015 0-0.028-0.049-0.028-0.107 0-0.074-0.015-0.107-0.046-0.107s-0.046-0.031-0.046-0.104c0-0.065-0.018-0.111-0.046-0.123-0.028-0.009-0.046-0.055-0.046-0.107s-0.018-0.095-0.046-0.107c-0.037-0.012-0.043-0.043-0.028-0.126s0.009-0.107-0.021-0.101c-0.028 0.006-0.046-0.031-0.058-0.107-0.009-0.065-0.028-0.111-0.046-0.108-0.015 0.006-0.034-0.043-0.040-0.108-0.006-0.061-0.021-0.108-0.040-0.098-0.015 0.012-0.028-0.037-0.028-0.104 0-0.092-0.012-0.126-0.046-0.126s-0.046-0.034-0.046-0.123c0-0.083-0.012-0.12-0.037-0.117-0.025 0.006-0.043-0.034-0.049-0.107-0.006-0.061-0.021-0.114-0.040-0.114-0.015 0-0.028-0.021-0.028-0.046 0-0.040-0.442-0.046-3.796-0.046h-3.796l0.018 15.192zM54.855 2.991c0 0.065 0.123 0.092 0.326 0.071 0.126-0.012 0.166-0.006 0.166 0.025 0 0.052 0.068 0.077 0.215 0.077 0.065 0 0.129 0.012 0.138 0.031 0.009 0.015 0.080 0.031 0.157 0.031 0.074 0 0.135 0.012 0.135 0.031 0 0.015 0.040 0.031 0.089 0.031s0.111 0.022 0.138 0.046c0.025 0.025 0.080 0.046 0.123 0.046 0.052 0 0.080 0.018 0.080 0.046 0 0.037 0.028 0.043 0.108 0.034 0.083-0.012 0.114 0 0.138 0.046 0.018 0.031 0.055 0.058 0.080 0.058 0.028 0 0.068 0.022 0.095 0.049 0.028 0.025 0.068 0.040 0.089 0.031 0.025-0.009 0.043-0.006 0.043 0.006 0 0.028 0.24 0.138 0.298 0.138 0.022 0 0.040 0.018 0.040 0.040 0 0.018 0.034 0.046 0.077 0.055 0.046 0.012 0.071 0.034 0.058 0.052-0.012 0.022 0.003 0.028 0.046 0.012 0.046-0.012 0.065-0.006 0.065 0.025 0 0.025 0.034 0.055 0.077 0.064 0.043 0.012 0.077 0.034 0.077 0.049 0 0.018 0.022 0.031 0.046 0.031s0.046 0.012 0.046 0.028 0.031 0.040 0.068 0.049c0.034 0.012 0.095 0.055 0.132 0.095s0.083 0.074 0.104 0.074c0.018 0 0.034 0.012 0.034 0.031 0 0.015 0.034 0.037 0.077 0.049 0.043 0.009 0.077 0.037 0.077 0.061s0.009 0.040 0.025 0.037c0.037-0.012 0.157 0.107 0.138 0.138-0.009 0.018-0.003 0.021 0.018 0.009s0.083 0.028 0.154 0.101c0.065 0.068 0.126 0.114 0.138 0.104 0.009-0.012 0.018 0.003 0.018 0.034 0 0.028 0.022 0.058 0.046 0.068 0.025 0.012 0.046 0.040 0.046 0.068 0 0.025 0.009 0.040 0.018 0.031 0.022-0.025 0.227 0.175 0.227 0.221 0 0.018 0.015 0.025 0.034 0.015 0.018-0.012 0.040 0.006 0.049 0.043s0.037 0.064 0.058 0.064c0.025 0 0.043 0.021 0.043 0.049 0 0.025 0.015 0.037 0.031 0.028 0.018-0.009 0.031 0 0.031 0.021 0.003 0.021 0.043 0.074 0.092 0.117 0.052 0.040 0.092 0.095 0.092 0.123 0 0.025 0.034 0.074 0.077 0.104s0.077 0.077 0.077 0.101c0 0.025 0.015 0.034 0.034 0.025 0.018-0.012 0.040 0.006 0.049 0.043s0.028 0.064 0.043 0.064c0.015 0 0.028 0.028 0.028 0.061s0.022 0.061 0.046 0.061 0.046 0.028 0.046 0.061 0.022 0.061 0.046 0.061 0.046 0.028 0.046 0.061 0.015 0.061 0.031 0.061c0.018 0 0.031 0.028 0.031 0.061s0.018 0.058 0.037 0.055c0.022-0.006 0.043 0.021 0.049 0.058 0.006 0.040 0.031 0.071 0.055 0.071s0.043 0.028 0.043 0.061 0.015 0.061 0.031 0.061c0.018 0 0.031 0.040 0.031 0.092 0 0.068 0.012 0.086 0.046 0.074 0.031-0.012 0.046 0 0.046 0.046 0 0.037 0.022 0.074 0.046 0.083 0.025 0.012 0.046 0.052 0.046 0.095 0 0.040 0.012 0.064 0.031 0.055 0.018-0.012 0.031 0.015 0.031 0.058 0 0.049 0.018 0.080 0.046 0.080 0.031 0 0.046 0.031 0.046 0.092 0 0.068 0.012 0.086 0.046 0.074 0.037-0.015 0.046 0.006 0.046 0.095 0 0.061 0.012 0.104 0.028 0.092 0.037-0.018 0.077 0.095 0.049 0.138-0.009 0.018 0 0.021 0.028 0.012 0.031-0.012 0.052 0.006 0.068 0.061 0.009 0.043 0.031 0.080 0.046 0.080s0.028 0.049 0.028 0.107c0 0.071 0.015 0.107 0.043 0.107s0.037 0.025 0.025 0.077c-0.009 0.052 0.003 0.083 0.037 0.095 0.031 0.012 0.049 0.055 0.049 0.123 0 0.074 0.015 0.104 0.046 0.104s0.046 0.034 0.046 0.107c0 0.071 0.012 0.104 0.040 0.098 0.022-0.003 0.040 0.034 0.046 0.086 0.006 0.049 0.031 0.104 0.055 0.117s0.043 0.065 0.043 0.114c0 0.052 0.012 0.092 0.031 0.092 0.015 0 0.040 0.055 0.049 0.123 0.012 0.068 0.034 0.132 0.046 0.141 0.015 0.009 0.028 0.065 0.028 0.123s0.012 0.104 0.028 0.104c0.012 0 0.034 0.058 0.043 0.126 0.009 0.071 0.034 0.138 0.055 0.15 0.034 0.025 0.074 0.175 0.111 0.445 0.009 0.068 0.037 0.135 0.058 0.147 0.028 0.015 0.043 0.077 0.043 0.157 0 0.092 0.015 0.141 0.046 0.154 0.034 0.012 0.046 0.065 0.046 0.187 0 0.092 0.015 0.169 0.031 0.169 0.018 0 0.031 0.086 0.031 0.2 0 0.144 0.012 0.197 0.040 0.19 0.025-0.003 0.043 0.068 0.055 0.24 0.009 0.135 0.018 0.23 0.022 0.215 0.003-0.018 0.022-0.009 0.037 0.015s0.031 0.138 0.031 0.252c0 0.114 0.015 0.215 0.031 0.224 0.018 0.009 0.031 0.154 0.031 0.322 0 0.24 0.009 0.304 0.046 0.319 0.037 0.012 0.046 0.092 0.046 0.445 0 0.35 0.009 0.43 0.046 0.445 0.040 0.015 0.046 0.209 0.046 1.492s-0.006 1.477-0.046 1.493c-0.037 0.015-0.046 0.095-0.046 0.461 0 0.273-0.012 0.442-0.031 0.442s-0.031 0.123-0.031 0.307c0 0.246-0.009 0.313-0.046 0.326-0.037 0.015-0.046 0.077-0.046 0.279 0 0.221-0.006 0.258-0.046 0.243-0.040-0.012-0.046 0.021-0.046 0.215 0 0.175-0.012 0.233-0.046 0.246-0.034 0.015-0.046 0.071-0.046 0.218 0 0.123-0.012 0.19-0.031 0.178s-0.031 0.049-0.031 0.163c0 0.126-0.015 0.193-0.046 0.221-0.031 0.025-0.046 0.092-0.046 0.187 0 0.083-0.012 0.15-0.031 0.15-0.015 0-0.031 0.037-0.031 0.083 0 0.123-0.034 0.227-0.065 0.206-0.015-0.009-0.028 0.055-0.028 0.141 0 0.129-0.009 0.157-0.046 0.141-0.037-0.012-0.046 0.012-0.046 0.12 0 0.101-0.012 0.138-0.046 0.138s-0.046 0.037-0.046 0.141c0 0.083-0.012 0.132-0.031 0.12s-0.031 0.031-0.031 0.108c0 0.083-0.015 0.132-0.046 0.141-0.028 0.012-0.046 0.058-0.046 0.12 0 0.064-0.018 0.108-0.049 0.12-0.025 0.009-0.037 0.034-0.028 0.049 0.031 0.049-0.012 0.19-0.046 0.169-0.018-0.012-0.031 0.028-0.031 0.089 0 0.077-0.012 0.111-0.046 0.111-0.031 0-0.046 0.031-0.046 0.089 0 0.049-0.018 0.095-0.046 0.108-0.028 0.009-0.046 0.055-0.046 0.111 0 0.049-0.012 0.092-0.031 0.092-0.015 0-0.031 0.034-0.031 0.074s-0.022 0.080-0.046 0.092c-0.025 0.009-0.046 0.052-0.046 0.095s-0.018 0.077-0.040 0.077c-0.022 0-0.043 0.031-0.043 0.068-0.003 0.040-0.022 0.074-0.040 0.080-0.015 0.006-0.031 0.046-0.031 0.086 0 0.043-0.022 0.083-0.046 0.092-0.025 0.012-0.046 0.052-0.046 0.092 0 0.043-0.022 0.083-0.046 0.092-0.025 0.012-0.046 0.046-0.046 0.077s-0.012 0.058-0.031 0.058c-0.015 0-0.031 0.034-0.031 0.077 0 0.049-0.018 0.077-0.046 0.077s-0.046 0.028-0.046 0.077-0.018 0.077-0.046 0.077c-0.025 0-0.046 0.028-0.046 0.061s-0.012 0.061-0.031 0.061c-0.015 0-0.031 0.034-0.031 0.077 0 0.049-0.018 0.077-0.046 0.077-0.025 0-0.046 0.028-0.046 0.061s-0.022 0.061-0.046 0.061-0.046 0.028-0.046 0.061-0.012 0.061-0.031 0.061c-0.015 0-0.031 0.028-0.031 0.061s-0.022 0.061-0.046 0.061-0.046 0.028-0.046 0.061-0.022 0.061-0.046 0.061-0.046 0.021-0.046 0.046-0.012 0.046-0.031 0.046c-0.015 0-0.031 0.028-0.031 0.061s-0.022 0.061-0.046 0.061-0.046 0.021-0.046 0.046-0.022 0.046-0.046 0.046-0.046 0.028-0.046 0.061-0.012 0.061-0.031 0.061c-0.015 0-0.031 0.021-0.031 0.046s-0.022 0.046-0.046 0.046-0.046 0.021-0.046 0.046-0.022 0.046-0.046 0.046-0.046 0.021-0.046 0.049c0 0.055-0.071 0.135-0.12 0.135-0.018 0-0.034 0.012-0.034 0.031 0 0.037-0.172 0.215-0.209 0.215-0.018 0-0.037 0.028-0.046 0.064s-0.031 0.055-0.049 0.043c-0.022-0.009-0.034 0.009-0.034 0.046s-0.012 0.058-0.028 0.049c-0.015-0.009-0.037 0.003-0.046 0.031-0.009 0.025-0.031 0.037-0.049 0.028-0.015-0.009-0.031 0.003-0.031 0.028 0 0.028-0.022 0.049-0.046 0.049s-0.046 0.015-0.046 0.034c0 0.034-0.074 0.12-0.104 0.12s-0.141 0.123-0.141 0.157c0 0.015-0.012 0.021-0.031 0.012-0.015-0.009-0.031-0.006-0.031 0.012 0 0.015-0.040 0.037-0.092 0.049-0.049 0.012-0.092 0.034-0.092 0.049 0 0.052-0.117 0.157-0.15 0.135-0.018-0.009-0.034-0.003-0.034 0.015s-0.037 0.046-0.080 0.061c-0.043 0.018-0.068 0.043-0.058 0.061 0.009 0.015 0 0.031-0.028 0.031-0.025 0-0.049 0.009-0.055 0.021-0.015 0.040-0.209 0.132-0.273 0.132-0.031 0-0.058 0.021-0.058 0.046s-0.022 0.046-0.046 0.046-0.046 0.021-0.046 0.046c0 0.028-0.028 0.046-0.077 0.046-0.043 0-0.077 0.012-0.077 0.031 0 0.015-0.043 0.031-0.095 0.031-0.074 0-0.092 0.012-0.077 0.046 0.012 0.034-0.006 0.046-0.074 0.046-0.061 0-0.092 0.015-0.092 0.046s-0.034 0.046-0.108 0.046c-0.058 0-0.108 0.012-0.108 0.031 0 0.015-0.040 0.031-0.092 0.031-0.049 0-0.092 0.012-0.092 0.031 0 0.015-0.049 0.037-0.111 0.049-0.058 0.012-0.117 0.040-0.126 0.061-0.009 0.028-0.061 0.043-0.135 0.043-0.065 0-0.12 0.012-0.12 0.031 0 0.015-0.071 0.031-0.154 0.031-0.111 0-0.16 0.012-0.172 0.046-0.015 0.034-0.065 0.046-0.184 0.046-0.126 0-0.166 0.012-0.166 0.046 0 0.037-0.052 0.046-0.276 0.046-0.163 0-0.276 0.012-0.276 0.031s-0.313 0.031-0.875 0.031-0.875-0.012-0.875-0.031-0.114-0.031-0.279-0.031c-0.236 0-0.276-0.006-0.261-0.046 0.012-0.037-0.015-0.046-0.169-0.046-0.135 0-0.187-0.012-0.2-0.046s-0.065-0.046-0.169-0.046c-0.083 0-0.15-0.015-0.15-0.031 0-0.018-0.055-0.031-0.123-0.031-0.089 0-0.123-0.012-0.123-0.046s-0.034-0.046-0.123-0.046-0.123-0.012-0.123-0.046c0-0.031-0.031-0.046-0.092-0.046-0.049 0-0.092-0.015-0.092-0.031 0-0.018-0.049-0.031-0.108-0.031-0.074 0-0.108-0.015-0.108-0.046s-0.031-0.046-0.089-0.046c-0.049 0-0.095-0.018-0.108-0.046-0.009-0.025-0.046-0.046-0.080-0.046s-0.061-0.012-0.061-0.028-0.034-0.037-0.077-0.046c-0.043-0.012-0.077-0.034-0.077-0.049 0-0.018-0.028-0.031-0.065-0.031-0.034 0-0.052-0.015-0.043-0.031 0.012-0.018-0.022-0.040-0.074-0.049-0.052-0.012-0.095-0.031-0.095-0.046s-0.034-0.028-0.077-0.028c-0.049 0-0.077-0.018-0.077-0.046 0-0.025-0.022-0.046-0.046-0.046s-0.043-0.018-0.040-0.037c0.006-0.021-0.025-0.043-0.068-0.049-0.040-0.006-0.108-0.046-0.144-0.086s-0.077-0.074-0.086-0.074c-0.018 0-0.061-0.034-0.154-0.117-0.022-0.018-0.065-0.037-0.089-0.037-0.028 0-0.049-0.021-0.049-0.046s-0.022-0.046-0.046-0.046-0.046-0.021-0.046-0.046-0.012-0.046-0.028-0.046c-0.018 0-0.065-0.031-0.108-0.071-0.12-0.111-0.203-0.175-0.218-0.175-0.034 0-0.138-0.111-0.138-0.144 0-0.021-0.012-0.040-0.031-0.040-0.015 0-0.031-0.021-0.031-0.046s-0.022-0.046-0.046-0.046-0.046-0.015-0.046-0.031c0-0.018-0.022-0.031-0.046-0.031s-0.046-0.021-0.046-0.049c0-0.028-0.068-0.117-0.154-0.2-0.083-0.083-0.154-0.163-0.154-0.181 0-0.015-0.022-0.031-0.046-0.031s-0.046-0.028-0.046-0.061-0.022-0.061-0.046-0.061-0.046-0.021-0.046-0.046-0.012-0.046-0.031-0.046c-0.015 0-0.031-0.028-0.031-0.061s-0.022-0.061-0.046-0.061-0.046-0.018-0.046-0.043c0-0.025-0.022-0.049-0.046-0.061-0.025-0.009-0.046-0.037-0.046-0.064 0-0.025-0.012-0.046-0.031-0.046-0.015 0-0.031-0.028-0.031-0.061s-0.022-0.061-0.046-0.061-0.046-0.028-0.046-0.061-0.022-0.061-0.046-0.061-0.046-0.028-0.046-0.061-0.022-0.061-0.046-0.061-0.046-0.028-0.046-0.061-0.012-0.061-0.031-0.061c-0.015 0-0.031-0.028-0.031-0.058s-0.022-0.064-0.046-0.077c-0.025-0.009-0.046-0.046-0.046-0.080s-0.012-0.061-0.031-0.061c-0.015 0-0.031-0.028-0.031-0.061s-0.022-0.071-0.046-0.080c-0.025-0.012-0.046-0.052-0.046-0.092s-0.015-0.071-0.037-0.068c-0.018 0.006-0.043-0.018-0.049-0.052s-0.031-0.074-0.055-0.086c-0.025-0.012-0.043-0.049-0.043-0.080 0-0.034-0.022-0.064-0.046-0.077-0.025-0.009-0.046-0.052-0.046-0.095s-0.012-0.077-0.031-0.077c-0.015 0-0.031-0.034-0.031-0.074s-0.022-0.080-0.046-0.092c-0.025-0.009-0.046-0.046-0.046-0.080s-0.012-0.061-0.031-0.061c-0.015 0-0.031-0.043-0.031-0.092 0-0.055-0.018-0.101-0.046-0.111-0.028-0.012-0.046-0.058-0.046-0.108 0-0.055-0.015-0.086-0.037-0.083-0.025 0.006-0.043-0.031-0.049-0.083s-0.031-0.104-0.055-0.117c-0.025-0.012-0.043-0.064-0.043-0.114 0-0.052-0.012-0.092-0.031-0.092-0.015 0-0.031-0.040-0.031-0.089s-0.018-0.095-0.046-0.108c-0.028-0.009-0.046-0.058-0.046-0.126 0-0.074-0.012-0.108-0.046-0.108s-0.046-0.034-0.046-0.126c0-0.074-0.012-0.117-0.031-0.104s-0.031-0.034-0.031-0.117c0-0.095-0.015-0.144-0.046-0.157-0.031-0.009-0.046-0.058-0.046-0.141s-0.012-0.12-0.037-0.114c-0.028 0.003-0.043-0.043-0.049-0.141-0.006-0.080-0.022-0.138-0.040-0.129-0.015 0.012-0.028-0.052-0.028-0.15 0-0.132-0.009-0.172-0.046-0.172s-0.046-0.040-0.046-0.169c0-0.12-0.012-0.166-0.037-0.16-0.028 0.003-0.043-0.049-0.049-0.172-0.006-0.095-0.022-0.175-0.034-0.175-0.015 0-0.037-0.089-0.049-0.2-0.009-0.111-0.034-0.2-0.049-0.2s-0.028-0.104-0.028-0.23c0-0.169-0.009-0.227-0.037-0.221-0.031 0.003-0.043-0.068-0.049-0.264-0.006-0.163-0.022-0.261-0.037-0.252-0.018 0.012-0.031-0.111-0.031-0.319 0-0.283-0.009-0.341-0.046-0.341-0.040 0-0.046-0.077-0.046-0.494 0-0.353-0.009-0.485-0.034-0.47-0.018 0.009-0.046 0-0.061-0.021-0.031-0.049-0.040-2.512-0.009-2.589 0.009-0.028 0.037-0.049 0.061-0.049 0.034 0 0.043-0.092 0.043-0.494 0-0.319 0.009-0.485 0.031-0.473 0.018 0.012 0.031-0.095 0.031-0.304 0-0.181 0.012-0.332 0.031-0.341s0.031-0.114 0.031-0.23c0-0.224 0.022-0.316 0.065-0.289 0.015 0.009 0.028-0.080 0.028-0.2 0-0.147 0.015-0.227 0.046-0.261 0.031-0.031 0.046-0.107 0.046-0.233 0-0.141 0.009-0.187 0.040-0.175 0.028 0.009 0.034-0.028 0.028-0.15-0.009-0.135 0-0.172 0.052-0.218 0.049-0.040 0.065-0.089 0.065-0.2 0-0.083 0.015-0.147 0.031-0.147 0.018 0 0.031-0.071 0.031-0.157 0-0.095 0.012-0.147 0.031-0.135s0.031-0.031 0.031-0.104c0-0.068 0.022-0.141 0.046-0.169 0.025-0.025 0.046-0.089 0.046-0.141 0-0.055 0.018-0.101 0.046-0.111 0.031-0.012 0.046-0.061 0.046-0.135 0-0.080 0.015-0.123 0.049-0.135s0.043-0.040 0.031-0.092c-0.012-0.046 0.003-0.095 0.043-0.141 0.034-0.040 0.061-0.104 0.061-0.144 0-0.037 0.015-0.071 0.031-0.071 0.018 0 0.031-0.055 0.031-0.123s0.015-0.123 0.031-0.123c0.018 0 0.031-0.034 0.031-0.077s0.022-0.086 0.046-0.095c0.028-0.012 0.046-0.058 0.046-0.107 0-0.052 0.018-0.098 0.046-0.107 0.028-0.012 0.046-0.058 0.046-0.111 0-0.071 0.012-0.089 0.046-0.074 0.037 0.012 0.046-0.009 0.046-0.089 0-0.074 0.015-0.107 0.046-0.107 0.028 0 0.046-0.028 0.046-0.077 0-0.043 0.015-0.077 0.031-0.077 0.018 0 0.031-0.049 0.031-0.107 0-0.074 0.015-0.107 0.046-0.107 0.028 0 0.046-0.028 0.046-0.077 0-0.043 0.015-0.077 0.031-0.077 0.018 0 0.031-0.021 0.031-0.046 0-0.028 0.022-0.055 0.046-0.064 0.028-0.012 0.046-0.058 0.046-0.111 0-0.071 0.012-0.089 0.046-0.074 0.034 0.012 0.046-0.003 0.046-0.058 0-0.049 0.018-0.077 0.046-0.077s0.046-0.028 0.046-0.077c0-0.043 0.015-0.077 0.031-0.077 0.018 0 0.031-0.028 0.031-0.058s0.022-0.064 0.046-0.077c0.025-0.009 0.046-0.037 0.046-0.064 0-0.025 0.015-0.046 0.031-0.046 0.018 0 0.031-0.028 0.031-0.061s0.022-0.071 0.046-0.080c0.025-0.012 0.046-0.046 0.046-0.080 0-0.043 0.015-0.055 0.046-0.043 0.034 0.012 0.046-0.003 0.046-0.058 0-0.049 0.018-0.077 0.046-0.077 0.025 0 0.046-0.021 0.046-0.046s0.015-0.046 0.031-0.046c0.018 0 0.031-0.034 0.031-0.077 0-0.049 0.018-0.077 0.046-0.077 0.025 0 0.046-0.018 0.046-0.043s0.022-0.049 0.046-0.061c0.025-0.009 0.046-0.040 0.046-0.064 0-0.028 0.015-0.040 0.031-0.031 0.018 0.012 0.031-0.015 0.031-0.058 0-0.049 0.018-0.080 0.046-0.080 0.025 0 0.046-0.021 0.046-0.046s0.018-0.046 0.040-0.046c0.025 0 0.061-0.034 0.083-0.077s0.058-0.077 0.083-0.077c0.022 0 0.040-0.028 0.040-0.064 0-0.046 0.015-0.058 0.046-0.046 0.028 0.009 0.046 0 0.046-0.028 0-0.025 0.012-0.046 0.028-0.046s0.034-0.031 0.040-0.071c0.006-0.037 0.028-0.064 0.049-0.061 0.018 0.006 0.037-0.012 0.037-0.037s0.018-0.046 0.040-0.046c0.025 0 0.061-0.034 0.083-0.077s0.058-0.077 0.083-0.077c0.022 0 0.040-0.021 0.040-0.046s0.015-0.046 0.031-0.046c0.018 0 0.058-0.028 0.092-0.061 0.037-0.037 0.077-0.055 0.092-0.046 0.018 0.012 0.031 0.003 0.031-0.018 0-0.034 0.264-0.304 0.295-0.304 0.009 0 0.046-0.028 0.083-0.061 0.037-0.037 0.098-0.071 0.135-0.080 0.040-0.012 0.071-0.037 0.071-0.061s0.022-0.043 0.046-0.043 0.046-0.021 0.046-0.046 0.028-0.046 0.071-0.046c0.046 0 0.089-0.028 0.114-0.077 0.025-0.046 0.068-0.077 0.111-0.077 0.040 0 0.083-0.018 0.095-0.040 0.031-0.049 0.15-0.114 0.209-0.114 0.025 0 0.046-0.022 0.046-0.046 0-0.028 0.028-0.046 0.077-0.046s0.077-0.018 0.077-0.046 0.028-0.046 0.077-0.046c0.043 0 0.077-0.015 0.077-0.031 0-0.018 0.034-0.031 0.077-0.031s0.086-0.022 0.095-0.046c0.012-0.025 0.058-0.046 0.108-0.046 0.065 0 0.083-0.012 0.071-0.046-0.015-0.037 0.006-0.046 0.104-0.046 0.071 0 0.135-0.015 0.144-0.031 0.009-0.018 0.046-0.031 0.080-0.031s0.068-0.022 0.077-0.046c0.012-0.031 0.061-0.046 0.135-0.046s0.123-0.015 0.135-0.046c0.012-0.031 0.061-0.046 0.154-0.046 0.077 0 0.147-0.015 0.157-0.031 0.009-0.018 0.086-0.031 0.172-0.031 0.114 0 0.15-0.012 0.15-0.046 0-0.049 0.022-0.052 0.286-0.046 0.15 0.003 0.181-0.006 0.193-0.052 0.015-0.052 0.080-0.055 1.059-0.068 0.937-0.009 1.041-0.006 1.041 0.040z"></path>
</symbol>
</defs>
</svg>
