<svg aria-hidden="true" style="position: absolute; width: 0; height: 0; overflow: hidden;" version="1.1" xmlns="http://www.w3.org/2000/svg" xmlns:xlink="http://www.w3.org/1999/xlink">
<defs>
<symbol id="youtube" viewBox="0 0 32 32">
<path style="" d="M31.327 8.273c-0.386-1.353-1.431-2.398-2.756-2.777l-0.028-0.007c-2.493-0.668-12.528-0.668-12.528-0.668s-10.009-0.013-12.528 0.668c-1.353 0.386-2.398 1.431-2.777 2.756l-0.007 0.028c-0.443 2.281-0.696 4.903-0.696 7.585 0 0.054 0 0.109 0 0.163l-0-0.008c-0 0.037-0 0.082-0 0.126 0 2.682 0.253 5.304 0.737 7.845l-0.041-0.26c0.386 1.353 1.431 2.398 2.756 2.777l0.028 0.007c2.491 0.669 12.528 0.669 12.528 0.669s10.008 0 12.528-0.669c1.353-0.386 2.398-1.431 2.777-2.756l0.007-0.028c0.425-2.233 0.668-4.803 0.668-7.429 0-0.099-0-0.198-0.001-0.297l0 0.015c0.001-0.092 0.001-0.201 0.001-0.31 0-2.626-0.243-5.196-0.708-7.687l0.040 0.258zM12.812 20.801v-9.591l8.352 4.803z"></path>
</symbol>
<symbol id="coroflot" viewBox="0 0 32 32">
<path style="" d="M10.429 1.173c3.254-1.171 6.894-1.221 10.181-0.15 2.922 0.947 5.55 2.776 7.452 5.187-0.976 0.975-1.954 1.949-2.926 2.928-0.35-0.443-0.699-0.888-1.103-1.284-1.643-1.686-3.811-2.853-6.124-3.288-1.861-0.35-3.81-0.247-5.618 0.319-1.698 0.526-3.269 1.453-4.556 2.679-1.429 1.354-2.509 3.075-3.096 4.954-0.586 1.859-0.691 3.866-0.305 5.776 0.319 1.6 0.986 3.127 1.935 4.453 0.88 1.234 2.002 2.293 3.284 3.102 1.31 0.828 2.788 1.388 4.318 1.637 1.748 0.278 3.561 0.167 5.255-0.355 2.21-0.669 4.202-2.024 5.653-3.819 0.125-0.147 0.23-0.31 0.361-0.452 0.971 0.98 1.949 1.953 2.924 2.929-1.992 2.522-4.777 4.408-7.862 5.312-2.74 0.81-5.701 0.853-8.463 0.128-2.873-0.748-5.518-2.338-7.532-4.518-2.128-2.278-3.551-5.204-4.020-8.287-0.28-1.832-0.244-3.714 0.12-5.531 0.553-2.794 1.894-5.425 3.82-7.523 1.719-1.884 3.902-3.341 6.304-4.199zM9.668 12.47c0.608-1.048 1.494-1.933 2.541-2.542 1.153 1.154 2.308 2.306 3.459 3.462 0.027 0.024 0.070 0.087 0.105 0.033 1.112-1.112 2.224-2.223 3.334-3.336 0.057-0.049 0.1-0.123 0.173-0.148 1.046 0.6 1.915 1.49 2.529 2.526-1.174 1.181-2.354 2.355-3.53 3.534 1.176 1.179 2.357 2.353 3.53 3.536-0.615 1.041-1.492 1.926-2.538 2.535-1.184-1.17-2.35-2.359-3.536-3.527-1.173 1.179-2.35 2.352-3.525 3.529-1.046-0.61-1.933-1.494-2.54-2.543 1.18-1.174 2.352-2.356 3.532-3.53-1.18-1.174-2.352-2.356-3.532-3.53z"></path>
</symbol>
<symbol id="mail" viewBox="0 0 32 32">
<path d="M28 5h-24c-2.209 0-4 1.792-4 4v13c0 2.209 1.791 4 4 4h24c2.209 0 4-1.791 4-4v-13c0-2.208-1.791-4-4-4zM2 10.25l6.999 5.25-6.999 5.25v-10.5zM30 22c0 1.104-0.898 2-2 2h-24c-1.103 0-2-0.896-2-2l7.832-5.875 4.368 3.277c0.533 0.398 1.166 0.6 1.8 0.6 0.633 0 1.266-0.201 1.799-0.6l4.369-3.277 7.832 5.875zM30 20.75l-7-5.25 7-5.25v10.5zM17.199 18.602c-0.349 0.262-0.763 0.4-1.199 0.4s-0.851-0.139-1.2-0.4l-12.8-9.602c0-1.103 0.897-2 2-2h24c1.102 0 2 0.897 2 2l-12.801 9.602z"></path>
</symbol>
<symbol id="logo" viewBox="0 0 16 32">
<path d="M0.054 1.42v1.42l5.345 0.008c2.935 0.008 5.314 0.023 5.283 0.038s-0.43 0.142-0.883 0.284c-1.335 0.414-1.842 0.583-2.686 0.902-0.157 0.058-0.46 0.169-0.671 0.246s-0.744 0.276-1.189 0.441c-0.441 0.165-0.978 0.364-1.189 0.441s-0.514 0.188-0.671 0.249c-0.157 0.061-0.453 0.169-0.652 0.242-0.468 0.173-1.546 0.572-2.091 0.775l-0.422 0.157v2.057l0.134 0.054c0.073 0.027 0.299 0.111 0.499 0.184s0.882 0.326 1.516 0.56c1.205 0.449 1.588 0.591 2.225 0.825 0.66 0.242 1.078 0.399 2.187 0.813 1.493 0.56 3.319 1.197 4.409 1.539l0.568 0.18-0.203 0.023c-0.115 0.015-1.707 0.035-3.545 0.050-1.834 0.011-4.336 0.035-5.552 0.050l-2.218 0.023v5.088c0 4.865-0.004 5.099-0.073 5.395-0.134 0.556-0.173 0.913-0.173 1.554 0 1.178 0.261 2.225 0.794 3.192 1.331 2.402 4.036 3.787 7.394 3.791 2.294 0 4.366-0.671 5.778-1.872 1.186-1.005 1.869-2.21 2.149-3.806 0.081-0.453 0.092-1.723 0.019-2.149-0.284-1.658-0.986-2.924-2.206-3.967-0.936-0.802-2.022-1.335-3.465-1.7l-0.414-0.107-3.925-0.023-0.499 0.115c-1.201 0.28-2.295 0.76-3.062 1.351-0.107 0.081-0.207 0.15-0.219 0.15-0.038 0-0.031-4.251 0.004-4.274 0.019-0.011 2.406-0.038 5.306-0.058 2.901-0.023 5.863-0.050 6.588-0.065l1.312-0.023v-1.757c0-1.358-0.011-1.765-0.046-1.792-0.027-0.023-0.18-0.084-0.338-0.138s-0.821-0.288-1.477-0.526c-0.652-0.234-1.55-0.56-1.995-0.717-0.441-0.157-0.994-0.357-1.228-0.441-2.072-0.748-6.458-2.241-6.803-2.314-0.069-0.015-0.123-0.042-0.115-0.065s0.522-0.211 1.143-0.418c0.622-0.211 1.201-0.407 1.285-0.434 0.084-0.031 0.38-0.134 0.652-0.234 0.276-0.1 0.576-0.203 0.671-0.234 0.184-0.058 0.533-0.184 0.998-0.361 0.157-0.061 0.46-0.173 0.671-0.249 0.56-0.203 2.713-1.005 3.050-1.132 0.157-0.061 0.599-0.226 0.978-0.364 0.38-0.142 1.109-0.411 1.623-0.602l0.929-0.349-0.008-1.711-0.011-1.711-15.482-0.019v1.42zM9.608 21.061c1.090 0.184 2.176 0.599 2.874 1.094 0.295 0.207 0.84 0.756 1.021 1.024 0.813 1.212 0.783 2.736-0.073 3.906-0.844 1.159-2.605 1.93-4.735 2.076-1.922 0.134-4.025-0.388-5.188-1.285-0.261-0.203-0.714-0.671-0.871-0.902-0.714-1.055-0.752-2.513-0.096-3.626 0.219-0.372 0.833-1.001 1.216-1.255 0.929-0.606 1.968-0.944 3.434-1.12 0.073-0.008 0.541-0.012 1.036-0.004 0.694 0.008 1.009 0.031 1.381 0.092z"></path>
</symbol>
<symbol id="cross" viewBox="0 0 32 32"><path d="M23.733 10.304l-1.504-1.504-5.963 5.963-5.963-5.963-1.504 1.504 5.963 5.963-5.963 5.963 1.504 1.504 5.963-5.963 5.963 5.963 1.504-1.504-5.963-5.963 5.963-5.963z"></path></symbol><symbol id="menu" viewBox="0 0 32 32"><path d="M6.4 11.733v-2.133h19.2v2.133h-19.2zM6.4 17.067h19.2v-2.133h-19.2v2.133zM6.4 22.4h19.2v-2.133h-19.2v2.133z"></path></symbol>
</defs>
</svg>
