<svg aria-hidden="true" style="position: absolute; width: 0; height: 0; overflow: hidden;" version="1.1" xmlns="http://www.w3.org/2000/svg" xmlns:xlink="http://www.w3.org/1999/xlink">
<defs>
<symbol id="youtube" viewBox="0 0 32 32">
<path style="" d="M31.327 8.273c-0.386-1.353-1.431-2.398-2.756-2.777l-0.028-0.007c-2.493-0.668-12.528-0.668-12.528-0.668s-10.009-0.013-12.528 0.668c-1.353 0.386-2.398 1.431-2.777 2.756l-0.007 0.028c-0.443 2.281-0.696 4.903-0.696 7.585 0 0.054 0 0.109 0 0.163l-0-0.008c-0 0.037-0 0.082-0 0.126 0 2.682 0.253 5.304 0.737 7.845l-0.041-0.26c0.386 1.353 1.431 2.398 2.756 2.777l0.028 0.007c2.491 0.669 12.528 0.669 12.528 0.669s10.008 0 12.528-0.669c1.353-0.386 2.398-1.431 2.777-2.756l0.007-0.028c0.425-2.233 0.668-4.803 0.668-7.429 0-0.099-0-0.198-0.001-0.297l0 0.015c0.001-0.092 0.001-0.201 0.001-0.31 0-2.626-0.243-5.196-0.708-7.687l0.040 0.258zM12.812 20.801v-9.591l8.352 4.803z"></path>
</symbol>
<symbol id="coroflot" viewBox="0 0 32 32">
<path style="" d="M10.429 1.173c3.254-1.171 6.894-1.221 10.181-0.15 2.922 0.947 5.55 2.776 7.452 5.187-0.976 0.975-1.954 1.949-2.926 2.928-0.35-0.443-0.699-0.888-1.103-1.284-1.643-1.686-3.811-2.853-6.124-3.288-1.861-0.35-3.81-0.247-5.618 0.319-1.698 0.526-3.269 1.453-4.556 2.679-1.429 1.354-2.509 3.075-3.096 4.954-0.586 1.859-0.691 3.866-0.305 5.776 0.319 1.6 0.986 3.127 1.935 4.453 0.88 1.234 2.002 2.293 3.284 3.102 1.31 0.828 2.788 1.388 4.318 1.637 1.748 0.278 3.561 0.167 5.255-0.355 2.21-0.669 4.202-2.024 5.653-3.819 0.125-0.147 0.23-0.31 0.361-0.452 0.971 0.98 1.949 1.953 2.924 2.929-1.992 2.522-4.777 4.408-7.862 5.312-2.74 0.81-5.701 0.853-8.463 0.128-2.873-0.748-5.518-2.338-7.532-4.518-2.128-2.278-3.551-5.204-4.020-8.287-0.28-1.832-0.244-3.714 0.12-5.531 0.553-2.794 1.894-5.425 3.82-7.523 1.719-1.884 3.902-3.341 6.304-4.199zM9.668 12.47c0.608-1.048 1.494-1.933 2.541-2.542 1.153 1.154 2.308 2.306 3.459 3.462 0.027 0.024 0.070 0.087 0.105 0.033 1.112-1.112 2.224-2.223 3.334-3.336 0.057-0.049 0.1-0.123 0.173-0.148 1.046 0.6 1.915 1.49 2.529 2.526-1.174 1.181-2.354 2.355-3.53 3.534 1.176 1.179 2.357 2.353 3.53 3.536-0.615 1.041-1.492 1.926-2.538 2.535-1.184-1.17-2.35-2.359-3.536-3.527-1.173 1.179-2.35 2.352-3.525 3.529-1.046-0.61-1.933-1.494-2.54-2.543 1.18-1.174 2.352-2.356 3.532-3.53-1.18-1.174-2.352-2.356-3.532-3.53z"></path>
</symbol>
<symbol id="mail" viewBox="0 0 32 32">
<path d="M28 5h-24c-2.209 0-4 1.792-4 4v13c0 2.209 1.791 4 4 4h24c2.209 0 4-1.791 4-4v-13c0-2.208-1.791-4-4-4zM2 10.25l6.999 5.25-6.999 5.25v-10.5zM30 22c0 1.104-0.898 2-2 2h-24c-1.103 0-2-0.896-2-2l7.832-5.875 4.368 3.277c0.533 0.398 1.166 0.6 1.8 0.6 0.633 0 1.266-0.201 1.799-0.6l4.369-3.277 7.832 5.875zM30 20.75l-7-5.25 7-5.25v10.5zM17.199 18.602c-0.349 0.262-0.763 0.4-1.199 0.4s-0.851-0.139-1.2-0.4l-12.8-9.602c0-1.103 0.897-2 2-2h24c1.102 0 2 0.897 2 2l-12.801 9.602z"></path>
</symbol>
<symbol id="logo" viewBox="0 0 15 32">
<path d="M7.96 0.008c-3.959 0.006-7.368 0.013-7.577 0.017l-0.383 0.009v2.909l5.109-0.007c2.823-0.004 5.095-0.003 5.079 0.004s-0.052 0.013-0.080 0.013c-0.033 0.001-0.061 0.012-0.079 0.032-0.020 0.025-0.036 0.029-0.076 0.023-0.028-0.004-0.047-0.003-0.042 0.004 0.009 0.015-0.028 0.029-0.080 0.029-0.023 0-0.044 0.010-0.049 0.022-0.004 0.015-0.028 0.022-0.065 0.022-0.036 0-0.060 0.007-0.065 0.022-0.004 0.013-0.026 0.022-0.058 0.022-0.028 0-0.055 0.007-0.060 0.015-0.004 0.009-0.035 0.015-0.067 0.015-0.038 0-0.055 0.006-0.052 0.019 0.001 0.012-0.020 0.019-0.067 0.022-0.038 0.003-0.065 0.010-0.061 0.017s-0.006 0.017-0.025 0.020c-0.019 0.004-0.052 0.012-0.077 0.016-0.023 0.004-0.063 0.013-0.087 0.017-0.023 0.004-0.049 0.017-0.055 0.028-0.007 0.012-0.036 0.020-0.067 0.020-0.036 0-0.060 0.007-0.065 0.022-0.004 0.013-0.026 0.022-0.058 0.022-0.028 0-0.055 0.007-0.060 0.015-0.004 0.009-0.035 0.015-0.067 0.015-0.041 0-0.057 0.006-0.057 0.022s-0.016 0.022-0.057 0.022c-0.036 0-0.060 0.007-0.065 0.022-0.004 0.015-0.028 0.022-0.067 0.022-0.032 0-0.058 0.007-0.058 0.015 0 0.009-0.023 0.015-0.051 0.015-0.032 0-0.055 0.009-0.060 0.022-0.006 0.015-0.029 0.022-0.065 0.022-0.041 0-0.057 0.006-0.057 0.022s-0.016 0.022-0.058 0.022c-0.032 0-0.058 0.007-0.058 0.015 0 0.009-0.026 0.015-0.058 0.015-0.042 0-0.058 0.006-0.058 0.022s-0.017 0.022-0.065 0.022c-0.051 0-0.063 0.004-0.057 0.022 0.007 0.017-0.003 0.022-0.045 0.022-0.029 0-0.063 0.010-0.074 0.022-0.013 0.012-0.042 0.022-0.065 0.022s-0.042 0.007-0.042 0.015c0 0.009-0.026 0.015-0.058 0.015s-0.058 0.006-0.058 0.013c0 0.009-0.029 0.019-0.065 0.025-0.036 0.004-0.065 0.015-0.065 0.022s-0.020 0.013-0.044 0.013c-0.026 0-0.048 0.009-0.052 0.022-0.006 0.013-0.028 0.022-0.058 0.022-0.035 0-0.049 0.007-0.049 0.022 0 0.016-0.016 0.022-0.058 0.022-0.039 0-0.057 0.006-0.054 0.019 0.001 0.010-0.017 0.019-0.048 0.022-0.028 0.003-0.057 0.015-0.063 0.026s-0.031 0.020-0.054 0.020c-0.025 0-0.044 0.007-0.044 0.015 0 0.009-0.023 0.015-0.051 0.015s-0.051 0.006-0.051 0.013-0.026 0.016-0.058 0.022c-0.033 0.004-0.057 0.015-0.052 0.022 0.010 0.016-0.025 0.031-0.073 0.031-0.020 0-0.032 0.006-0.028 0.015 0.006 0.009-0.015 0.015-0.048 0.015-0.038 0-0.061 0.007-0.067 0.022-0.004 0.013-0.026 0.022-0.051 0.022-0.023 0-0.045 0.009-0.051 0.022-0.004 0.013-0.026 0.022-0.052 0.022-0.023 0-0.044 0.007-0.044 0.015 0 0.009-0.022 0.015-0.049 0.015-0.031 0-0.052 0.009-0.058 0.022-0.004 0.013-0.026 0.022-0.058 0.022-0.031 0-0.052 0.009-0.058 0.022-0.004 0.013-0.026 0.022-0.052 0.022-0.023 0-0.044 0.007-0.044 0.015 0 0.009-0.026 0.015-0.058 0.015-0.042 0-0.058 0.006-0.058 0.022 0 0.015-0.015 0.022-0.049 0.022-0.031 0-0.052 0.009-0.058 0.022-0.004 0.013-0.026 0.022-0.052 0.022-0.023 0-0.044 0.007-0.044 0.015 0 0.009-0.023 0.015-0.051 0.015-0.035 0-0.051 0.007-0.051 0.022 0 0.016-0.016 0.022-0.058 0.022-0.039 0-0.057 0.006-0.055 0.019 0.003 0.010-0.016 0.019-0.049 0.022-0.031 0.003-0.055 0.010-0.055 0.019 0 0.007-0.020 0.013-0.044 0.013-0.026 0-0.048 0.009-0.052 0.022-0.006 0.013-0.028 0.022-0.058 0.022-0.035 0-0.049 0.007-0.049 0.022 0 0.016-0.016 0.022-0.060 0.022-0.035 0-0.055 0.006-0.049 0.015s-0.015 0.015-0.049 0.015c-0.047 0-0.057 0.004-0.051 0.022 0.007 0.017-0.004 0.022-0.051 0.022-0.044 0-0.060 0.006-0.060 0.022 0 0.015-0.015 0.022-0.042 0.022-0.023 0-0.049 0.010-0.060 0.022s-0.041 0.022-0.067 0.022c-0.028 0-0.049 0.007-0.049 0.015 0 0.009-0.020 0.015-0.044 0.015-0.026 0-0.048 0.009-0.052 0.022-0.006 0.013-0.028 0.022-0.058 0.022-0.028 0-0.049 0.007-0.049 0.015 0 0.009-0.023 0.015-0.051 0.015-0.035 0-0.051 0.007-0.051 0.020 0 0.026-0.048 0.044-0.087 0.031-0.022-0.007-0.026-0.004-0.020 0.013 0.006 0.016-0.003 0.025-0.033 0.031-0.022 0.004-0.052 0.015-0.065 0.023-0.015 0.007-0.045 0.013-0.068 0.013s-0.045 0.009-0.051 0.022c-0.004 0.013-0.026 0.022-0.052 0.022-0.023 0-0.044 0.007-0.044 0.015 0 0.009-0.017 0.015-0.039 0.015-0.023 0-0.054 0.010-0.068 0.022-0.016 0.012-0.048 0.022-0.071 0.022-0.022 0-0.038 0.006-0.033 0.013 0.010 0.016-0.025 0.031-0.071 0.031-0.017 0-0.036 0.010-0.042 0.022-0.004 0.013-0.026 0.022-0.051 0.022-0.023 0-0.048 0.007-0.052 0.015-0.004 0.009-0.032 0.015-0.060 0.015-0.032 0-0.048 0.006-0.047 0.019 0.003 0.010-0.016 0.019-0.049 0.022-0.036 0.003-0.055 0.012-0.055 0.026 0 0.013-0.016 0.020-0.051 0.020-0.028 0-0.051 0.007-0.051 0.015 0 0.009-0.026 0.015-0.060 0.015-0.032 0-0.055 0.006-0.051 0.013 0.010 0.015-0.023 0.031-0.064 0.031-0.015 0-0.029 0.010-0.035 0.022-0.004 0.013-0.026 0.022-0.052 0.022-0.023 0-0.044 0.007-0.044 0.015 0 0.009-0.026 0.015-0.058 0.015-0.042 0-0.058 0.006-0.058 0.022 0 0.015-0.015 0.022-0.049 0.022-0.031 0-0.052 0.009-0.058 0.022-0.004 0.013-0.028 0.022-0.060 0.022-0.028 0-0.051 0.007-0.051 0.015 0 0.009-0.019 0.015-0.044 0.015-0.029 0-0.044 0.007-0.044 0.022 0 0.016-0.016 0.022-0.058 0.022s-0.058 0.006-0.058 0.022-0.016 0.022-0.060 0.022c-0.035 0-0.055 0.006-0.049 0.015s-0.015 0.015-0.049 0.015c-0.044 0-0.060 0.006-0.060 0.022 0 0.015-0.016 0.022-0.051 0.022s-0.051 0.007-0.051 0.022-0.015 0.022-0.049 0.022c-0.031 0-0.052 0.009-0.058 0.022-0.004 0.012-0.025 0.022-0.045 0.022-0.022 0-0.048 0.010-0.060 0.022-0.013 0.012-0.042 0.022-0.065 0.022s-0.042 0.007-0.042 0.015c0 0.009-0.019 0.015-0.042 0.015-0.025 0-0.048 0.007-0.052 0.015-0.004 0.009-0.025 0.015-0.044 0.015-0.047 0-0.081 0.015-0.071 0.031 0.004 0.007-0.016 0.013-0.044 0.013-0.036 0-0.052 0.007-0.052 0.020 0 0.026-0.048 0.042-0.087 0.031-0.020-0.006-0.029-0.003-0.026 0.010 0.003 0.012-0.012 0.020-0.038 0.023-0.023 0.003-0.051 0.015-0.063 0.026s-0.039 0.020-0.063 0.020c-0.023 0-0.044 0.010-0.049 0.022-0.004 0.013-0.028 0.022-0.060 0.022-0.028 0-0.051 0.007-0.051 0.015 0 0.009-0.023 0.015-0.051 0.015s-0.051 0.006-0.051 0.013-0.026 0.017-0.058 0.023c-0.032 0.006-0.055 0.016-0.049 0.023 0.004 0.007-0.015 0.013-0.042 0.013-0.032 0-0.054 0.009-0.060 0.022-0.004 0.013-0.026 0.022-0.051 0.022-0.023 0-0.045 0.009-0.051 0.022-0.004 0.013-0.028 0.022-0.060 0.022-0.033 0-0.049 0.006-0.048 0.019 0.003 0.010-0.016 0.019-0.051 0.022-0.029 0.003-0.051 0.010-0.047 0.019 0.006 0.007-0.017 0.013-0.049 0.013-0.044 0-0.060 0.006-0.060 0.022 0 0.015-0.015 0.022-0.044 0.022h-0.044v1.214c0 1.070 0.003 1.214 0.022 1.214 0.012 0 0.022 0.010 0.022 0.022 0 0.015 0.015 0.022 0.049 0.022 0.028 0 0.055 0.007 0.060 0.015 0.004 0.009 0.028 0.015 0.052 0.015 0.028 0 0.042 0.007 0.042 0.022 0 0.016 0.016 0.022 0.058 0.022s0.058 0.006 0.058 0.022c0 0.015 0.016 0.022 0.051 0.022 0.028 0 0.051 0.007 0.051 0.015 0 0.009 0.026 0.015 0.058 0.015 0.042 0 0.058 0.006 0.058 0.022 0 0.015 0.016 0.022 0.051 0.022s0.051 0.007 0.051 0.022c0 0.016 0.016 0.022 0.058 0.022 0.032 0 0.058 0.007 0.058 0.015 0 0.009 0.020 0.015 0.045 0.015 0.035 0 0.044 0.006 0.036 0.022-0.006 0.017 0.004 0.022 0.049 0.022 0.057 0 0.089 0.020 0.055 0.033-0.010 0.004 0.013 0.009 0.051 0.009 0.042 0.001 0.067 0.007 0.061 0.016s0.015 0.015 0.049 0.015c0.044 0 0.060 0.006 0.060 0.022 0 0.015 0.016 0.022 0.051 0.022s0.051 0.007 0.051 0.022 0.016 0.022 0.051 0.022c0.028 0 0.051 0.006 0.051 0.013 0 0.009 0.025 0.016 0.055 0.019 0.033 0.003 0.052 0.012 0.049 0.023-0.001 0.012 0.016 0.017 0.055 0.017 0.042 0 0.058 0.006 0.058 0.022s0.016 0.022 0.060 0.022c0.035 0 0.055 0.006 0.049 0.015s0.015 0.015 0.049 0.015c0.044 0 0.060 0.006 0.060 0.022 0 0.015 0.015 0.022 0.044 0.022 0.026 0 0.048 0.009 0.052 0.022 0.006 0.013 0.028 0.022 0.058 0.022 0.028 0 0.049 0.007 0.049 0.015 0 0.009 0.023 0.015 0.051 0.015 0.035 0 0.051 0.007 0.051 0.022s0.016 0.022 0.051 0.022 0.051 0.007 0.051 0.022c0 0.016 0.016 0.022 0.058 0.022 0.032 0 0.058 0.007 0.058 0.015 0 0.009 0.020 0.015 0.044 0.015 0.026 0 0.048 0.009 0.052 0.022 0.006 0.013 0.028 0.022 0.051 0.022 0.025 0 0.047 0.009 0.051 0.022 0.006 0.015 0.029 0.022 0.067 0.022 0.033 0 0.054 0.006 0.048 0.015s0.012 0.015 0.044 0.015 0.055 0.009 0.060 0.022c0.006 0.013 0.028 0.022 0.058 0.022 0.035 0 0.049 0.007 0.049 0.022 0 0.016 0.016 0.022 0.060 0.022 0.035 0 0.055 0.006 0.049 0.015s0.012 0.015 0.044 0.015 0.055 0.009 0.060 0.022c0.006 0.012 0.026 0.022 0.049 0.022 0.022 0 0.048 0.010 0.058 0.022s0.038 0.022 0.061 0.022c0.025 0 0.039 0.006 0.033 0.015-0.004 0.009 0.007 0.015 0.028 0.015 0.048 0 0.083 0.015 0.073 0.031-0.004 0.007 0.019 0.013 0.051 0.013 0.044 0 0.060 0.006 0.060 0.022s0.016 0.022 0.058 0.022c0.032 0 0.058 0.007 0.058 0.015 0 0.009 0.020 0.015 0.044 0.015 0.026 0 0.048 0.009 0.052 0.022 0.006 0.013 0.028 0.022 0.058 0.022 0.035 0 0.049 0.007 0.049 0.022s0.016 0.022 0.051 0.022c0.028 0 0.051 0.006 0.051 0.013s0.026 0.016 0.058 0.022c0.033 0.006 0.055 0.016 0.051 0.023-0.006 0.009 0.015 0.015 0.049 0.015 0.044 0 0.060 0.006 0.060 0.022s0.016 0.022 0.058 0.022c0.032 0 0.058 0.007 0.058 0.015 0 0.009 0.019 0.015 0.044 0.015 0.023 0 0.048 0.009 0.054 0.020s0.032 0.023 0.055 0.026c0.025 0.003 0.042 0.012 0.039 0.023-0.001 0.012 0.015 0.017 0.049 0.017 0.028 0 0.061 0.010 0.073 0.022 0.013 0.012 0.042 0.022 0.065 0.022 0.026 0 0.041 0.006 0.035 0.015s0.012 0.015 0.042 0.015c0.029 0 0.052 0.007 0.052 0.015 0 0.009 0.020 0.015 0.044 0.015 0.026 0 0.048 0.009 0.052 0.022 0.006 0.013 0.028 0.022 0.058 0.022 0.026 0 0.054 0.009 0.060 0.020s0.032 0.023 0.055 0.026c0.025 0.003 0.042 0.012 0.039 0.023-0.001 0.012 0.017 0.017 0.063 0.017 0.048 0 0.065 0.006 0.065 0.022 0 0.015 0.016 0.022 0.051 0.022 0.028 0 0.051 0.007 0.051 0.015 0 0.009 0.019 0.015 0.042 0.015s0.049 0.010 0.061 0.023c0.012 0.013 0.032 0.020 0.054 0.016 0.020-0.004 0.038 0.001 0.042 0.013s0.029 0.020 0.057 0.020c0.032 0 0.054 0.009 0.058 0.022 0.006 0.013 0.028 0.022 0.051 0.022s0.047 0.009 0.051 0.019c0.004 0.013 0.023 0.017 0.051 0.013 0.035-0.006 0.045 0 0.052 0.025 0.006 0.023 0.019 0.031 0.057 0.031 0.028 0 0.049 0.007 0.049 0.015 0 0.009 0.019 0.015 0.041 0.015 0.023 0 0.054 0.010 0.070 0.022 0.015 0.012 0.045 0.022 0.068 0.022 0.022 0 0.039 0.006 0.039 0.013 0 0.009 0.022 0.016 0.048 0.019 0.031 0.003 0.047 0.012 0.045 0.026-0.001 0.017 0.012 0.020 0.055 0.017 0.041-0.004 0.055 0 0.055 0.015 0 0.016 0.013 0.019 0.045 0.015 0.035-0.006 0.045 0 0.052 0.025 0.006 0.025 0.019 0.031 0.064 0.031 0.032 0 0.057 0.007 0.057 0.015 0 0.009 0.019 0.015 0.042 0.015s0.052 0.010 0.065 0.022c0.012 0.012 0.038 0.022 0.058 0.022s0.038 0.007 0.038 0.015c0 0.009 0.023 0.015 0.051 0.015 0.036 0 0.055 0.007 0.063 0.026 0.006 0.015 0.028 0.026 0.052 0.028 0.023 0.001 0.047 0.010 0.052 0.019 0.006 0.010 0.023 0.016 0.038 0.015 0.049-0.006 0.064 0 0.064 0.022 0 0.016 0.016 0.022 0.060 0.022 0.035 0 0.055 0.006 0.049 0.015s0.012 0.015 0.041 0.015c0.028 0 0.058 0.010 0.068 0.022s0.036 0.022 0.060 0.022c0.023 0 0.042 0.007 0.042 0.015 0 0.009 0.015 0.015 0.033 0.015 0.044 0 0.074 0.022 0.061 0.044-0.007 0.013 0.003 0.016 0.044 0.010 0.036-0.006 0.055-0.001 0.061 0.013 0.004 0.012 0.028 0.020 0.057 0.020 0.032 0 0.054 0.009 0.058 0.022 0.006 0.013 0.028 0.022 0.060 0.022 0.028 0 0.060 0.010 0.071 0.022 0.013 0.012 0.038 0.022 0.057 0.022s0.039 0.007 0.044 0.015c0.004 0.009 0.032 0.015 0.060 0.015 0.035 0 0.049 0.006 0.049 0.023 0 0.016 0.012 0.022 0.041 0.020 0.067-0.004 0.079-0.001 0.070 0.022-0.006 0.017 0.004 0.022 0.049 0.022 0.032 0 0.058 0.007 0.058 0.015 0 0.009 0.023 0.015 0.051 0.015 0.032 0 0.055 0.009 0.060 0.022 0.006 0.013 0.028 0.022 0.057 0.022 0.026 0 0.055 0.010 0.065 0.022s0.036 0.022 0.060 0.022c0.022 0 0.045 0.007 0.049 0.015 0.004 0.009 0.032 0.015 0.060 0.015 0.035 0 0.049 0.007 0.049 0.022s0.016 0.022 0.051 0.022 0.051 0.007 0.051 0.022c0 0.016 0.017 0.022 0.067 0.022 0.039 0 0.063 0.006 0.057 0.015s0.015 0.015 0.049 0.015c0.044 0 0.060 0.006 0.060 0.022s0.016 0.022 0.057 0.022c0.036 0 0.060 0.007 0.065 0.022 0.004 0.015 0.028 0.022 0.067 0.022 0.033 0 0.057 0.006 0.051 0.013-0.004 0.009 0.017 0.016 0.047 0.019 0.035 0.003 0.054 0.012 0.051 0.023-0.001 0.012 0.016 0.017 0.055 0.017 0.042 0 0.058 0.006 0.058 0.022s0.017 0.022 0.067 0.022c0.039 0 0.063 0.006 0.057 0.015s0.015 0.015 0.051 0.015c0.039 0 0.063 0.007 0.067 0.022 0.006 0.013 0.028 0.022 0.058 0.022 0.035 0 0.049 0.007 0.049 0.022 0 0.016 0.017 0.022 0.067 0.022 0.039 0 0.063 0.006 0.057 0.015s0.015 0.015 0.049 0.015c0.042 0 0.060 0.006 0.060 0.020s0.020 0.023 0.063 0.026c0.035 0.003 0.060 0.012 0.058 0.020-0.001 0.010 0.013 0.015 0.039 0.012 0.023-0.003 0.051 0.004 0.064 0.016 0.012 0.012 0.048 0.022 0.080 0.022 0.044 0 0.060 0.006 0.060 0.022s0.016 0.022 0.057 0.022c0.036 0 0.060 0.007 0.065 0.022 0.004 0.015 0.028 0.022 0.067 0.022 0.036 0 0.057 0.006 0.051 0.015s0.015 0.015 0.049 0.015c0.044 0 0.060 0.006 0.060 0.022s0.017 0.022 0.065 0.022 0.065 0.006 0.065 0.022 0.016 0.022 0.058 0.022c0.032 0 0.058 0.006 0.058 0.013s0.028 0.016 0.063 0.020c0.255 0.031 0.093 0.036-1.018 0.038-0.778 0.001-1.182 0.006-1.182 0.016 0 0.009-0.195 0.015-0.556 0.015-1.241 0-3.719 0.020-3.713 0.031 0.004 0.006-0.003 0.015-0.016 0.019s-0.977 0.009-2.144 0.009c-1.872 0-2.122 0.003-2.129 0.022-0.006 0.017-0.042 0.022-0.198 0.022h-0.189v7.519c0 6.674 0.003 7.519 0.022 7.519 0.015 0 0.022 0.015 0.022 0.044 0 0.025 0.007 0.044 0.015 0.044 0.009 0 0.015 0.023 0.015 0.051 0 0.035 0.007 0.051 0.022 0.051s0.022 0.015 0.022 0.044c0 0.028 0.007 0.042 0.019 0.039 0.010-0.001 0.019 0.016 0.022 0.045 0.003 0.025 0.010 0.047 0.019 0.047 0.007 0 0.013 0.010 0.013 0.022s0.009 0.020 0.017 0.017c0.010-0.001 0.020 0.012 0.023 0.031s0.015 0.038 0.026 0.042c0.012 0.004 0.020 0.023 0.020 0.042s0.007 0.035 0.015 0.035c0.009 0 0.015 0.013 0.015 0.031s0.012 0.033 0.029 0.038c0.022 0.006 0.026 0.016 0.020 0.042-0.007 0.028-0.004 0.033 0.015 0.026 0.017-0.006 0.023 0 0.023 0.022 0 0.017 0.009 0.031 0.022 0.031 0.015 0 0.022 0.015 0.022 0.041 0 0.023 0.012 0.049 0.029 0.061 0.015 0.012 0.032 0.039 0.036 0.061 0.006 0.022 0.017 0.041 0.028 0.041s0.031 0.025 0.047 0.055c0.015 0.029 0.032 0.057 0.039 0.058 0.006 0.003 0.010 0.015 0.010 0.025s0.010 0.022 0.022 0.028c0.012 0.004 0.022 0.022 0.022 0.038s0.007 0.029 0.016 0.029c0.020 0 0.057 0.036 0.057 0.057 0 0.009 0.006 0.016 0.013 0.016s0.017 0.016 0.022 0.036c0.006 0.020 0.019 0.036 0.031 0.036s0.022 0.010 0.022 0.022 0.007 0.022 0.015 0.022c0.009 0 0.015 0.009 0.015 0.019s0.012 0.029 0.026 0.042c0.033 0.033 0.061 0.067 0.061 0.077 0 0.015 0.041 0.051 0.057 0.051 0.009 0 0.016 0.010 0.016 0.022 0 0.013 0.010 0.026 0.022 0.031 0.012 0.006 0.022 0.015 0.022 0.023 0 0.019 0.038 0.055 0.057 0.055 0.015 0 0.023 0.031 0.017 0.063 0 0.006 0.007 0.010 0.017 0.010 0.022 0 0.087 0.067 0.102 0.106 0.004 0.013 0.016 0.025 0.025 0.025 0.022 0 0.058 0.036 0.058 0.057 0 0.009 0.007 0.016 0.016 0.016 0.020 0 0.1 0.080 0.1 0.1 0 0.009 0.010 0.016 0.022 0.016s0.022 0.010 0.022 0.022 0.010 0.022 0.022 0.022 0.022 0.007 0.022 0.015c0 0.009 0.010 0.015 0.022 0.015s0.022 0.006 0.022 0.015c0 0.022 0.084 0.102 0.109 0.102 0.012 0 0.022 0.010 0.022 0.022s0.010 0.022 0.022 0.022 0.022 0.010 0.022 0.023c0 0.012 0.007 0.017 0.015 0.013 0.009-0.004 0.019 0.001 0.023 0.013 0.004 0.013 0.017 0.023 0.029 0.023s0.020 0.010 0.020 0.022 0.010 0.022 0.022 0.022 0.022 0.010 0.022 0.022 0.013 0.022 0.031 0.022c0.016 0 0.025 0.007 0.020 0.015-0.004 0.009 0.004 0.015 0.020 0.015 0.017 0 0.031 0.010 0.031 0.022s0.010 0.022 0.022 0.022 0.022 0.010 0.022 0.022 0.013 0.022 0.031 0.022c0.016 0 0.025 0.007 0.020 0.015-0.004 0.009 0.004 0.015 0.019 0.015 0.016 0 0.032 0.010 0.038 0.022 0.004 0.012 0.015 0.022 0.023 0.022s0.031 0.016 0.048 0.035c0.017 0.019 0.045 0.038 0.061 0.041s0.028 0.015 0.026 0.023c-0.003 0.010 0.009 0.017 0.023 0.017s0.031 0.010 0.036 0.022c0.004 0.012 0.017 0.022 0.031 0.022 0.012 0 0.022 0.007 0.022 0.015 0 0.009 0.013 0.015 0.029 0.015s0.029 0.010 0.029 0.022 0.013 0.022 0.028 0.022 0.031 0.010 0.036 0.022c0.004 0.012 0.017 0.022 0.031 0.022 0.012 0 0.022 0.007 0.022 0.015 0 0.009 0.013 0.015 0.029 0.015s0.029 0.010 0.029 0.022 0.013 0.022 0.029 0.022 0.029 0.010 0.029 0.022c0 0.013 0.013 0.022 0.036 0.022 0.020 0 0.036 0.007 0.036 0.015 0 0.009 0.013 0.015 0.029 0.015s0.033 0.010 0.038 0.022c0.006 0.012 0.022 0.022 0.036 0.022 0.016 0 0.032 0.010 0.036 0.022 0.006 0.012 0.022 0.022 0.036 0.022s0.028 0.007 0.028 0.015c0 0.009 0.013 0.015 0.029 0.015s0.033 0.010 0.038 0.022c0.006 0.012 0.020 0.022 0.035 0.022 0.016 0 0.032 0.007 0.036 0.015 0.004 0.009 0.022 0.015 0.038 0.015s0.032 0.010 0.036 0.022c0.006 0.012 0.022 0.022 0.036 0.022 0.016 0 0.032 0.010 0.036 0.022 0.006 0.012 0.020 0.022 0.035 0.022s0.033 0.010 0.044 0.022c0.010 0.012 0.031 0.022 0.045 0.022 0.016 0 0.028 0.007 0.028 0.015 0 0.009 0.016 0.015 0.036 0.015s0.041 0.010 0.045 0.022c0.006 0.012 0.025 0.022 0.042 0.022 0.019 0 0.039 0.007 0.044 0.015s0.025 0.015 0.045 0.015c0.020 0 0.039 0.010 0.044 0.022 0.006 0.012 0.025 0.022 0.044 0.022 0.020 0 0.039 0.010 0.044 0.022 0.006 0.012 0.020 0.022 0.035 0.022 0.041 0 0.074 0.016 0.064 0.031-0.004 0.007 0.015 0.013 0.042 0.013 0.033 0 0.054 0.009 0.060 0.023 0.006 0.016 0.020 0.022 0.047 0.016 0.023-0.004 0.041 0.001 0.045 0.013s0.026 0.020 0.048 0.020c0.023 0 0.047 0.007 0.051 0.015 0.004 0.009 0.029 0.015 0.052 0.015 0.025 0 0.047 0.009 0.051 0.022 0.009 0.020 0.407 0.022 3.563 0.022 3.128 0 3.555-0.003 3.555-0.022 0-0.015 0.016-0.022 0.049-0.022 0.031 0 0.052-0.009 0.058-0.022 0.004-0.013 0.028-0.022 0.060-0.022 0.028 0 0.051-0.006 0.051-0.015 0-0.007 0.023-0.015 0.051-0.015 0.035 0 0.051-0.007 0.051-0.022 0-0.016 0.016-0.022 0.052-0.022 0.029 0 0.048-0.006 0.042-0.013-0.004-0.009 0.015-0.019 0.042-0.025 0.029-0.004 0.049-0.016 0.048-0.025s0.013-0.019 0.033-0.022c0.020-0.003 0.042-0.015 0.048-0.026s0.031-0.020 0.054-0.020c0.025 0 0.044-0.006 0.044-0.015 0-0.007 0.016-0.015 0.035-0.015s0.038-0.010 0.044-0.022c0.004-0.012 0.025-0.022 0.045-0.022s0.036-0.006 0.036-0.015c0-0.007 0.016-0.015 0.035-0.015s0.038-0.010 0.044-0.022c0.004-0.012 0.023-0.022 0.044-0.022 0.019 0 0.038-0.010 0.044-0.022 0.004-0.012 0.017-0.022 0.029-0.022 0.010 0 0.023-0.010 0.029-0.022 0.004-0.012 0.025-0.022 0.045-0.022s0.036-0.006 0.036-0.015c0-0.007 0.016-0.015 0.036-0.015 0.023 0 0.036-0.009 0.036-0.022 0-0.012 0.013-0.022 0.028-0.022 0.016 0 0.031-0.004 0.033-0.010 0.007-0.017 0.097-0.063 0.122-0.063 0.013 0 0.017-0.006 0.013-0.015-0.004-0.007 0.009-0.017 0.029-0.023 0.020-0.004 0.036-0.015 0.036-0.022s0.017-0.013 0.038-0.013c0.022 0 0.033-0.006 0.028-0.016-0.006-0.009 0.003-0.019 0.020-0.023s0.031-0.017 0.031-0.028c0-0.012 0.015-0.020 0.036-0.020 0.023 0 0.036-0.009 0.036-0.022 0-0.012 0.010-0.022 0.022-0.022s0.022-0.006 0.022-0.015c0-0.007 0.016-0.015 0.036-0.015 0.023 0 0.036-0.009 0.036-0.022 0-0.012 0.010-0.022 0.022-0.022s0.022-0.006 0.022-0.015c0-0.007 0.013-0.015 0.029-0.015s0.033-0.010 0.038-0.022c0.006-0.012 0.017-0.022 0.029-0.022s0.020-0.010 0.020-0.022 0.010-0.022 0.022-0.022 0.026-0.010 0.031-0.022c0.006-0.012 0.022-0.022 0.036-0.022s0.028-0.010 0.028-0.022 0.010-0.022 0.022-0.022 0.022-0.006 0.022-0.015c0-0.007 0.009-0.015 0.020-0.015s0.023-0.010 0.029-0.022c0.004-0.012 0.017-0.022 0.031-0.022 0.012 0 0.022-0.006 0.022-0.015 0-0.007 0.010-0.015 0.022-0.015s0.022-0.010 0.022-0.022 0.010-0.022 0.022-0.022 0.022-0.010 0.022-0.022 0.013-0.022 0.031-0.022c0.016 0 0.025-0.006 0.020-0.015-0.004-0.007 0-0.015 0.012-0.015s0.025-0.013 0.029-0.029c0.004-0.016 0.017-0.029 0.031-0.029s0.023-0.006 0.023-0.015c0-0.007 0.010-0.015 0.022-0.015s0.022-0.006 0.022-0.015c0-0.007 0.010-0.015 0.022-0.015s0.022-0.013 0.022-0.029 0.010-0.029 0.022-0.029 0.022-0.006 0.022-0.015c0-0.007 0.010-0.015 0.022-0.015s0.022-0.007 0.022-0.016c0-0.019 0.080-0.1 0.097-0.1 0.007 0 0.023-0.019 0.036-0.041s0.041-0.049 0.061-0.061c0.020-0.010 0.038-0.025 0.038-0.032 0-0.019 0.081-0.099 0.1-0.099 0.009 0 0.016-0.010 0.016-0.022s0.006-0.022 0.012-0.022c0.007 0 0.022-0.016 0.032-0.036s0.028-0.036 0.038-0.036c0.010 0 0.026-0.013 0.035-0.029s0.010-0.029 0.004-0.029c-0.006 0 0.004-0.013 0.022-0.029s0.038-0.029 0.045-0.029c0.009 0 0.012-0.010 0.007-0.022-0.006-0.013 0-0.022 0.015-0.022 0.013 0 0.023-0.007 0.023-0.016 0-0.007 0.019-0.035 0.044-0.061 0.023-0.026 0.044-0.055 0.044-0.064 0-0.010 0.010-0.019 0.023-0.019 0.012 0 0.019-0.006 0.013-0.013-0.004-0.009 0-0.019 0.010-0.026 0.019-0.012 0.048-0.052 0.065-0.092 0.006-0.012 0.025-0.035 0.044-0.051s0.033-0.041 0.033-0.055c0-0.013 0.010-0.025 0.022-0.025s0.022-0.013 0.022-0.028c0-0.015 0.010-0.031 0.022-0.036 0.012-0.004 0.022-0.017 0.022-0.031 0-0.012 0.007-0.022 0.015-0.022 0.009 0 0.015-0.013 0.015-0.029s0.010-0.029 0.022-0.029 0.020-0.004 0.020-0.010c-0.004-0.031 0.004-0.048 0.025-0.048 0.015 0 0.020-0.009 0.016-0.020s0.001-0.029 0.013-0.038c0.012-0.010 0.020-0.031 0.020-0.045 0-0.016 0.010-0.028 0.022-0.028 0.013 0 0.022-0.013 0.022-0.036 0-0.020 0.007-0.036 0.015-0.036 0.010 0 0.015-1.127 0.015-3.352 0-2.64-0.004-3.351-0.017-3.348-0.010 0.001-0.020-0.012-0.023-0.029-0.003-0.019-0.015-0.033-0.026-0.033s-0.020-0.015-0.020-0.036c0-0.020-0.006-0.036-0.015-0.036-0.007 0-0.015-0.010-0.015-0.022s-0.010-0.022-0.022-0.022c-0.015 0-0.022-0.015-0.022-0.044s-0.007-0.044-0.022-0.044c-0.012 0-0.022-0.013-0.022-0.031 0-0.016-0.006-0.025-0.015-0.020-0.007 0.004-0.015-0.004-0.015-0.022 0-0.016-0.010-0.033-0.022-0.038-0.012-0.006-0.022-0.015-0.022-0.022 0-0.009-0.013-0.028-0.029-0.045-0.015-0.017-0.025-0.036-0.020-0.044 0.004-0.006-0.003-0.012-0.016-0.012-0.016 0-0.022-0.007-0.016-0.022 0.004-0.013 0-0.022-0.013-0.022-0.012 0-0.022-0.010-0.022-0.022s-0.016-0.036-0.036-0.057-0.036-0.042-0.036-0.048c0-0.007-0.013-0.023-0.029-0.038-0.016-0.013-0.029-0.035-0.029-0.047s-0.009-0.022-0.020-0.022c-0.012 0-0.025-0.016-0.029-0.036-0.006-0.020-0.019-0.036-0.031-0.036s-0.022-0.010-0.022-0.022-0.009-0.022-0.020-0.022c-0.012 0-0.025-0.016-0.029-0.036-0.006-0.020-0.016-0.036-0.023-0.036-0.009 0-0.015-0.010-0.015-0.022s-0.010-0.022-0.022-0.022-0.022-0.007-0.022-0.016c0-0.020-0.038-0.057-0.058-0.057-0.010 0-0.015-0.010-0.009-0.022 0.004-0.013 0-0.022-0.013-0.022-0.012 0-0.022-0.010-0.022-0.022s-0.007-0.022-0.016-0.022c-0.020 0-0.086-0.068-0.086-0.089 0-0.023-0.039-0.057-0.064-0.057-0.013 0-0.023-0.010-0.023-0.022s-0.006-0.022-0.015-0.022c-0.007 0-0.015-0.010-0.015-0.022s-0.006-0.022-0.015-0.022c-0.022 0-0.073-0.048-0.064-0.061 0.004-0.006-0.003-0.012-0.015-0.012-0.013 0-0.023-0.010-0.023-0.022s-0.012-0.022-0.025-0.022c-0.015 0-0.049-0.026-0.077-0.058s-0.057-0.058-0.063-0.058c-0.017 0-0.054-0.039-0.054-0.057 0-0.009-0.013-0.016-0.029-0.016s-0.029-0.007-0.029-0.016c0-0.020-0.036-0.057-0.057-0.057-0.009 0-0.016-0.010-0.016-0.022s-0.012-0.022-0.025-0.022c-0.015 0-0.042-0.017-0.061-0.036-0.019-0.020-0.042-0.036-0.054-0.036s-0.020-0.006-0.020-0.015c0-0.022-0.055-0.073-0.080-0.073-0.012 0-0.022-0.006-0.022-0.015 0-0.007-0.010-0.015-0.022-0.015s-0.022-0.009-0.022-0.020c0-0.010-0.013-0.023-0.031-0.028s-0.026-0.015-0.020-0.023c0.007-0.015-0.020-0.023-0.054-0.017-0.007 0-0.012-0.009-0.012-0.022 0-0.015-0.009-0.020-0.022-0.015-0.013 0.004-0.022 0-0.022-0.013 0-0.010-0.013-0.022-0.029-0.025-0.017-0.003-0.028-0.010-0.026-0.016 0.003-0.007-0.023-0.025-0.057-0.041-0.035-0.016-0.063-0.035-0.063-0.042 0-0.009-0.010-0.015-0.022-0.015-0.013 0-0.026-0.009-0.031-0.020s-0.023-0.025-0.044-0.029c-0.019-0.006-0.035-0.016-0.035-0.023 0-0.009-0.010-0.015-0.022-0.015s-0.022-0.006-0.022-0.015c0-0.007-0.013-0.015-0.029-0.015s-0.033-0.010-0.038-0.022c-0.006-0.012-0.022-0.022-0.036-0.022s-0.028-0.006-0.028-0.013-0.015-0.016-0.032-0.019c-0.020-0.003-0.033-0.015-0.032-0.028 0.001-0.016-0.007-0.020-0.032-0.016-0.022 0.004-0.038-0.003-0.048-0.025-0.010-0.017-0.026-0.031-0.038-0.031s-0.022-0.006-0.022-0.015c0-0.007-0.016-0.015-0.035-0.015s-0.038-0.010-0.044-0.022c-0.004-0.012-0.022-0.022-0.038-0.022s-0.029-0.006-0.029-0.015c0-0.007-0.013-0.015-0.028-0.015-0.016 0-0.032-0.006-0.036-0.013-0.004-0.006-0.029-0.016-0.054-0.022-0.031-0.006-0.042-0.016-0.038-0.028 0.006-0.015-0.003-0.019-0.026-0.013-0.023 0.004-0.039-0.003-0.049-0.025-0.010-0.017-0.031-0.031-0.045-0.031-0.016 0-0.029-0.006-0.029-0.015 0-0.007-0.019-0.015-0.042-0.015s-0.045-0.009-0.051-0.022c-0.004-0.012-0.025-0.022-0.045-0.022s-0.036-0.006-0.036-0.015c0-0.007-0.016-0.015-0.035-0.015s-0.042-0.010-0.052-0.022c-0.010-0.013-0.022-0.019-0.026-0.016-0.013 0.013-0.063-0.022-0.052-0.038 0.006-0.010-0.006-0.012-0.036-0.004-0.033 0.007-0.047 0.004-0.054-0.013-0.006-0.015-0.026-0.023-0.051-0.023s-0.047-0.009-0.051-0.022c-0.006-0.013-0.028-0.022-0.057-0.022s-0.051-0.009-0.057-0.022c-0.004-0.013-0.026-0.022-0.052-0.022-0.023 0-0.044-0.006-0.044-0.015 0-0.007-0.019-0.015-0.042-0.015s-0.049-0.010-0.060-0.022c-0.010-0.012-0.041-0.022-0.067-0.022-0.035 0-0.049-0.007-0.049-0.022 0-0.016-0.016-0.022-0.057-0.022-0.032 0-0.061-0.006-0.065-0.013-0.004-0.006-0.035-0.016-0.067-0.022-0.032-0.004-0.058-0.016-0.058-0.023 0-0.009-0.026-0.015-0.057-0.015-0.036 0-0.060-0.007-0.065-0.022s-0.029-0.022-0.074-0.022c-0.036 0-0.065-0.006-0.065-0.015 0-0.007-0.033-0.015-0.074-0.015-0.060 0-0.073-0.004-0.065-0.022 0.006-0.017-0.007-0.022-0.073-0.022-0.067 0-0.080-0.004-0.073-0.022 0.006-0.017-0.009-0.022-0.086-0.022-0.054 0-0.095-0.006-0.095-0.015 0-0.007-0.032-0.015-0.071-0.015-0.045 0-0.080-0.009-0.095-0.022-0.015-0.015-0.051-0.022-0.109-0.022-0.048 0-0.092-0.007-0.097-0.016-0.015-0.025-4.235-0.013-4.244 0.012-0.006 0.013-0.038 0.019-0.096 0.019-0.055 0-0.086 0.006-0.080 0.015s-0.026 0.015-0.084 0.015c-0.070 0-0.096 0.006-0.103 0.022-0.006 0.016-0.031 0.022-0.089 0.022-0.045 0-0.079 0.006-0.074 0.013 0.010 0.016-0.039 0.031-0.103 0.031-0.026 0-0.048 0.007-0.048 0.015 0 0.009-0.029 0.015-0.065 0.015-0.048 0-0.065 0.006-0.065 0.022s-0.017 0.022-0.064 0.022c-0.044 0-0.067 0.007-0.073 0.022-0.004 0.013-0.028 0.022-0.060 0.022-0.029 0-0.063 0.010-0.074 0.022-0.015 0.015-0.038 0.019-0.065 0.015-0.031-0.006-0.042-0.001-0.042 0.015s-0.016 0.022-0.058 0.022-0.058 0.006-0.058 0.022c0 0.015-0.016 0.022-0.051 0.022-0.028 0-0.051 0.007-0.051 0.015 0 0.009-0.023 0.015-0.051 0.015-0.032 0-0.055 0.009-0.060 0.022-0.006 0.013-0.028 0.022-0.058 0.022-0.035 0-0.049 0.007-0.049 0.022 0 0.016-0.016 0.022-0.058 0.022-0.039 0-0.057 0.006-0.054 0.019 0.001 0.010-0.015 0.017-0.044 0.017-0.025 0-0.042 0.004-0.038 0.012 0.009 0.013-0.055 0.038-0.079 0.029-0.010-0.004-0.019 0.003-0.019 0.016s-0.012 0.023-0.028 0.023c-0.016 0-0.038 0.010-0.051 0.022-0.012 0.012-0.038 0.022-0.058 0.022s-0.038 0.007-0.038 0.015c0 0.009-0.013 0.015-0.028 0.015-0.016 0-0.038 0.010-0.051 0.022-0.012 0.012-0.035 0.022-0.051 0.022-0.017 0-0.031 0.007-0.031 0.015 0 0.009-0.016 0.015-0.036 0.015-0.022 0-0.036 0.009-0.036 0.020 0 0.023-0.049 0.045-0.073 0.031-0.007-0.004-0.015 0.001-0.015 0.013 0 0.013-0.016 0.026-0.036 0.032-0.020 0.004-0.036 0.015-0.036 0.022s-0.016 0.013-0.036 0.013c-0.023 0-0.036 0.009-0.036 0.022s-0.015 0.022-0.038 0.022c-0.020 0-0.033 0.006-0.028 0.015 0.004 0.009-0.004 0.015-0.019 0.015-0.016 0-0.036 0.010-0.047 0.022s-0.033 0.022-0.054 0.022c-0.022 0-0.032 0.006-0.026 0.016 0.006 0.009-0.003 0.019-0.019 0.023s-0.033 0.016-0.038 0.028c-0.004 0.012-0.022 0.020-0.038 0.020s-0.029 0.007-0.029 0.015c0 0.009-0.013 0.015-0.029 0.015s-0.029 0.010-0.029 0.022-0.013 0.022-0.028 0.022-0.031 0.010-0.036 0.022c-0.004 0.012-0.022 0.022-0.038 0.022s-0.029 0.007-0.029 0.015c0 0.009-0.010 0.015-0.022 0.015s-0.022 0.010-0.022 0.022c0 0.013-0.013 0.022-0.036 0.022-0.020 0-0.035 0.007-0.032 0.017 0.001 0.010-0.012 0.020-0.029 0.023-0.019 0.003-0.033 0.012-0.033 0.019s-0.013 0.013-0.029 0.013c-0.019 0-0.026 0.007-0.020 0.022s0 0.022-0.022 0.022c-0.017 0-0.031 0.009-0.031 0.022 0 0.012-0.013 0.022-0.029 0.022s-0.029 0.007-0.029 0.015c0 0.009-0.013 0.015-0.031 0.015s-0.025 0.006-0.020 0.016c0.006 0.009-0.003 0.019-0.020 0.023s-0.031 0.017-0.031 0.028c0 0.012-0.007 0.020-0.016 0.020s-0.026 0.012-0.039 0.025c-0.023 0.023-0.025 0.023-0.028-0.004-0.001-0.015-0.006-0.976-0.009-2.137l-0.004-2.109 0.705 0.004c0.618 0.003 0.707 0.001 0.717-0.019 0.012-0.019 0.141-0.022 1.088-0.022 0.708 0 1.076-0.004 1.076-0.015 0-0.007 0.022-0.015 0.049-0.015s0.052-0.006 0.055-0.012c0.007-0.020 4.884-0.036 4.884-0.016 0 0.025 1.385 0.012 1.393-0.013 0.004-0.013 0.143-0.017 0.582-0.017 1.049 0 2.648-0.019 2.641-0.032-0.004-0.006 0.019-0.012 0.051-0.012h0.060v-1.853c0-1.633-0.003-1.854-0.022-1.862-0.012-0.004-0.022-0.017-0.022-0.031 0-0.016-0.015-0.022-0.051-0.022-0.028 0-0.051-0.006-0.051-0.015 0-0.007-0.023-0.015-0.051-0.015-0.032 0-0.055-0.009-0.060-0.022-0.006-0.013-0.028-0.022-0.058-0.022-0.028 0-0.049-0.006-0.049-0.015 0-0.007-0.023-0.015-0.051-0.015s-0.055-0.009-0.061-0.020c-0.006-0.012-0.031-0.023-0.055-0.026-0.023-0.001-0.042-0.012-0.041-0.019 0.001-0.009-0.022-0.013-0.055-0.010-0.049 0.006-0.060 0.001-0.067-0.025-0.006-0.023-0.019-0.031-0.057-0.031-0.028 0-0.049-0.006-0.049-0.015 0-0.007-0.026-0.019-0.058-0.023-0.032-0.006-0.063-0.016-0.067-0.022-0.004-0.007-0.026-0.013-0.051-0.013-0.023 0-0.042-0.006-0.042-0.015 0-0.007-0.017-0.015-0.039-0.015-0.051 0-0.084-0.020-0.071-0.042 0.007-0.010 0.001-0.013-0.013-0.007-0.031 0.012-0.097-0.006-0.087-0.025 0.006-0.009-0.010-0.013-0.044-0.010-0.038 0.001-0.060-0.004-0.073-0.022-0.010-0.013-0.035-0.025-0.057-0.025s-0.049-0.010-0.061-0.022c-0.013-0.012-0.042-0.022-0.065-0.022s-0.042-0.006-0.042-0.015c0-0.007-0.023-0.015-0.051-0.015s-0.051-0.006-0.051-0.015c0-0.007-0.016-0.015-0.035-0.015-0.054 0-0.080-0.015-0.071-0.039 0.007-0.017 0.001-0.020-0.022-0.012-0.038 0.012-0.095-0.004-0.083-0.023 0.006-0.007-0.017-0.013-0.049-0.013-0.044 0-0.060-0.006-0.060-0.022s-0.016-0.022-0.057-0.022c-0.036 0-0.060-0.007-0.065-0.022-0.004-0.013-0.026-0.022-0.052-0.022-0.023 0-0.044-0.006-0.044-0.015 0-0.007-0.026-0.015-0.058-0.015s-0.058-0.006-0.058-0.015c0-0.007-0.019-0.015-0.042-0.015-0.044 0-0.081-0.031-0.063-0.049 0.006-0.006-0.016-0.009-0.047-0.007-0.036 0.004-0.060-0.001-0.064-0.013-0.003-0.010-0.031-0.017-0.063-0.017-0.041 0-0.057-0.006-0.057-0.022 0-0.015-0.015-0.022-0.049-0.022-0.031 0-0.052-0.009-0.058-0.022-0.004-0.013-0.028-0.022-0.060-0.022-0.028 0-0.051-0.006-0.051-0.015 0-0.007-0.023-0.015-0.051-0.015-0.035 0-0.051-0.007-0.051-0.022s-0.016-0.022-0.051-0.022-0.051-0.007-0.051-0.022c0-0.016-0.016-0.022-0.058-0.022-0.032 0-0.058-0.006-0.058-0.013 0-0.009-0.025-0.016-0.054-0.019-0.035-0.003-0.054-0.012-0.051-0.022 0.001-0.013-0.016-0.019-0.054-0.019-0.036 0-0.060-0.007-0.065-0.022-0.004-0.013-0.026-0.022-0.052-0.022-0.023 0-0.044-0.006-0.044-0.013 0-0.009-0.025-0.016-0.054-0.019-0.035-0.003-0.054-0.012-0.051-0.022 0.001-0.013-0.015-0.019-0.048-0.019-0.032 0-0.055-0.009-0.060-0.022-0.006-0.013-0.028-0.022-0.058-0.022-0.028 0-0.049-0.006-0.049-0.015 0-0.007-0.026-0.015-0.058-0.015-0.042 0-0.058-0.006-0.058-0.022s-0.016-0.022-0.051-0.022c-0.032 0-0.055-0.009-0.060-0.022-0.006-0.013-0.028-0.022-0.057-0.022-0.028 0-0.054-0.007-0.058-0.015-0.004-0.009-0.032-0.015-0.060-0.015-0.035 0-0.049-0.007-0.049-0.022 0-0.016-0.016-0.022-0.060-0.022-0.049 0-0.058-0.004-0.051-0.023s0.001-0.022-0.026-0.015c-0.041 0.010-0.084-0.003-0.073-0.022 0.004-0.007-0.019-0.013-0.051-0.013-0.044 0-0.060-0.006-0.060-0.022 0-0.015-0.015-0.022-0.049-0.022-0.031 0-0.052-0.009-0.058-0.022-0.004-0.015-0.028-0.022-0.067-0.022-0.036 0-0.057-0.006-0.051-0.015s-0.015-0.015-0.051-0.015c-0.048 0-0.060-0.004-0.052-0.022 0.006-0.017-0.004-0.022-0.049-0.022-0.042 0-0.058-0.006-0.058-0.022s-0.016-0.022-0.060-0.022c-0.035 0-0.055-0.006-0.049-0.015s-0.012-0.015-0.044-0.015-0.055-0.009-0.060-0.022c-0.006-0.013-0.028-0.022-0.057-0.022s-0.051-0.009-0.057-0.022c-0.004-0.013-0.028-0.022-0.060-0.022-0.029 0-0.049-0.006-0.044-0.013 0.004-0.009-0.020-0.016-0.054-0.019-0.041-0.003-0.061-0.010-0.058-0.022 0.001-0.013-0.017-0.019-0.057-0.019-0.047 0-0.058-0.004-0.051-0.022 0.006-0.017-0.004-0.022-0.049-0.022-0.032 0-0.058-0.006-0.058-0.015 0-0.007-0.023-0.015-0.051-0.015-0.032 0-0.055-0.009-0.060-0.022-0.006-0.013-0.028-0.022-0.057-0.022s-0.051-0.009-0.057-0.022c-0.004-0.013-0.028-0.022-0.060-0.022s-0.049-0.006-0.044-0.015c0.006-0.009-0.015-0.015-0.049-0.015-0.044 0-0.060-0.006-0.060-0.022s-0.016-0.022-0.051-0.022c-0.032 0-0.055-0.009-0.060-0.022-0.006-0.015-0.029-0.022-0.067-0.022-0.033 0-0.054-0.006-0.048-0.015s-0.015-0.015-0.049-0.015c-0.044 0-0.060-0.006-0.060-0.022s-0.016-0.022-0.051-0.022c-0.032 0-0.055-0.009-0.060-0.022-0.006-0.013-0.028-0.022-0.060-0.022-0.028 0-0.047-0.006-0.041-0.013 0.004-0.009-0.020-0.016-0.054-0.019-0.041-0.003-0.061-0.010-0.058-0.022 0.001-0.013-0.016-0.019-0.055-0.019-0.032 0-0.058-0.006-0.058-0.015 0-0.007-0.026-0.015-0.058-0.015-0.042 0-0.058-0.006-0.058-0.022s-0.016-0.022-0.051-0.022c-0.032 0-0.055-0.009-0.060-0.022-0.006-0.013-0.028-0.022-0.058-0.022-0.032 0-0.054-0.009-0.058-0.022-0.006-0.015-0.029-0.022-0.067-0.022-0.033 0-0.054-0.006-0.048-0.015s-0.012-0.015-0.044-0.015-0.055-0.009-0.060-0.022c-0.006-0.015-0.029-0.022-0.065-0.022-0.031 0-0.057-0.006-0.057-0.015 0-0.007-0.026-0.015-0.058-0.015-0.042 0-0.058-0.006-0.058-0.022s-0.016-0.022-0.051-0.022c-0.032 0-0.055-0.009-0.060-0.022-0.006-0.013-0.028-0.022-0.055-0.022-0.026 0-0.052-0.006-0.060-0.013-0.009-0.007-0.038-0.016-0.065-0.019s-0.049-0.012-0.048-0.020c0.001-0.009-0.023-0.020-0.054-0.026-0.032-0.004-0.058-0.016-0.058-0.023 0-0.009-0.026-0.015-0.057-0.015-0.032 0-0.063-0.006-0.067-0.015-0.004-0.007-0.032-0.015-0.060-0.015-0.035 0-0.049-0.007-0.049-0.022s-0.016-0.022-0.051-0.022c-0.026 0-0.055-0.009-0.061-0.020-0.006-0.010-0.035-0.023-0.063-0.029s-0.077-0.015-0.109-0.020c-0.032-0.006-0.057-0.019-0.055-0.028 0.003-0.010-0.025-0.022-0.061-0.028-0.036-0.004-0.065-0.015-0.065-0.022s-0.022-0.013-0.049-0.013-0.055-0.007-0.060-0.015c-0.004-0.007-0.029-0.015-0.052-0.015-0.025 0-0.047-0.009-0.051-0.022-0.006-0.013-0.028-0.022-0.055-0.022-0.042 0-0.106-0.026-0.074-0.031 0.009-0.001-0.012-0.007-0.044-0.015-0.157-0.031-0.188-0.041-0.199-0.063-0.009-0.015-0.032-0.023-0.064-0.023-0.031 0-0.048-0.006-0.042-0.015s-0.015-0.015-0.049-0.015c-0.032 0-0.063-0.006-0.067-0.015-0.004-0.007-0.028-0.015-0.051-0.015s-0.051-0.010-0.064-0.022c-0.012-0.012-0.042-0.022-0.067-0.022-0.026 0-0.048-0.009-0.052-0.022-0.006-0.012-0.025-0.022-0.042-0.022-0.045 0-0.081-0.015-0.073-0.029 0.004-0.006-0.020-0.012-0.054-0.012-0.039-0.001-0.065-0.009-0.073-0.023-0.009-0.015-0.033-0.023-0.063-0.023-0.028 0-0.051-0.006-0.051-0.015 0-0.007-0.022-0.015-0.049-0.015s-0.055-0.006-0.060-0.015c-0.004-0.007-0.032-0.015-0.060-0.015-0.032 0-0.054-0.009-0.058-0.022-0.006-0.015-0.029-0.022-0.065-0.022-0.038 0-0.061-0.007-0.065-0.022-0.006-0.012-0.025-0.022-0.042-0.022-0.047 0-0.081-0.015-0.071-0.031 0.004-0.007-0.022-0.013-0.058-0.013-0.049 0-0.067-0.006-0.067-0.022s-0.017-0.022-0.065-0.022c-0.036 0-0.065-0.006-0.065-0.015 0-0.007-0.022-0.015-0.049-0.015s-0.055-0.006-0.060-0.015c-0.004-0.007-0.025-0.015-0.044-0.015-0.048 0-0.080-0.015-0.080-0.036 0-0.012-0.012-0.016-0.029-0.012-0.042 0.012-0.102-0.007-0.102-0.032 0-0.016-0.016-0.022-0.058-0.022-0.032 0-0.058-0.006-0.058-0.015 0-0.007-0.029-0.015-0.064-0.015-0.044 0-0.067-0.007-0.073-0.022-0.004-0.013-0.028-0.022-0.060-0.022-0.028 0-0.051-0.006-0.051-0.015 0-0.007-0.029-0.015-0.064-0.015-0.036 0-0.070-0.006-0.074-0.015s-0.032-0.015-0.060-0.015c-0.035 0-0.049-0.007-0.049-0.022 0-0.016 0.016-0.022 0.058-0.022 0.039 0 0.057-0.006 0.055-0.017-0.003-0.013 0.019-0.020 0.065-0.023 0.038-0.003 0.065-0.010 0.061-0.019-0.006-0.007 0.019-0.013 0.057-0.013 0.049 0 0.067-0.006 0.067-0.022s0.016-0.022 0.058-0.022 0.058-0.006 0.058-0.022 0.017-0.022 0.064-0.022c0.044 0 0.067-0.007 0.073-0.022 0.004-0.013 0.028-0.022 0.060-0.022 0.028 0 0.051-0.006 0.051-0.013s0.026-0.016 0.058-0.022c0.032-0.004 0.058-0.016 0.058-0.023 0-0.009 0.026-0.015 0.058-0.015s0.058-0.006 0.058-0.015c0-0.007 0.023-0.015 0.051-0.015 0.032 0 0.055-0.009 0.060-0.022 0.006-0.012 0.026-0.022 0.049-0.022s0.051-0.010 0.064-0.022c0.012-0.012 0.044-0.022 0.071-0.022 0.032 0 0.054-0.009 0.060-0.022 0.004-0.013 0.026-0.022 0.058-0.022 0.031 0 0.052-0.009 0.058-0.022 0.004-0.013 0.028-0.022 0.060-0.022s0.049-0.006 0.044-0.015c-0.006-0.009 0.015-0.015 0.051-0.015 0.039 0 0.063-0.007 0.067-0.022 0.006-0.015 0.029-0.022 0.064-0.022s0.058-0.007 0.064-0.022c0.004-0.013 0.026-0.022 0.052-0.022 0.023 0 0.044-0.006 0.044-0.015 0-0.007 0.026-0.015 0.058-0.015 0.042 0 0.058-0.006 0.058-0.022s0.016-0.022 0.058-0.022c0.039 0 0.057-0.006 0.055-0.017-0.003-0.013 0.017-0.020 0.058-0.023 0.033-0.003 0.061-0.010 0.061-0.019 0-0.007 0.023-0.013 0.051-0.013 0.035 0 0.051-0.007 0.051-0.022 0-0.016 0.016-0.022 0.057-0.022 0.036 0 0.060-0.007 0.065-0.022 0.004-0.013 0.028-0.022 0.060-0.022s0.049-0.006 0.044-0.015c-0.006-0.009 0.015-0.015 0.049-0.015 0.044 0 0.060-0.006 0.060-0.022s0.016-0.022 0.058-0.022 0.058-0.006 0.058-0.022 0.016-0.022 0.060-0.022c0.032 0 0.055-0.006 0.051-0.013-0.010-0.016 0.054-0.033 0.084-0.022 0.016 0.006 0.023 0.001 0.023-0.015 0-0.017 0.015-0.023 0.058-0.023 0.042 0 0.058-0.006 0.058-0.022 0-0.015 0.015-0.022 0.049-0.022 0.031 0 0.052-0.009 0.058-0.022 0.004-0.013 0.028-0.022 0.060-0.022s0.049-0.006 0.044-0.015c-0.006-0.009 0.015-0.015 0.049-0.015 0.044 0 0.060-0.006 0.060-0.022s0.016-0.022 0.058-0.022c0.032 0 0.058-0.006 0.058-0.015 0-0.007 0.026-0.015 0.058-0.015 0.042 0 0.058-0.006 0.058-0.022s0.016-0.022 0.060-0.022c0.039 0 0.055-0.006 0.048-0.016-0.013-0.022 0.020-0.042 0.071-0.042 0.022 0 0.039-0.006 0.039-0.015 0-0.007 0.026-0.015 0.058-0.015 0.042 0 0.058-0.006 0.058-0.022 0-0.015 0.016-0.022 0.051-0.022 0.028 0 0.051-0.006 0.051-0.015 0-0.007 0.022-0.015 0.048-0.015 0.025 0 0.060-0.010 0.074-0.022 0.016-0.012 0.048-0.022 0.071-0.022 0.022 0 0.038-0.006 0.033-0.013-0.010-0.015 0.023-0.031 0.064-0.031 0.013 0 0.033-0.010 0.044-0.022s0.036-0.022 0.060-0.022c0.023 0 0.042-0.006 0.042-0.015 0-0.007 0.023-0.015 0.051-0.015 0.032 0 0.055-0.009 0.060-0.022 0.006-0.013 0.028-0.022 0.058-0.022 0.032 0 0.048-0.006 0.047-0.017-0.003-0.012 0.016-0.020 0.051-0.023 0.029-0.003 0.054-0.010 0.054-0.019 0-0.007 0.020-0.013 0.045-0.013s0.054-0.010 0.065-0.022c0.013-0.012 0.041-0.022 0.064-0.022s0.044-0.010 0.049-0.022c0.004-0.013 0.026-0.022 0.052-0.022 0.023 0 0.044-0.006 0.044-0.015 0-0.007 0.023-0.015 0.051-0.015 0.033 0 0.049-0.006 0.047-0.017-0.001-0.012 0.017-0.020 0.052-0.023s0.054-0.012 0.054-0.026 0.017-0.020 0.060-0.020c0.035 0 0.055-0.006 0.049-0.015s0.015-0.015 0.049-0.015c0.041 0 0.058-0.006 0.055-0.017-0.001-0.012 0.016-0.020 0.045-0.023s0.047-0.013 0.047-0.026c0-0.015 0.017-0.020 0.058-0.020 0.032 0 0.058-0.006 0.058-0.015 0-0.007 0.022-0.015 0.049-0.015 0.031 0 0.052-0.009 0.058-0.022 0.004-0.013 0.028-0.022 0.060-0.022 0.035 0 0.051-0.006 0.051-0.022 0-0.015 0.015-0.022 0.049-0.022 0.032 0 0.052-0.009 0.058-0.023 0.006-0.016 0.020-0.020 0.051-0.013 0.033 0.007 0.042 0.003 0.049-0.020 0.006-0.023 0.019-0.031 0.052-0.031 0.025 0 0.045-0.006 0.045-0.015 0-0.007 0.023-0.015 0.051-0.015s0.051-0.006 0.051-0.015c0-0.007 0.019-0.015 0.042-0.015s0.052-0.010 0.065-0.022c0.012-0.012 0.042-0.022 0.067-0.022s0.042-0.006 0.036-0.013c-0.012-0.019 0.044-0.047 0.071-0.036 0.013 0.004 0.033-0.003 0.047-0.016 0.016-0.015 0.041-0.022 0.064-0.019 0.029 0.004 0.039 0 0.038-0.016s0.015-0.025 0.047-0.028c0.025-0.003 0.047-0.010 0.047-0.016 0-0.007 0.026-0.016 0.058-0.022 0.032-0.004 0.058-0.016 0.058-0.023 0-0.009 0.023-0.015 0.051-0.015s0.051-0.006 0.051-0.015c0-0.007 0.017-0.015 0.041-0.015 0.044 0 0.079-0.017 0.076-0.038-0.001-0.012 0.026-0.020 0.153-0.045 0.025-0.004 0.049-0.017 0.055-0.028 0.006-0.012 0.031-0.020 0.054-0.020 0.029 0 0.044-0.007 0.044-0.022s0.016-0.022 0.051-0.022c0.028 0 0.051-0.006 0.051-0.015 0-0.007 0.026-0.015 0.058-0.015 0.038 0 0.057-0.006 0.054-0.017-0.001-0.012 0.020-0.022 0.055-0.028 0.032-0.004 0.052-0.010 0.044-0.012-0.029-0.004 0.031-0.031 0.070-0.031 0.022 0 0.039-0.006 0.039-0.015 0-0.007 0.023-0.015 0.051-0.015 0.033 0 0.049-0.006 0.047-0.017-0.001-0.012 0.017-0.020 0.048-0.023 0.028-0.003 0.057-0.015 0.063-0.026s0.033-0.020 0.061-0.020c0.028 0 0.051-0.006 0.051-0.015 0-0.007 0.026-0.015 0.058-0.015 0.045 0 0.055-0.004 0.049-0.022-0.007-0.017 0.003-0.022 0.051-0.022 0.047 0 0.057-0.004 0.051-0.022-0.007-0.017 0.003-0.022 0.044-0.022 0.029 0 0.052-0.006 0.052-0.015 0-0.007 0.023-0.015 0.051-0.015 0.035 0 0.051-0.007 0.051-0.022 0-0.016 0.016-0.022 0.058-0.022s0.058-0.006 0.058-0.022c0-0.015 0.016-0.022 0.051-0.022 0.028 0 0.051-0.006 0.051-0.015 0-0.007 0.023-0.015 0.051-0.015 0.035 0 0.051-0.007 0.051-0.022s0.016-0.022 0.051-0.022 0.051-0.007 0.051-0.022 0.015-0.022 0.045-0.022c0.025 0 0.054-0.010 0.065-0.022 0.013-0.012 0.042-0.022 0.065-0.022s0.042-0.006 0.042-0.015c0-0.007 0.023-0.015 0.051-0.015 0.035 0 0.051-0.007 0.051-0.022 0-0.016 0.016-0.022 0.060-0.022 0.035 0 0.055-0.006 0.049-0.015s0.012-0.015 0.042-0.015c0.038 0 0.055-0.009 0.068-0.031 0.012-0.023 0.026-0.029 0.058-0.025 0.029 0.004 0.042 0 0.042-0.013s0.019-0.019 0.058-0.019c0.042 0 0.058-0.006 0.058-0.022 0-0.015 0.016-0.022 0.051-0.022 0.033 0 0.049-0.006 0.048-0.017-0.003-0.012 0.015-0.020 0.044-0.023 0.025-0.003 0.047-0.010 0.047-0.019 0-0.007 0.023-0.013 0.052-0.013 0.028 0 0.061-0.010 0.073-0.022 0.013-0.012 0.042-0.022 0.065-0.022 0.025 0 0.041-0.006 0.035-0.015-0.004-0.007 0.010-0.017 0.032-0.022 0.022-0.006 0.052-0.015 0.065-0.023 0.015-0.007 0.042-0.013 0.061-0.013s0.038-0.010 0.044-0.022c0.004-0.013 0.026-0.022 0.051-0.022 0.023 0 0.045-0.009 0.051-0.022 0.004-0.013 0.028-0.022 0.060-0.022 0.028 0 0.051-0.006 0.051-0.015 0-0.007 0.026-0.015 0.058-0.015 0.038 0 0.057-0.006 0.055-0.017-0.003-0.012 0.017-0.022 0.051-0.026 0.031-0.004 0.054-0.013 0.054-0.022 0-0.007 0.022-0.016 0.051-0.019 0.028-0.003 0.051-0.010 0.051-0.019 0-0.007 0.023-0.013 0.051-0.013 0.035 0 0.051-0.007 0.051-0.022s0.015-0.022 0.049-0.022c0.031 0 0.052-0.009 0.058-0.022 0.004-0.013 0.026-0.022 0.051-0.022s0.045-0.009 0.051-0.022c0.006-0.017 0.020-0.020 0.060-0.013s0.051 0.004 0.048-0.010c-0.003-0.013 0.015-0.022 0.051-0.028 0.031-0.004 0.052-0.013 0.051-0.022-0.003-0.007 0.020-0.016 0.051-0.019 0.029-0.003 0.051-0.010 0.047-0.019-0.006-0.007 0.017-0.013 0.049-0.013 0.044 0 0.060-0.006 0.060-0.022s0.016-0.022 0.058-0.022c0.039 0 0.057-0.006 0.055-0.017-0.003-0.012 0.016-0.020 0.051-0.023 0.029-0.003 0.054-0.010 0.054-0.019 0-0.007 0.010-0.013 0.022-0.013 0.019 0 0.022-0.209 0.022-1.798v-1.798l-7.195 0.009zM13.738 25.978c-0.031 0-0.044 0.058-0.033 0.154 0.006 0.060 0.003 0.079-0.012 0.079-0.025 0-0.036 0.032-0.036 0.102 0 0.031-0.006 0.061-0.015 0.065-0.007 0.004-0.015 0.038-0.015 0.074 0 0.035-0.006 0.064-0.015 0.064-0.007 0-0.015 0.019-0.015 0.042s-0.010 0.052-0.022 0.065c-0.012 0.012-0.022 0.038-0.022 0.058 0 0.025-0.009 0.038-0.022 0.038-0.017 0-0.020 0.013-0.016 0.051 0.006 0.039 0 0.054-0.022 0.065-0.015 0.009-0.028 0.026-0.028 0.038 0 0.013-0.010 0.032-0.023 0.045-0.012 0.013-0.019 0.032-0.015 0.042 0.004 0.012 0.003 0.020-0.003 0.020-0.013 0-0.065 0.113-0.065 0.141 0 0.010-0.009 0.019-0.019 0.019-0.009 0-0.022 0.016-0.026 0.036-0.006 0.022-0.016 0.033-0.025 0.028-0.010-0.006-0.013 0.001-0.006 0.022 0.006 0.022 0.003 0.031-0.012 0.031-0.012 0-0.026 0.016-0.031 0.036-0.006 0.020-0.016 0.036-0.023 0.036-0.009 0-0.015 0.010-0.015 0.022s-0.006 0.022-0.013 0.022-0.019 0.015-0.023 0.032c-0.006 0.016-0.026 0.045-0.045 0.063s-0.035 0.039-0.035 0.049c0 0.009-0.006 0.016-0.015 0.016-0.007 0-0.017 0.016-0.023 0.036-0.004 0.020-0.017 0.036-0.029 0.036s-0.019 0.004-0.017 0.012c0.006 0.017-0.051 0.074-0.065 0.065-0.009-0.004-0.010-0.001-0.004 0.009s-0.013 0.039-0.048 0.073c-0.032 0.031-0.054 0.060-0.049 0.065 0.006 0.004-0.001 0.009-0.016 0.009-0.013 0-0.028 0.010-0.032 0.022-0.006 0.012-0.019 0.022-0.032 0.022-0.012 0-0.019 0.004-0.015 0.009 0.012 0.010-0.083 0.108-0.105 0.108-0.009 0-0.012 0.007-0.007 0.016 0.006 0.009-0.003 0.019-0.020 0.023s-0.031 0.017-0.031 0.028c0 0.012-0.010 0.020-0.023 0.020-0.012 0-0.017 0.007-0.013 0.015 0.004 0.009 0 0.015-0.010 0.015-0.010 0.001-0.035 0.020-0.055 0.044-0.019 0.025-0.045 0.044-0.058 0.044-0.012 0-0.035 0.016-0.049 0.036s-0.036 0.036-0.048 0.036c-0.012 0-0.016 0.007-0.012 0.016 0.006 0.009-0.003 0.019-0.020 0.023s-0.031 0.013-0.031 0.020c0 0.007-0.013 0.013-0.029 0.013s-0.029 0.010-0.029 0.022-0.013 0.022-0.029 0.022-0.029 0.010-0.029 0.022-0.013 0.022-0.029 0.022-0.029 0.007-0.029 0.015c0 0.009-0.013 0.015-0.029 0.015s-0.028 0.009-0.026 0.017c0.003 0.010-0.010 0.020-0.028 0.023-0.019 0.003-0.033 0.015-0.033 0.026s-0.013 0.020-0.029 0.020-0.029 0.007-0.029 0.015c0 0.009-0.019 0.015-0.044 0.015-0.032 0-0.041 0.006-0.035 0.022 0.006 0.015 0 0.022-0.022 0.022-0.017 0-0.035 0.010-0.039 0.022-0.006 0.012-0.025 0.022-0.045 0.022-0.019 0-0.031 0.006-0.026 0.015 0.006 0.009-0.007 0.015-0.028 0.015-0.023 0-0.038 0.009-0.038 0.022 0 0.015-0.015 0.022-0.044 0.022-0.032 0-0.041 0.006-0.035 0.022 0.007 0.017-0.003 0.022-0.045 0.022-0.029 0-0.049 0.006-0.044 0.013 0.009 0.017-0.045 0.036-0.065 0.023-0.009-0.004-0.010 0-0.006 0.013 0.006 0.015-0.003 0.025-0.029 0.032-0.020 0.004-0.038 0.015-0.038 0.022s-0.023 0.013-0.051 0.013c-0.033 0-0.051 0.007-0.051 0.020s-0.012 0.017-0.036 0.012c-0.025-0.004-0.039 0.001-0.045 0.017-0.006 0.015-0.026 0.023-0.058 0.023-0.035 0-0.049 0.007-0.049 0.022s-0.016 0.022-0.051 0.022c-0.033 0-0.049 0.006-0.047 0.019 0.001 0.010-0.016 0.019-0.041 0.022-0.023 0.003-0.049 0.015-0.055 0.026s-0.031 0.020-0.054 0.020c-0.025 0-0.044 0.006-0.044 0.015 0 0.007-0.026 0.019-0.058 0.023-0.032 0.006-0.063 0.016-0.067 0.022-0.004 0.007-0.031 0.013-0.058 0.013s-0.049 0.006-0.049 0.013c0 0.006-0.028 0.016-0.060 0.020-0.033 0.004-0.065 0.016-0.071 0.026-0.012 0.016-0.083 0.035-0.211 0.052-0.032 0.004-0.064 0.017-0.070 0.028-0.007 0.013-0.036 0.020-0.074 0.020-0.044 0-0.067 0.007-0.073 0.022-0.006 0.016-0.031 0.022-0.089 0.022-0.044 0-0.080 0.007-0.080 0.015 0 0.009-0.041 0.015-0.095 0.015-0.068 0-0.093 0.006-0.090 0.019 0.001 0.012-0.032 0.020-0.113 0.026-0.064 0.004-0.109 0.009-0.102 0.010 0.009 0.001 0.004 0.010-0.007 0.017s-0.065 0.015-0.119 0.015c-0.054 0-0.102 0.007-0.106 0.015-0.004 0.009-0.073 0.015-0.153 0.015-0.113 0-0.144 0.004-0.151 0.022-0.006 0.017-0.044 0.022-0.211 0.022-0.166 0-0.204 0.004-0.211 0.022-0.007 0.019-0.099 0.022-0.707 0.022s-0.7-0.003-0.707-0.022c-0.007-0.017-0.045-0.022-0.218-0.022-0.129 0-0.209-0.006-0.209-0.015s-0.058-0.015-0.145-0.015c-0.116 0-0.148-0.004-0.154-0.022-0.007-0.017-0.036-0.022-0.132-0.022-0.105 0-0.122-0.003-0.115-0.022 0.006-0.019-0.010-0.022-0.102-0.022-0.083 0-0.111-0.006-0.116-0.022-0.007-0.016-0.033-0.022-0.103-0.022-0.058 0-0.090-0.006-0.084-0.015s-0.023-0.015-0.077-0.015c-0.060 0-0.092-0.007-0.105-0.022-0.012-0.015-0.044-0.022-0.089-0.022-0.039 0-0.071-0.006-0.071-0.015 0-0.007-0.017-0.015-0.039-0.015-0.058 0-0.108-0.016-0.097-0.031 0.004-0.007-0.026-0.013-0.067-0.013-0.061 0-0.074-0.004-0.067-0.022 0.006-0.017-0.006-0.022-0.057-0.022-0.048 0-0.065-0.006-0.065-0.022s-0.017-0.022-0.067-0.022c-0.039 0-0.063-0.006-0.057-0.015s-0.015-0.015-0.051-0.015c-0.039 0-0.063-0.007-0.067-0.022-0.006-0.013-0.028-0.022-0.057-0.022-0.031 0-0.051-0.009-0.057-0.023-0.004-0.012-0.016-0.017-0.023-0.013-0.023 0.015-0.090-0.006-0.080-0.022 0.006-0.009-0.013-0.015-0.042-0.015-0.036 0-0.052-0.006-0.052-0.022 0-0.015-0.015-0.022-0.042-0.022-0.023 0-0.045-0.009-0.051-0.022-0.004-0.013-0.026-0.022-0.052-0.022-0.023 0-0.044-0.006-0.044-0.015 0-0.007-0.016-0.015-0.035-0.015s-0.038-0.010-0.044-0.022c-0.004-0.012-0.025-0.022-0.045-0.022s-0.036-0.009-0.036-0.019c0-0.010-0.015-0.020-0.032-0.020-0.019-0.001-0.035-0.010-0.038-0.019-0.003-0.007-0.022-0.015-0.041-0.015-0.020 0-0.039-0.010-0.044-0.022-0.006-0.012-0.025-0.022-0.044-0.022-0.020 0-0.039-0.010-0.044-0.022-0.006-0.012-0.022-0.022-0.036-0.022s-0.028-0.006-0.028-0.015c0-0.007-0.016-0.015-0.036-0.015-0.023 0-0.036-0.009-0.036-0.022s-0.013-0.022-0.036-0.022-0.036-0.009-0.036-0.022c0-0.012-0.013-0.022-0.029-0.022s-0.029-0.006-0.029-0.015c0-0.007-0.016-0.015-0.036-0.015-0.023 0-0.036-0.009-0.036-0.022 0-0.012-0.013-0.022-0.029-0.022s-0.029-0.010-0.029-0.022-0.013-0.022-0.029-0.022-0.029-0.006-0.029-0.015c0-0.007-0.013-0.015-0.029-0.015s-0.029-0.010-0.029-0.022-0.013-0.022-0.029-0.022-0.029-0.010-0.029-0.022-0.010-0.022-0.022-0.022-0.022-0.006-0.022-0.015c0-0.007-0.013-0.015-0.029-0.015s-0.029-0.010-0.029-0.022-0.010-0.022-0.022-0.022-0.022-0.010-0.022-0.022-0.013-0.022-0.029-0.022-0.029-0.006-0.029-0.015c0-0.007-0.010-0.015-0.022-0.015s-0.022-0.010-0.022-0.022-0.010-0.022-0.022-0.022-0.022-0.010-0.022-0.022-0.010-0.022-0.023-0.022c-0.026 0-0.064-0.033-0.064-0.057 0-0.009-0.006-0.016-0.015-0.016-0.017 0-0.102-0.081-0.102-0.099 0-0.009-0.013-0.017-0.031-0.022s-0.026-0.015-0.020-0.023c0.004-0.010-0.004-0.016-0.022-0.016s-0.028-0.006-0.023-0.013c0.004-0.007-0.001-0.017-0.015-0.022-0.012-0.004-0.017-0.015-0.013-0.023 0.004-0.007-0.001-0.015-0.013-0.015-0.013 0-0.023-0.010-0.023-0.022s-0.007-0.022-0.016-0.022c-0.016 0-0.057-0.035-0.057-0.049s-0.058-0.067-0.074-0.067c-0.007 0-0.010-0.006-0.006-0.015 0.004-0.007 0.003-0.015-0.006-0.015-0.007 0-0.017-0.019-0.023-0.044-0.006-0.023-0.016-0.044-0.023-0.044-0.025 0-0.074-0.055-0.064-0.071 0.004-0.009 0.001-0.016-0.007-0.016s-0.022-0.017-0.029-0.038c-0.009-0.020-0.020-0.032-0.029-0.028-0.007 0.004-0.015 0-0.015-0.013 0-0.012-0.004-0.023-0.010-0.026-0.019-0.007-0.063-0.099-0.063-0.129 0-0.015-0.010-0.028-0.022-0.028s-0.022-0.010-0.022-0.022-0.010-0.022-0.022-0.022c-0.013 0-0.022-0.013-0.022-0.036 0-0.020-0.006-0.036-0.015-0.036-0.007 0-0.015-0.020-0.015-0.045 0-0.035-0.006-0.044-0.022-0.036-0.016 0.006-0.022-0.003-0.022-0.035 0-0.029-0.007-0.044-0.022-0.044s-0.022-0.016-0.022-0.051c0-0.028-0.006-0.051-0.015-0.051-0.007 0-0.015-0.019-0.015-0.044 0-0.023-0.006-0.044-0.015-0.044-0.007 0-0.017-0.023-0.023-0.052-0.006-0.028-0.019-0.055-0.029-0.060-0.013-0.004-0.020-0.029-0.020-0.064 0-0.031-0.006-0.057-0.015-0.057-0.007 0-0.015-0.033-0.015-0.073 0-0.052-0.006-0.076-0.022-0.081-0.016-0.007-0.022-0.031-0.022-0.087 0-0.060-0.006-0.079-0.022-0.079-0.017 0-0.022-0.025-0.022-0.131 0-0.077-0.006-0.131-0.015-0.131s-0.015-0.148-0.015-0.415 0.006-0.415 0.015-0.415 0.015-0.054 0.015-0.132c0-0.112 0.003-0.131 0.022-0.124 0.017 0.006 0.022-0.007 0.022-0.080 0-0.064 0.006-0.089 0.022-0.095s0.022-0.031 0.022-0.080c0-0.039 0.007-0.071 0.015-0.071 0.009 0 0.015-0.026 0.015-0.058 0-0.042 0.006-0.058 0.022-0.058s0.022-0.016 0.022-0.058 0.006-0.058 0.022-0.058c0.015 0 0.022-0.015 0.022-0.044 0-0.023 0.007-0.044 0.015-0.044 0.009 0 0.015-0.023 0.015-0.051 0-0.035 0.007-0.051 0.022-0.051s0.022-0.015 0.022-0.042c0-0.023 0.009-0.045 0.022-0.051 0.012-0.004 0.022-0.022 0.022-0.038s0.006-0.029 0.013-0.029 0.017-0.016 0.022-0.036c0.006-0.020 0.016-0.036 0.023-0.036 0.009 0 0.015-0.013 0.015-0.031 0-0.016 0.007-0.025 0.015-0.020 0.009 0.006 0.019-0.010 0.023-0.035 0.006-0.025 0.015-0.045 0.022-0.045s0.013-0.016 0.013-0.036c0-0.023 0.009-0.036 0.022-0.036 0.012 0 0.022-0.010 0.022-0.022s0.009-0.020 0.017-0.019c0.010 0.003 0.020-0.012 0.023-0.032 0.003-0.019 0.022-0.051 0.041-0.068s0.035-0.036 0.035-0.041c0-0.009 0.016-0.029 0.055-0.073 0.009-0.010 0.017-0.031 0.017-0.042 0-0.013 0.010-0.023 0.022-0.023s0.022-0.010 0.022-0.022 0.010-0.022 0.022-0.022 0.022-0.006 0.022-0.013c0-0.009 0.015-0.031 0.033-0.051 0.052-0.057 0.083-0.096 0.083-0.103 0-0.016 0.052-0.065 0.068-0.065 0.010 0 0.019-0.006 0.019-0.015 0-0.007 0.010-0.015 0.022-0.015s0.022-0.010 0.022-0.022 0.007-0.022 0.015-0.022c0.009 0 0.015-0.010 0.015-0.022s0.010-0.022 0.023-0.022c0.013 0 0.055-0.032 0.095-0.073 0.039-0.039 0.077-0.073 0.086-0.073 0.007 0 0.015-0.010 0.015-0.022s0.013-0.022 0.029-0.022 0.029-0.010 0.029-0.022 0.010-0.022 0.022-0.022 0.022-0.006 0.022-0.015c0-0.007 0.013-0.015 0.029-0.015s0.029-0.010 0.029-0.022 0.009-0.022 0.020-0.022c0.012 0 0.023-0.010 0.029-0.022 0.004-0.012 0.017-0.022 0.031-0.022 0.012 0 0.022-0.006 0.022-0.015 0-0.007 0.013-0.015 0.029-0.015s0.029-0.010 0.029-0.022 0.013-0.022 0.029-0.022 0.029-0.010 0.029-0.022 0.013-0.022 0.029-0.022 0.029-0.010 0.029-0.022 0.013-0.022 0.029-0.022 0.029-0.006 0.029-0.015c0-0.007 0.013-0.015 0.028-0.015s0.031-0.010 0.036-0.022c0.004-0.012 0.022-0.022 0.038-0.022s0.029-0.006 0.029-0.015c0-0.007 0.013-0.015 0.029-0.015s0.033-0.010 0.038-0.022c0.006-0.012 0.025-0.022 0.044-0.022s0.033-0.007 0.032-0.017c-0.003-0.009 0.009-0.020 0.025-0.023s0.035-0.015 0.041-0.026c0.006-0.012 0.023-0.020 0.038-0.020 0.016 0 0.031-0.010 0.036-0.022 0.004-0.012 0.025-0.022 0.045-0.022s0.036-0.006 0.036-0.015c0-0.007 0.016-0.015 0.035-0.015s0.038-0.010 0.044-0.022c0.004-0.012 0.022-0.022 0.038-0.022s0.029-0.006 0.029-0.015c0-0.007 0.020-0.015 0.044-0.015 0.026 0 0.048-0.009 0.052-0.022 0.006-0.013 0.028-0.022 0.051-0.022 0.026 0 0.041-0.007 0.039-0.017-0.003-0.012 0.015-0.020 0.039-0.023s0.049-0.015 0.055-0.026c0.006-0.012 0.031-0.020 0.054-0.020 0.025 0 0.044-0.006 0.044-0.015 0-0.007 0.019-0.015 0.042-0.015s0.045-0.009 0.051-0.022c0.004-0.013 0.028-0.022 0.060-0.022 0.035 0 0.051-0.006 0.051-0.022s0.016-0.022 0.060-0.022c0.035 0 0.055-0.006 0.049-0.015s0.016-0.015 0.055-0.015c0.045 0 0.068-0.007 0.074-0.022 0.004-0.015 0.028-0.022 0.067-0.022s0.057-0.006 0.054-0.017c-0.001-0.013 0.020-0.020 0.067-0.023 0.038-0.003 0.065-0.010 0.061-0.019-0.006-0.007 0.025-0.013 0.071-0.013 0.063 0 0.081-0.004 0.081-0.022s0.019-0.022 0.080-0.022c0.057 0 0.079-0.006 0.076-0.017-0.001-0.013 0.023-0.020 0.081-0.023 0.045-0.003 0.083-0.010 0.083-0.016 0-0.007 0.042-0.017 0.095-0.023 0.052-0.004 0.095-0.016 0.095-0.023s0.049-0.013 0.109-0.013c0.080 0 0.108-0.004 0.105-0.017-0.001-0.015 0.032-0.020 0.125-0.023 0.077-0.003 0.124-0.010 0.119-0.017-0.006-0.009 0.052-0.015 0.151-0.015 0.134 0 0.161-0.004 0.161-0.022 0-0.019 0.036-0.022 0.234-0.022 0.167 0 0.23-0.004 0.223-0.016-0.004-0.009 0-0.022 0.010-0.029 0.023-0.015 1.19-0.019 1.226-0.004 0.013 0.004 0.023 0.017 0.023 0.029 0 0.016 0.044 0.020 0.234 0.020 0.151 0 0.23 0.004 0.224 0.015-0.006 0.009 0.045 0.015 0.144 0.015 0.086 0 0.157 0.006 0.161 0.015s0.054 0.015 0.109 0.015c0.106 0 0.15 0.010 0.137 0.031-0.004 0.007 0.038 0.013 0.095 0.013 0.070 0 0.108 0.007 0.124 0.022 0.015 0.015 0.051 0.022 0.111 0.022 0.067 0 0.089 0.004 0.083 0.019-0.004 0.013 0.013 0.016 0.071 0.013 0.064-0.004 0.081 0 0.103 0.025 0.019 0.023 0.042 0.031 0.095 0.031 0.039 0 0.070 0.007 0.070 0.015 0 0.009 0.033 0.015 0.074 0.015 0.045 0 0.070 0.006 0.064 0.015s0.015 0.015 0.049 0.015c0.032 0 0.067 0.010 0.080 0.022 0.012 0.012 0.042 0.022 0.067 0.022 0.026 0 0.048 0.009 0.052 0.022 0.006 0.015 0.029 0.022 0.064 0.022 0.038 0 0.058 0.007 0.064 0.023s0.019 0.020 0.044 0.015c0.022-0.006 0.045 0.001 0.067 0.020 0.019 0.016 0.049 0.029 0.068 0.029 0.017 0 0.033 0.007 0.033 0.015 0 0.009 0.026 0.015 0.058 0.015s0.058 0.007 0.058 0.015c0 0.009 0.016 0.015 0.036 0.015s0.041 0.010 0.045 0.022c0.006 0.013 0.028 0.022 0.051 0.022 0.025 0 0.047 0.009 0.051 0.022 0.006 0.013 0.028 0.022 0.052 0.022 0.033 0 0.042 0.006 0.035 0.022-0.006 0.017 0.004 0.022 0.042 0.022 0.035 0 0.051 0.007 0.051 0.022 0 0.013 0.013 0.022 0.036 0.022 0.020 0 0.036 0.007 0.036 0.015 0 0.009 0.023 0.015 0.051 0.015 0.035 0 0.051 0.007 0.051 0.022 0 0.013 0.013 0.022 0.036 0.022 0.020 0 0.036 0.007 0.036 0.015 0 0.009 0.010 0.015 0.022 0.015 0.013 0 0.026 0.010 0.031 0.022 0.006 0.013 0.028 0.022 0.052 0.022 0.033 0 0.042 0.006 0.035 0.022-0.006 0.016 0.001 0.022 0.028 0.022 0.023 0 0.036 0.009 0.036 0.022s0.013 0.022 0.036 0.022c0.020 0 0.036 0.007 0.036 0.015 0 0.009 0.013 0.015 0.028 0.015s0.031 0.010 0.036 0.022c0.004 0.012 0.017 0.022 0.031 0.022 0.012 0 0.022 0.007 0.022 0.015 0 0.009 0.013 0.015 0.029 0.015s0.033 0.010 0.038 0.022c0.006 0.012 0.022 0.022 0.038 0.022 0.020 0 0.026 0.007 0.020 0.022-0.006 0.016 0.001 0.022 0.028 0.022 0.023 0 0.036 0.009 0.036 0.022 0 0.012 0.010 0.022 0.022 0.022s0.022 0.007 0.022 0.015c0 0.009 0.016 0.015 0.036 0.015 0.023 0 0.036 0.009 0.036 0.022 0 0.012 0.009 0.022 0.020 0.022s0.023 0.010 0.029 0.022c0.004 0.012 0.019 0.022 0.031 0.022 0.013 0 0.019 0.007 0.015 0.015-0.006 0.009 0.007 0.015 0.028 0.015 0.023 0 0.038 0.009 0.038 0.022 0 0.012 0.010 0.022 0.022 0.022s0.022 0.009 0.022 0.019c0 0.012 0.016 0.029 0.036 0.039s0.036 0.028 0.036 0.039c0 0.010 0.013 0.019 0.031 0.019 0.022 0 0.028 0.007 0.022 0.022-0.004 0.013 0 0.022 0.013 0.022 0.012 0 0.022 0.006 0.022 0.013s0.015 0.016 0.033 0.019c0.017 0.003 0.031 0.013 0.029 0.023-0.003 0.009 0.006 0.017 0.017 0.017s0.022 0.009 0.022 0.019c0 0.012 0.016 0.029 0.036 0.039s0.036 0.028 0.036 0.039c0 0.010 0.010 0.019 0.022 0.019s0.022 0.007 0.022 0.015c0 0.009 0.013 0.028 0.029 0.044 0.017 0.017 0.026 0.036 0.022 0.044-0.006 0.009-0.001 0.015 0.009 0.015 0.016 0 0.144 0.125 0.144 0.14 0 0.004 0.013 0.022 0.029 0.039 0.017 0.017 0.033 0.047 0.038 0.064 0.006 0.019 0.017 0.033 0.029 0.033s0.020 0.010 0.020 0.022 0.010 0.022 0.022 0.022 0.022 0.013 0.022 0.033c0 0.022 0.013 0.042 0.036 0.054 0.022 0.012 0.036 0.032 0.036 0.052 0 0.019 0.009 0.039 0.019 0.045 0.023 0.015 0.054 0.071 0.054 0.099 0 0.012 0.010 0.022 0.022 0.022 0.013 0 0.022 0.013 0.022 0.036s0.009 0.036 0.022 0.036 0.022 0.013 0.022 0.036c0 0.020 0.007 0.036 0.015 0.036 0.009 0 0.015 0.016 0.015 0.036s0.010 0.041 0.022 0.045c0.012 0.006 0.022 0.028 0.022 0.051 0 0.031 0.006 0.039 0.022 0.033 0.017-0.007 0.022 0.003 0.022 0.049 0 0.033 0.007 0.064 0.015 0.068 0.009 0.004 0.015 0.022 0.015 0.038s0.010 0.032 0.022 0.036c0.015 0.006 0.022 0.029 0.022 0.064s0.007 0.058 0.022 0.064c0.015 0.006 0.022 0.029 0.022 0.073 0 0.036 0.007 0.070 0.015 0.074 0.009 0.004 0.015 0.041 0.015 0.081 0 0.054 0.006 0.071 0.022 0.071 0.023 0 0.025 0.010 0.022 0.135-0.001 0.071 0.003 0.086 0.025 0.092 0.025 0.007 0.026 0.038 0.032 0.502 0.004 0.444 0.003 0.493-0.019 0.493z"></path>
</symbol>
<symbol id="cross" viewBox="0 0 32 32"><path d="M23.733 10.304l-1.504-1.504-5.963 5.963-5.963-5.963-1.504 1.504 5.963 5.963-5.963 5.963 1.504 1.504 5.963-5.963 5.963 5.963 1.504-1.504-5.963-5.963 5.963-5.963z"></path></symbol><symbol id="menu" viewBox="0 0 32 32"><path d="M6.4 11.733v-2.133h19.2v2.133h-19.2zM6.4 17.067h19.2v-2.133h-19.2v2.133zM6.4 22.4h19.2v-2.133h-19.2v2.133z"></path></symbol>
</defs>
</svg>
