<svg aria-hidden="true" style="position: absolute; width: 0; height: 0; overflow: hidden;" version="1.1" xmlns="http://www.w3.org/2000/svg" xmlns:xlink="http://www.w3.org/1999/xlink">
<defs>
<symbol id="youtube" viewBox="0 0 32 32">
<path fill="#f00" style="" d="M31.327 8.273c-0.386-1.353-1.431-2.398-2.756-2.777l-0.028-0.007c-2.493-0.668-12.528-0.668-12.528-0.668s-10.009-0.013-12.528 0.668c-1.353 0.386-2.398 1.431-2.777 2.756l-0.007 0.028c-0.443 2.281-0.696 4.903-0.696 7.585 0 0.054 0 0.109 0 0.163l-0-0.008c-0 0.037-0 0.082-0 0.126 0 2.682 0.253 5.304 0.737 7.845l-0.041-0.26c0.386 1.353 1.431 2.398 2.756 2.777l0.028 0.007c2.491 0.669 12.528 0.669 12.528 0.669s10.008 0 12.528-0.669c1.353-0.386 2.398-1.431 2.777-2.756l0.007-0.028c0.425-2.233 0.668-4.803 0.668-7.429 0-0.099-0-0.198-0.001-0.297l0 0.015c0.001-0.092 0.001-0.201 0.001-0.31 0-2.626-0.243-5.196-0.708-7.687l0.040 0.258zM12.812 20.801v-9.591l8.352 4.803z"></path>
</symbol>
<symbol id="coroflot" viewBox="0 0 28 32">
<path fill="#ff5400" style="" d="M10.531 1.215c3.253-1.171 6.894-1.221 10.181-0.15 2.922 0.947 5.55 2.776 7.452 5.187-0.976 0.975-1.954 1.949-2.926 2.928-0.35-0.443-0.699-0.888-1.103-1.284-1.643-1.686-3.811-2.853-6.124-3.288-1.861-0.35-3.81-0.247-5.618 0.319-1.698 0.526-3.269 1.453-4.556 2.679-1.429 1.354-2.509 3.075-3.096 4.954-0.586 1.859-0.691 3.866-0.305 5.776 0.319 1.6 0.986 3.127 1.935 4.453 0.88 1.234 2.002 2.293 3.284 3.102 1.31 0.828 2.788 1.388 4.318 1.637 1.748 0.278 3.561 0.167 5.255-0.355 2.21-0.669 4.202-2.024 5.653-3.819 0.125-0.147 0.23-0.31 0.361-0.452 0.971 0.98 1.949 1.953 2.924 2.929-1.992 2.522-4.777 4.408-7.862 5.312-2.74 0.81-5.701 0.853-8.463 0.128-2.873-0.748-5.518-2.338-7.532-4.518-2.128-2.278-3.551-5.204-4.020-8.287-0.28-1.832-0.244-3.714 0.12-5.531 0.553-2.794 1.894-5.425 3.82-7.523 1.719-1.884 3.902-3.341 6.304-4.199zM9.77 12.512c0.608-1.048 1.494-1.933 2.541-2.542 1.153 1.154 2.308 2.306 3.459 3.462 0.027 0.024 0.070 0.087 0.105 0.033 1.112-1.112 2.224-2.223 3.334-3.336 0.057-0.049 0.1-0.123 0.173-0.148 1.046 0.6 1.915 1.49 2.529 2.526-1.174 1.181-2.354 2.355-3.53 3.534 1.176 1.179 2.358 2.353 3.53 3.536-0.615 1.041-1.492 1.926-2.538 2.535-1.184-1.17-2.35-2.359-3.536-3.527-1.173 1.179-2.35 2.352-3.525 3.529-1.046-0.61-1.933-1.494-2.54-2.543 1.18-1.174 2.352-2.356 3.532-3.53-1.18-1.174-2.352-2.356-3.532-3.53z"></path>
</symbol>
<symbol id="mail" viewBox="0 0 32 32">
<path d="M28 5h-24c-2.209 0-4 1.792-4 4v13c0 2.209 1.791 4 4 4h24c2.209 0 4-1.791 4-4v-13c0-2.208-1.791-4-4-4zM2 10.25l6.999 5.25-6.999 5.25v-10.5zM30 22c0 1.104-0.898 2-2 2h-24c-1.103 0-2-0.896-2-2l7.832-5.875 4.368 3.277c0.533 0.398 1.166 0.6 1.8 0.6 0.633 0 1.266-0.201 1.799-0.6l4.369-3.277 7.832 5.875zM30 20.75l-7-5.25 7-5.25v10.5zM17.199 18.602c-0.349 0.262-0.763 0.4-1.199 0.4s-0.851-0.139-1.2-0.4l-12.8-9.602c0-1.103 0.897-2 2-2h24c1.102 0 2 0.897 2 2l-12.801 9.602z"></path>
</symbol>
</defs>
</svg>
